G04*
G04 #@! TF.GenerationSoftware,Altium Limited,Altium Designer,25.2.1 (25)*
G04*
G04 Layer_Color=16711935*
%FSLAX25Y25*%
%MOIN*%
G70*
G04*
G04 #@! TF.SameCoordinates,E3AB8C20-A1E6-43C1-8624-3ED8289FA371*
G04*
G04*
G04 #@! TF.FilePolarity,Positive*
G04*
G01*
G75*
%ADD11C,0.00591*%
%ADD12C,0.00787*%
%ADD13C,0.00500*%
%ADD14C,0.00689*%
%ADD16C,0.01000*%
%ADD17C,0.00394*%
D11*
X107679Y2757D02*
Y6692D01*
X109647D01*
X110303Y6036D01*
Y4724D01*
X109647Y4068D01*
X107679D01*
X108991D02*
X110303Y2757D01*
X111615D02*
X112926D01*
X112270D01*
Y6692D01*
X111615Y6036D01*
X114894Y3413D02*
X115550Y2757D01*
X116862D01*
X117518Y3413D01*
Y6036D01*
X116862Y6692D01*
X115550D01*
X114894Y6036D01*
Y5380D01*
X115550Y4724D01*
X117518D01*
X35106Y193741D02*
X34450Y194397D01*
X33138D01*
X32482Y193741D01*
Y191117D01*
X33138Y190461D01*
X34450D01*
X35106Y191117D01*
X36418Y190461D02*
X37730D01*
X37074D01*
Y194397D01*
X36418Y193741D01*
X42321Y194397D02*
X41009Y193741D01*
X39697Y192429D01*
Y191117D01*
X40353Y190461D01*
X41665D01*
X42321Y191117D01*
Y191773D01*
X41665Y192429D01*
X39697D01*
X153148Y135925D02*
Y131989D01*
X151180D01*
X150524Y132645D01*
Y133957D01*
X151180Y134613D01*
X153148D01*
X151836D02*
X150524Y135925D01*
X149212D02*
X147900D01*
X148556D01*
Y131989D01*
X149212Y132645D01*
X143309Y131989D02*
X145932D01*
Y133957D01*
X144621Y133301D01*
X143965D01*
X143309Y133957D01*
Y135269D01*
X143965Y135925D01*
X145276D01*
X145932Y135269D01*
X144225Y141168D02*
X144881Y140512D01*
X146193D01*
X146849Y141168D01*
Y143792D01*
X146193Y144448D01*
X144881D01*
X144225Y143792D01*
X142913Y144448D02*
X141601D01*
X142257D01*
Y140512D01*
X142913Y141168D01*
X139633Y143792D02*
X138977Y144448D01*
X137665D01*
X137010Y143792D01*
Y141168D01*
X137665Y140512D01*
X138977D01*
X139633Y141168D01*
Y141824D01*
X138977Y142480D01*
X137010D01*
X134646Y122552D02*
X133990Y123208D01*
X132678D01*
X132023Y122552D01*
Y119928D01*
X132678Y119272D01*
X133990D01*
X134646Y119928D01*
X138582Y119272D02*
X135958D01*
X138582Y121896D01*
Y122552D01*
X137926Y123208D01*
X136614D01*
X135958Y122552D01*
X139894Y119272D02*
X141206D01*
X140550D01*
Y123208D01*
X139894Y122552D01*
X152133Y119206D02*
X148197D01*
Y121174D01*
X148853Y121830D01*
X150165D01*
X150821Y121174D01*
Y119206D01*
Y120518D02*
X152133Y121830D01*
Y123142D02*
Y124454D01*
Y123798D01*
X148197D01*
X148853Y123142D01*
X152133Y128390D02*
X148197D01*
X150165Y126422D01*
Y129046D01*
X134053Y101091D02*
X133397Y101747D01*
X132086D01*
X131430Y101091D01*
Y98468D01*
X132086Y97812D01*
X133397D01*
X134053Y98468D01*
X137989Y97812D02*
X135365D01*
X137989Y100435D01*
Y101091D01*
X137333Y101747D01*
X136021D01*
X135365Y101091D01*
X139301D02*
X139957Y101747D01*
X141269D01*
X141925Y101091D01*
Y98468D01*
X141269Y97812D01*
X139957D01*
X139301Y98468D01*
Y101091D01*
X134579Y184318D02*
X135235Y183662D01*
X136547D01*
X137203Y184318D01*
Y186942D01*
X136547Y187598D01*
X135235D01*
X134579Y186942D01*
X133267Y187598D02*
X131956D01*
X132611D01*
Y183662D01*
X133267Y184318D01*
X129988D02*
X129332Y183662D01*
X128020D01*
X127364Y184318D01*
Y184974D01*
X128020Y185630D01*
X127364Y186286D01*
Y186942D01*
X128020Y187598D01*
X129332D01*
X129988Y186942D01*
Y186286D01*
X129332Y185630D01*
X129988Y184974D01*
Y184318D01*
X129332Y185630D02*
X128020D01*
X112796Y186317D02*
X116732D01*
Y184349D01*
X116076Y183694D01*
X114764D01*
X114108Y184349D01*
Y186317D01*
Y185005D02*
X112796Y183694D01*
Y182381D02*
Y181070D01*
Y181726D01*
X116732D01*
X116076Y182381D01*
X112796Y176478D02*
Y179102D01*
X115420Y176478D01*
X116076D01*
X116732Y177134D01*
Y178446D01*
X116076Y179102D01*
X144323Y158334D02*
X144979Y157678D01*
X146291D01*
X146947Y158334D01*
Y160958D01*
X146291Y161614D01*
X144979D01*
X144323Y160958D01*
X143011Y161614D02*
X141700D01*
X142356D01*
Y157678D01*
X143011Y158334D01*
X139732Y157678D02*
X137108D01*
Y158334D01*
X139732Y160958D01*
Y161614D01*
X120079Y179231D02*
X124015D01*
Y177263D01*
X123359Y176607D01*
X122047D01*
X121391Y177263D01*
Y179231D01*
Y177919D02*
X120079Y176607D01*
Y175295D02*
Y173983D01*
Y174639D01*
X124015D01*
X123359Y175295D01*
Y172015D02*
X124015Y171359D01*
Y170047D01*
X123359Y169391D01*
X122703D01*
X122047Y170047D01*
Y170703D01*
Y170047D01*
X121391Y169391D01*
X120735D01*
X120079Y170047D01*
Y171359D01*
X120735Y172015D01*
X125198Y12138D02*
X129133D01*
Y10170D01*
X128477Y9514D01*
X127165D01*
X126509Y10170D01*
Y12138D01*
Y10826D02*
X125198Y9514D01*
X128477Y8202D02*
X129133Y7546D01*
Y6234D01*
X128477Y5579D01*
X127821D01*
X127165Y6234D01*
X126509Y5579D01*
X125853D01*
X125198Y6234D01*
Y7546D01*
X125853Y8202D01*
X126509D01*
X127165Y7546D01*
X127821Y8202D01*
X128477D01*
X127165Y7546D02*
Y6234D01*
X109381Y13385D02*
Y9449D01*
X107414D01*
X106758Y10105D01*
Y11417D01*
X107414Y12073D01*
X109381D01*
X108070D02*
X106758Y13385D01*
X102822D02*
X105446D01*
X102822Y10761D01*
Y10105D01*
X103478Y9449D01*
X104790D01*
X105446Y10105D01*
X101510D02*
X100854Y9449D01*
X99542D01*
X98886Y10105D01*
Y12729D01*
X99542Y13385D01*
X100854D01*
X101510Y12729D01*
Y10105D01*
X87630Y7677D02*
Y3741D01*
X85662D01*
X85006Y4397D01*
Y5709D01*
X85662Y6365D01*
X87630D01*
X86318D02*
X85006Y7677D01*
X83694Y4397D02*
X83039Y3741D01*
X81726D01*
X81071Y4397D01*
Y5053D01*
X81726Y5709D01*
X82383D01*
X81726D01*
X81071Y6365D01*
Y7021D01*
X81726Y7677D01*
X83039D01*
X83694Y7021D01*
X91434Y114876D02*
X95369Y117500D01*
X91434D02*
X95369Y114876D01*
Y118812D02*
Y120124D01*
Y119468D01*
X91434D01*
X92090Y118812D01*
X94017Y107060D02*
X93361Y107716D01*
X92049D01*
X91393Y107060D01*
Y104436D01*
X92049Y103780D01*
X93361D01*
X94017Y104436D01*
X97953Y107716D02*
X95329D01*
Y105748D01*
X96641Y106404D01*
X97297D01*
X97953Y105748D01*
Y104436D01*
X97297Y103780D01*
X95985D01*
X95329Y104436D01*
X92231Y127838D02*
X92887Y127182D01*
X94199D01*
X94855Y127838D01*
Y130462D01*
X94199Y131117D01*
X92887D01*
X92231Y130462D01*
X88295Y127182D02*
X89607Y127838D01*
X90919Y129150D01*
Y130462D01*
X90263Y131117D01*
X88951D01*
X88295Y130462D01*
Y129806D01*
X88951Y129150D01*
X90919D01*
X80241Y123280D02*
X84176D01*
Y121312D01*
X83521Y120656D01*
X82209D01*
X81553Y121312D01*
Y123280D01*
Y121968D02*
X80241Y120656D01*
X84176Y116720D02*
Y119344D01*
X82209D01*
X82865Y118032D01*
Y117376D01*
X82209Y116720D01*
X80897D01*
X80241Y117376D01*
Y118688D01*
X80897Y119344D01*
X75328Y90617D02*
X75984Y91272D01*
Y92584D01*
X75328Y93240D01*
X72704D01*
X72048Y92584D01*
Y91272D01*
X72704Y90617D01*
X75984Y89305D02*
Y86681D01*
X75328D01*
X72704Y89305D01*
X72048D01*
X69529Y93766D02*
X70184Y94422D01*
Y95734D01*
X69529Y96390D01*
X66905D01*
X66249Y95734D01*
Y94422D01*
X66905Y93766D01*
X69529Y92454D02*
X70184Y91798D01*
Y90486D01*
X69529Y89830D01*
X68872D01*
X68217Y90486D01*
X67561Y89830D01*
X66905D01*
X66249Y90486D01*
Y91798D01*
X66905Y92454D01*
X67561D01*
X68217Y91798D01*
X68872Y92454D01*
X69529D01*
X68217Y91798D02*
Y90486D01*
X65393Y106498D02*
X64737Y105842D01*
Y104530D01*
X65393Y103874D01*
X68017D01*
X68673Y104530D01*
Y105842D01*
X68017Y106498D01*
Y107809D02*
X68673Y108466D01*
Y109777D01*
X68017Y110433D01*
X65393D01*
X64737Y109777D01*
Y108466D01*
X65393Y107809D01*
X66049D01*
X66705Y108466D01*
Y110433D01*
X32024Y91348D02*
X32680Y92004D01*
Y93316D01*
X32024Y93972D01*
X29401D01*
X28745Y93316D01*
Y92004D01*
X29401Y91348D01*
X28745Y90037D02*
Y88725D01*
Y89381D01*
X32680D01*
X32024Y90037D01*
X28745Y86757D02*
Y85445D01*
Y86101D01*
X32680D01*
X32024Y86757D01*
X19816Y54881D02*
X20471Y54225D01*
X21783D01*
X22439Y54881D01*
Y57505D01*
X21783Y58161D01*
X20471D01*
X19816Y57505D01*
X18504Y58161D02*
X17192D01*
X17848D01*
Y54225D01*
X18504Y54881D01*
X13256Y58161D02*
Y54225D01*
X15224Y56193D01*
X12600D01*
X4382Y54792D02*
Y58728D01*
X6350D01*
X7006Y58072D01*
Y56760D01*
X6350Y56104D01*
X4382D01*
X5694D02*
X7006Y54792D01*
X10285D02*
Y58728D01*
X8317Y56760D01*
X10941D01*
X53083Y68110D02*
Y64174D01*
X51115D01*
X50459Y64830D01*
Y66142D01*
X51115Y66798D01*
X53083D01*
X51771D02*
X50459Y68110D01*
X46523Y64174D02*
X47835Y64830D01*
X49147Y66142D01*
Y67454D01*
X48491Y68110D01*
X47179D01*
X46523Y67454D01*
Y66798D01*
X47179Y66142D01*
X49147D01*
X59220Y83989D02*
X58564Y84645D01*
X57252D01*
X56596Y83989D01*
Y81365D01*
X57252Y80709D01*
X58564D01*
X59220Y81365D01*
X60532Y80709D02*
X61844D01*
X61188D01*
Y84645D01*
X60532Y83989D01*
X66435Y80709D02*
X63812D01*
X66435Y83333D01*
Y83989D01*
X65780Y84645D01*
X64468D01*
X63812Y83989D01*
X39697Y118267D02*
X40353Y117611D01*
X41665D01*
X42321Y118267D01*
Y120891D01*
X41665Y121547D01*
X40353D01*
X39697Y120891D01*
X38385Y121547D02*
X37074D01*
X37729D01*
Y117611D01*
X38385Y118267D01*
X35106D02*
X34450Y117611D01*
X33138D01*
X32482Y118267D01*
Y120891D01*
X33138Y121547D01*
X34450D01*
X35106Y120891D01*
Y118267D01*
X49642Y128594D02*
X50298Y127938D01*
X51610D01*
X52266Y128594D01*
Y131217D01*
X51610Y131873D01*
X50298D01*
X49642Y131217D01*
X48330Y131873D02*
X47019D01*
X47674D01*
Y127938D01*
X48330Y128594D01*
X45051D02*
X44395Y127938D01*
X43083D01*
X42427Y128594D01*
Y129250D01*
X43083Y129905D01*
X43739D01*
X43083D01*
X42427Y130561D01*
Y131217D01*
X43083Y131873D01*
X44395D01*
X45051Y131217D01*
X33464Y131267D02*
X29528D01*
Y133235D01*
X30184Y133891D01*
X31496D01*
X32152Y133235D01*
Y131267D01*
Y132579D02*
X33464Y133891D01*
Y137827D02*
Y135203D01*
X30840Y137827D01*
X30184D01*
X29528Y137171D01*
Y135859D01*
X30184Y135203D01*
X25655Y135039D02*
Y131103D01*
X23687D01*
X23031Y131759D01*
Y133071D01*
X23687Y133727D01*
X25655D01*
X24343D02*
X23031Y135039D01*
X21720D02*
X20408D01*
X21064D01*
Y131103D01*
X21720Y131759D01*
X12238Y134686D02*
X11582Y135342D01*
X10270D01*
X9614Y134686D01*
Y132062D01*
X10270Y131406D01*
X11582D01*
X12238Y132062D01*
X13550Y134686D02*
X14206Y135342D01*
X15518D01*
X16173Y134686D01*
Y134030D01*
X15518Y133374D01*
X14862D01*
X15518D01*
X16173Y132718D01*
Y132062D01*
X15518Y131406D01*
X14206D01*
X13550Y132062D01*
X7284Y153943D02*
X7940Y154599D01*
Y155911D01*
X7284Y156567D01*
X4660D01*
X4005Y155911D01*
Y154599D01*
X4660Y153943D01*
X4005Y150664D02*
X7940D01*
X5972Y152631D01*
Y150008D01*
X20998Y161064D02*
X20342Y161720D01*
X19030D01*
X18374Y161064D01*
Y158440D01*
X19030Y157784D01*
X20342D01*
X20998Y158440D01*
X24933Y157784D02*
X22309D01*
X24933Y160408D01*
Y161064D01*
X24277Y161720D01*
X22965D01*
X22309Y161064D01*
X14764Y166182D02*
X14108Y166838D01*
X12796D01*
X12140Y166182D01*
Y163558D01*
X12796Y162902D01*
X14108D01*
X14764Y163558D01*
X16076Y162902D02*
X17388D01*
X16732D01*
Y166838D01*
X16076Y166182D01*
X35106Y173556D02*
X34450Y174212D01*
X33138D01*
X32482Y173556D01*
Y170932D01*
X33138Y170276D01*
X34450D01*
X35106Y170932D01*
X36418Y170276D02*
X37730D01*
X37074D01*
Y174212D01*
X36418Y173556D01*
X42321Y174212D02*
X39697D01*
Y172244D01*
X41009Y172900D01*
X41665D01*
X42321Y172244D01*
Y170932D01*
X41665Y170276D01*
X40353D01*
X39697Y170932D01*
X33138Y174213D02*
Y178149D01*
X35106D01*
X35762Y177493D01*
Y176181D01*
X35106Y175525D01*
X33138D01*
X34450D02*
X35762Y174213D01*
X37074D02*
X38385D01*
X37730D01*
Y178149D01*
X37074Y177493D01*
X40353Y174213D02*
X41665D01*
X41009D01*
Y178149D01*
X40353Y177493D01*
X41338Y179135D02*
X37402D01*
Y181103D01*
X38058Y181759D01*
X39370D01*
X40026Y181103D01*
Y179135D01*
Y180447D02*
X41338Y181759D01*
Y183071D02*
Y184383D01*
Y183727D01*
X37402D01*
X38058Y183071D01*
Y186351D02*
X37402Y187007D01*
Y188319D01*
X38058Y188975D01*
X40682D01*
X41338Y188319D01*
Y187007D01*
X40682Y186351D01*
X38058D01*
X25590Y176445D02*
X21654D01*
Y178412D01*
X22310Y179069D01*
X23622D01*
X24278Y178412D01*
Y176445D01*
Y177757D02*
X25590Y179069D01*
X21654Y180380D02*
Y183004D01*
X22310D01*
X24934Y180380D01*
X25590D01*
X18799Y176346D02*
X14863D01*
Y178314D01*
X15519Y178970D01*
X16831D01*
X17487Y178314D01*
Y176346D01*
Y177658D02*
X18799Y178970D01*
X18143Y180282D02*
X18799Y180938D01*
Y182250D01*
X18143Y182906D01*
X15519D01*
X14863Y182250D01*
Y180938D01*
X15519Y180282D01*
X16175D01*
X16831Y180938D01*
Y182906D01*
D12*
X138114Y170319D02*
X137327D01*
X138114D01*
D13*
X131687Y169211D02*
X135092D01*
X131687D02*
Y176152D01*
X135092D01*
Y169211D02*
Y176152D01*
D14*
X106693Y1476D02*
Y7972D01*
X118504D01*
Y1476D02*
Y7972D01*
X106693Y1476D02*
X118504D01*
X32874Y189173D02*
X41929D01*
Y194685D01*
X32874D02*
X41929D01*
X32874Y189173D02*
Y194685D01*
X142323Y137205D02*
X154134D01*
X142323Y130709D02*
Y137205D01*
Y130709D02*
X154134D01*
Y137205D01*
X150429Y137980D02*
Y146980D01*
X133429Y137980D02*
X150429D01*
X133429D02*
Y146980D01*
X150429D01*
X127067Y116220D02*
X146161D01*
Y126260D01*
X127067D02*
X146161D01*
X127067Y116220D02*
Y126260D01*
X153413Y118220D02*
Y130032D01*
X146917D02*
X153413D01*
X146917Y118220D02*
Y130032D01*
Y118220D02*
X153413D01*
X127130Y105488D02*
X146224D01*
Y115528D01*
X127130D02*
X146224D01*
X127130Y105488D02*
Y115528D01*
Y94760D02*
X146224D01*
Y104799D01*
X127130D02*
X146224D01*
X127130Y94760D02*
Y104799D01*
X123784Y190130D02*
X140784D01*
X123784Y181130D02*
Y190130D01*
Y181130D02*
X140784D01*
Y190130D01*
X111516Y175492D02*
Y187303D01*
Y175492D02*
X118012D01*
Y187303D01*
X111516D02*
X118012D01*
X133528Y164146D02*
X150528D01*
X133528Y155146D02*
Y164146D01*
Y155146D02*
X150528D01*
Y164146D01*
X118799Y180217D02*
X125295D01*
Y168405D02*
Y180217D01*
X118799Y168405D02*
X125295D01*
X118799D02*
Y180217D01*
X658Y75153D02*
X28216D01*
Y60193D02*
Y75153D01*
X658Y60193D02*
X28216D01*
X658D02*
Y75153D01*
X124409Y13386D02*
X129921D01*
Y4331D02*
Y13386D01*
X124409Y4331D02*
X129921D01*
X124409D02*
Y13386D01*
X108661Y8661D02*
Y14173D01*
X99606Y8661D02*
X108661D01*
X99606D02*
Y14173D01*
X108661D01*
X79823Y8465D02*
X88878D01*
X79823Y2953D02*
Y8465D01*
Y2953D02*
X88878D01*
Y8465D01*
X85911Y108740D02*
X99504D01*
X100882Y110118D01*
Y126151D01*
X85911D02*
X100882D01*
X85911Y108740D02*
Y119360D01*
Y115620D02*
Y126151D01*
X90146Y102492D02*
Y108004D01*
X99201D01*
Y102492D02*
Y108004D01*
X90146Y102492D02*
X99201D01*
X87047Y132405D02*
X96102D01*
X87047Y126894D02*
Y132405D01*
Y126894D02*
X96102D01*
Y132405D01*
X79453Y115472D02*
Y124528D01*
Y115472D02*
X84965D01*
Y124528D01*
X79453D02*
X84965D01*
X70768Y95866D02*
X77264D01*
Y84055D02*
Y95866D01*
X70768Y84055D02*
X77264D01*
X70768D02*
Y95866D01*
X64961Y88583D02*
Y97638D01*
Y88583D02*
X70473D01*
Y97638D01*
X64961D02*
X70473D01*
X69961Y102626D02*
Y111681D01*
X64449D02*
X69961D01*
X64449Y102626D02*
Y111681D01*
Y102626D02*
X69961D01*
X27457Y85181D02*
Y94236D01*
Y85181D02*
X32969D01*
Y94236D01*
X27457D02*
X32969D01*
X22047Y53937D02*
Y59449D01*
X12992Y53937D02*
X22047D01*
X12992D02*
Y59449D01*
X22047D01*
X3134Y54004D02*
Y59516D01*
X12189D01*
Y54004D02*
Y59516D01*
X3134Y54004D02*
X12189D01*
X45276Y68898D02*
X54331D01*
X45276Y63386D02*
Y68898D01*
Y63386D02*
X54331D01*
Y68898D01*
X56496Y79921D02*
X65551D01*
Y85433D01*
X56496D02*
X65551D01*
X56496Y79921D02*
Y85433D01*
X32874Y122835D02*
X41929D01*
X32874Y117323D02*
Y122835D01*
Y117323D02*
X41929D01*
Y122835D01*
X53252Y126657D02*
Y133153D01*
X41441Y126657D02*
X53252D01*
X41441D02*
Y133153D01*
X53252D01*
X34252Y130020D02*
Y139075D01*
X28740D02*
X34252D01*
X28740Y130020D02*
Y139075D01*
Y130020D02*
X34252D01*
X18504Y135827D02*
X27559D01*
X18504Y130315D02*
Y135827D01*
Y130315D02*
X27559D01*
Y135827D01*
X8366Y130118D02*
X17421D01*
Y135630D01*
X8366D02*
X17421D01*
X8366Y130118D02*
Y135630D01*
X2716Y157815D02*
X8228D01*
Y148760D02*
Y157815D01*
X2716Y148760D02*
X8228D01*
X2716D02*
Y157815D01*
X17126Y156496D02*
X26181D01*
Y162008D01*
X17126D02*
X26181D01*
X17126Y156496D02*
Y162008D01*
X10236Y161614D02*
X19291D01*
Y167126D01*
X10236D02*
X19291D01*
X10236Y161614D02*
Y167126D01*
X32874Y167520D02*
Y173031D01*
X41929D01*
Y167520D02*
Y173031D01*
X32874Y167520D02*
X41929D01*
X32874Y173425D02*
X41929D01*
Y178937D01*
X32874D02*
X41929D01*
X32874Y173425D02*
Y178937D01*
X36614Y179527D02*
X42126D01*
X36614D02*
Y188583D01*
X42126D01*
Y179527D02*
Y188583D01*
X26378Y175197D02*
Y184252D01*
X20866D02*
X26378D01*
X20866Y175197D02*
Y184252D01*
Y175197D02*
X26378D01*
X19587Y175098D02*
Y184153D01*
X14075D02*
X19587D01*
X14075Y175098D02*
Y184153D01*
Y175098D02*
X19587D01*
D16*
X97582Y112972D02*
X96922Y113354D01*
Y112591D01*
X97582Y112972D01*
X13437Y70672D02*
X11438D01*
X12438D01*
Y65674D01*
X11438Y64674D01*
X10438D01*
X9439Y65674D01*
X19435Y64674D02*
X15437D01*
X19435Y68673D01*
Y69673D01*
X18436Y70672D01*
X16436D01*
X15437Y69673D01*
D17*
X61102Y91102D02*
X60839Y92087D01*
X60118Y92807D01*
X59134Y93071D01*
X58150Y92807D01*
X57429Y92087D01*
X57165Y91102D01*
X57429Y90118D01*
X58150Y89398D01*
X59134Y89134D01*
X60118Y89398D01*
X60839Y90118D01*
X61102Y91102D01*
X48031Y134331D02*
Y195748D01*
X109449D01*
Y134331D02*
Y195748D01*
X48031Y134331D02*
X109449D01*
X62677Y87559D02*
Y115512D01*
X34724Y87559D02*
Y115512D01*
Y87559D02*
X62677D01*
X34724Y115512D02*
X62677D01*
X10138Y138386D02*
Y154134D01*
X25886D01*
Y138386D02*
Y154134D01*
X10138Y138386D02*
X25886D01*
X19793Y190177D02*
X26092D01*
X19793Y187028D02*
X26092D01*
X19793D02*
Y190177D01*
X26092Y187028D02*
Y190177D01*
X25108Y187028D02*
Y190177D01*
X20778Y187028D02*
Y190177D01*
X19783Y194488D02*
X26083D01*
X19783Y191339D02*
X26083D01*
X19783D02*
Y194488D01*
X26083Y191339D02*
Y194488D01*
X25098Y191339D02*
Y194488D01*
X20768Y191339D02*
Y194488D01*
X134465Y111539D02*
X134278Y111914D01*
X133903Y112288D01*
X133528Y112476D01*
X132779D01*
X132404Y112288D01*
X132029Y111914D01*
X131841Y111539D01*
X131654Y110977D01*
Y110039D01*
X131841Y109477D01*
X132029Y109102D01*
X132404Y108727D01*
X132779Y108540D01*
X133528D01*
X133903Y108727D01*
X134278Y109102D01*
X134465Y109477D01*
X135759Y111539D02*
Y111726D01*
X135946Y112101D01*
X136134Y112288D01*
X136509Y112476D01*
X137258D01*
X137633Y112288D01*
X137820Y112101D01*
X138008Y111726D01*
Y111351D01*
X137820Y110977D01*
X137446Y110414D01*
X135571Y108540D01*
X138195D01*
X139264Y111539D02*
Y111726D01*
X139451Y112101D01*
X139639Y112288D01*
X140014Y112476D01*
X140763D01*
X141138Y112288D01*
X141326Y112101D01*
X141513Y111726D01*
Y111351D01*
X141326Y110977D01*
X140951Y110414D01*
X139076Y108540D01*
X141700D01*
M02*
