G04*
G04 #@! TF.GenerationSoftware,Altium Limited,Altium Designer,25.2.1 (25)*
G04*
G04 Layer_Physical_Order=3*
G04 Layer_Color=16440176*
%FSLAX25Y25*%
%MOIN*%
G70*
G04*
G04 #@! TF.SameCoordinates,E3AB8C20-A1E6-43C1-8624-3ED8289FA371*
G04*
G04*
G04 #@! TF.FilePolarity,Positive*
G04*
G01*
G75*
%ADD62C,0.06181*%
%ADD63R,0.06181X0.06181*%
%ADD64C,0.07284*%
%ADD65R,0.07284X0.07284*%
%ADD67C,0.05709*%
%ADD68R,0.05709X0.05709*%
%ADD84C,0.07874*%
%ADD85R,0.07874X0.07874*%
%ADD86C,0.04201*%
%ADD87C,0.01968*%
%ADD88C,0.02362*%
%ADD89C,0.03543*%
%ADD90C,0.03150*%
G36*
X157480Y0D02*
X0D01*
Y196850D01*
X157480D01*
Y0D01*
D02*
G37*
%LPC*%
G36*
X52065Y193996D02*
X51282D01*
X50558Y193696D01*
X50004Y193143D01*
X49705Y192419D01*
Y191636D01*
X50004Y190912D01*
X50558Y190359D01*
X51282Y190059D01*
X52065D01*
X52788Y190359D01*
X53342Y190912D01*
X53642Y191636D01*
Y192419D01*
X53342Y193143D01*
X52788Y193696D01*
X52065Y193996D01*
D02*
G37*
G36*
X87016Y192032D02*
X86212D01*
X85435Y191823D01*
X84738Y191421D01*
X84170Y190852D01*
X83767Y190156D01*
X83559Y189379D01*
Y188574D01*
X83767Y187797D01*
X84170Y187101D01*
X84738Y186532D01*
X85435Y186129D01*
X86212Y185921D01*
X87016D01*
X87793Y186129D01*
X88490Y186532D01*
X89059Y187101D01*
X89461Y187797D01*
X89669Y188574D01*
Y189379D01*
X89461Y190156D01*
X89059Y190852D01*
X88490Y191421D01*
X87793Y191823D01*
X87016Y192032D01*
D02*
G37*
G36*
X150228Y193701D02*
X148984D01*
X147783Y193379D01*
X146705Y192757D01*
X145826Y191877D01*
X145204Y190800D01*
X144882Y189598D01*
Y188354D01*
X145204Y187153D01*
X145826Y186075D01*
X146705Y185196D01*
X147783Y184574D01*
X148984Y184252D01*
X150228D01*
X151430Y184574D01*
X152507Y185196D01*
X153387Y186075D01*
X154009Y187153D01*
X154331Y188354D01*
Y189598D01*
X154009Y190800D01*
X153387Y191877D01*
X152507Y192757D01*
X151430Y193379D01*
X150228Y193701D01*
D02*
G37*
G36*
X8496D02*
X7252D01*
X6050Y193379D01*
X4973Y192757D01*
X4093Y191877D01*
X3472Y190800D01*
X3150Y189598D01*
Y188354D01*
X3472Y187153D01*
X4093Y186075D01*
X4973Y185196D01*
X6050Y184574D01*
X7252Y184252D01*
X8496D01*
X9698Y184574D01*
X10775Y185196D01*
X11654Y186075D01*
X12276Y187153D01*
X12598Y188354D01*
Y189598D01*
X12276Y190800D01*
X11654Y191877D01*
X10775Y192757D01*
X9698Y193379D01*
X8496Y193701D01*
D02*
G37*
G36*
X79285Y189177D02*
X78196D01*
X77143Y188895D01*
X76200Y188350D01*
X75429Y187580D01*
X74885Y186636D01*
X74603Y185584D01*
Y184495D01*
X74885Y183442D01*
X75429Y182499D01*
X76200Y181729D01*
X77143Y181184D01*
X78196Y180902D01*
X79285D01*
X80337Y181184D01*
X81281Y181729D01*
X82051Y182499D01*
X82596Y183442D01*
X82878Y184495D01*
Y185584D01*
X82596Y186636D01*
X82051Y187580D01*
X81281Y188350D01*
X80337Y188895D01*
X79285Y189177D01*
D02*
G37*
G36*
X29624Y175295D02*
X28841D01*
X28117Y174996D01*
X27564Y174442D01*
X27264Y173718D01*
Y172935D01*
X27564Y172212D01*
X28117Y171658D01*
X28841Y171358D01*
X29624D01*
X30347Y171658D01*
X30901Y172212D01*
X31201Y172935D01*
Y173718D01*
X30901Y174442D01*
X30347Y174996D01*
X29624Y175295D01*
D02*
G37*
G36*
X59362Y179764D02*
X58118D01*
X56917Y179442D01*
X55839Y178820D01*
X54960Y177940D01*
X54338Y176863D01*
X54016Y175661D01*
Y174417D01*
X54338Y173216D01*
X54960Y172139D01*
X55839Y171259D01*
X56917Y170637D01*
X58118Y170315D01*
X59362D01*
X60564Y170637D01*
X61641Y171259D01*
X62521Y172139D01*
X63143Y173216D01*
X63465Y174417D01*
Y175661D01*
X63143Y176863D01*
X62521Y177940D01*
X61641Y178820D01*
X60564Y179442D01*
X59362Y179764D01*
D02*
G37*
G36*
X8069Y173228D02*
X7286D01*
X6562Y172929D01*
X6008Y172375D01*
X5709Y171651D01*
Y170868D01*
X6008Y170145D01*
X6562Y169591D01*
X7286Y169291D01*
X8069D01*
X8792Y169591D01*
X9346Y170145D01*
X9646Y170868D01*
Y171651D01*
X9346Y172375D01*
X8792Y172929D01*
X8069Y173228D01*
D02*
G37*
G36*
X79591Y173677D02*
X77889D01*
X76221Y173345D01*
X74649Y172694D01*
X73234Y171748D01*
X72031Y170545D01*
X71086Y169131D01*
X70435Y167559D01*
X70103Y165890D01*
Y164189D01*
X70435Y162520D01*
X71086Y160948D01*
X72031Y159533D01*
X73234Y158330D01*
X74649Y157385D01*
X76221Y156734D01*
X77889Y156402D01*
X79591D01*
X81260Y156734D01*
X82832Y157385D01*
X84246Y158330D01*
X85449Y159533D01*
X86395Y160948D01*
X87046Y162520D01*
X87378Y164189D01*
Y165890D01*
X87046Y167559D01*
X86395Y169131D01*
X85449Y170545D01*
X84246Y171748D01*
X82832Y172694D01*
X81260Y173345D01*
X79591Y173677D01*
D02*
G37*
G36*
X141378Y154862D02*
X133622D01*
Y147106D01*
X141378D01*
Y154862D01*
D02*
G37*
G36*
X73465Y154764D02*
X64016D01*
Y145315D01*
X73465D01*
Y154764D01*
D02*
G37*
G36*
X79285Y149177D02*
X78196D01*
X77143Y148895D01*
X76200Y148350D01*
X75429Y147580D01*
X74885Y146636D01*
X74603Y145584D01*
Y144495D01*
X74885Y143442D01*
X75429Y142499D01*
X76200Y141729D01*
X77143Y141184D01*
X78196Y140902D01*
X79285D01*
X80337Y141184D01*
X81281Y141729D01*
X82051Y142499D01*
X82596Y143442D01*
X82878Y144495D01*
Y145584D01*
X82596Y146636D01*
X82051Y147580D01*
X81281Y148350D01*
X80337Y148895D01*
X79285Y149177D01*
D02*
G37*
G36*
X39073Y138287D02*
X38289D01*
X37566Y137988D01*
X37012Y137434D01*
X36713Y136711D01*
Y135927D01*
X37012Y135204D01*
X37566Y134650D01*
X38289Y134350D01*
X39073D01*
X39796Y134650D01*
X40350Y135204D01*
X40650Y135927D01*
Y136711D01*
X40350Y137434D01*
X39796Y137988D01*
X39073Y138287D01*
D02*
G37*
G36*
X60628Y133071D02*
X59845D01*
X59121Y132771D01*
X58567Y132217D01*
X58268Y131494D01*
Y130711D01*
X58567Y129987D01*
X59121Y129434D01*
X59845Y129134D01*
X60628D01*
X61351Y129434D01*
X61905Y129987D01*
X62205Y130711D01*
Y131494D01*
X61905Y132217D01*
X61351Y132771D01*
X60628Y133071D01*
D02*
G37*
G36*
X54643Y128905D02*
X53860D01*
X53137Y128606D01*
X52583Y128052D01*
X52284Y127329D01*
Y126546D01*
X52583Y125822D01*
X53137Y125268D01*
X53860Y124969D01*
X54643D01*
X55367Y125268D01*
X55921Y125822D01*
X56221Y126546D01*
Y127329D01*
X55921Y128052D01*
X55367Y128606D01*
X54643Y128905D01*
D02*
G37*
G36*
X17616Y127953D02*
X16833D01*
X16109Y127653D01*
X15556Y127099D01*
X15256Y126376D01*
Y125593D01*
X15556Y124869D01*
X16109Y124315D01*
X16833Y124016D01*
X17616D01*
X18339Y124315D01*
X18893Y124869D01*
X19193Y125593D01*
Y126376D01*
X18893Y127099D01*
X18339Y127653D01*
X17616Y127953D01*
D02*
G37*
G36*
X62399Y125197D02*
X61616D01*
X60893Y124897D01*
X60339Y124343D01*
X60039Y123620D01*
Y122837D01*
X60339Y122113D01*
X60893Y121560D01*
X61616Y121260D01*
X62399D01*
X63123Y121560D01*
X63677Y122113D01*
X63976Y122837D01*
Y123620D01*
X63677Y124343D01*
X63123Y124897D01*
X62399Y125197D01*
D02*
G37*
G36*
X48372Y127902D02*
X47589D01*
X46865Y127602D01*
X46312Y127048D01*
X46012Y126325D01*
Y125541D01*
X46312Y124818D01*
X46799Y124331D01*
X46815Y123906D01*
X46752Y123459D01*
X46594Y123393D01*
X46040Y122839D01*
X45740Y122116D01*
Y121333D01*
X46040Y120609D01*
X46594Y120056D01*
X47317Y119756D01*
X48100D01*
X48824Y120056D01*
X49378Y120609D01*
X49677Y121333D01*
Y122116D01*
X49378Y122839D01*
X48890Y123327D01*
X48874Y123752D01*
X48937Y124199D01*
X49095Y124264D01*
X49649Y124818D01*
X49949Y125541D01*
Y126325D01*
X49649Y127048D01*
X49095Y127602D01*
X48372Y127902D01*
D02*
G37*
G36*
X67660Y122146D02*
X66986D01*
X66335Y121971D01*
X65751Y121634D01*
X65275Y121158D01*
X64938Y120574D01*
X64764Y119923D01*
Y119250D01*
X64938Y118599D01*
X65275Y118015D01*
X65751Y117539D01*
X66335Y117202D01*
X66986Y117028D01*
X67660D01*
X68311Y117202D01*
X68894Y117539D01*
X69371Y118015D01*
X69708Y118599D01*
X69882Y119250D01*
Y119923D01*
X69708Y120574D01*
X69371Y121158D01*
X68894Y121634D01*
X68311Y121971D01*
X67660Y122146D01*
D02*
G37*
G36*
X33301Y116701D02*
X32518D01*
X31794Y116401D01*
X31241Y115847D01*
X30941Y115124D01*
Y114341D01*
X31241Y113617D01*
X31794Y113064D01*
X32518Y112764D01*
X33301D01*
X34025Y113064D01*
X34578Y113617D01*
X34878Y114341D01*
Y115124D01*
X34578Y115847D01*
X34025Y116401D01*
X33301Y116701D01*
D02*
G37*
G36*
X26770Y112992D02*
X25986D01*
X25263Y112692D01*
X24709Y112139D01*
X24409Y111415D01*
Y110632D01*
X24709Y109908D01*
X25263Y109355D01*
X25986Y109055D01*
X26770D01*
X27493Y109355D01*
X28047Y109908D01*
X28346Y110632D01*
Y111415D01*
X28047Y112139D01*
X27493Y112692D01*
X26770Y112992D01*
D02*
G37*
G36*
X4525Y112205D02*
X3742D01*
X3019Y111905D01*
X2465Y111351D01*
X2165Y110628D01*
Y109845D01*
X2465Y109121D01*
X3019Y108567D01*
X3742Y108268D01*
X4525D01*
X5249Y108567D01*
X5803Y109121D01*
X6102Y109845D01*
Y110628D01*
X5803Y111351D01*
X5249Y111905D01*
X4525Y112205D01*
D02*
G37*
G36*
X29919Y103937D02*
X29136D01*
X28413Y103637D01*
X27859Y103084D01*
X27559Y102360D01*
Y101577D01*
X27859Y100853D01*
X28413Y100300D01*
X29136Y100000D01*
X29919D01*
X30643Y100300D01*
X31196Y100853D01*
X31496Y101577D01*
Y102360D01*
X31196Y103084D01*
X30643Y103637D01*
X29919Y103937D01*
D02*
G37*
G36*
X28880Y86024D02*
X28206D01*
X27556Y85849D01*
X26972Y85512D01*
X26496Y85036D01*
X26159Y84452D01*
X25984Y83802D01*
Y83128D01*
X26159Y82477D01*
X26496Y81893D01*
X26972Y81417D01*
X27556Y81080D01*
X28206Y80905D01*
X28880D01*
X29531Y81080D01*
X30115Y81417D01*
X30591Y81893D01*
X30928Y82477D01*
X31102Y83128D01*
Y83802D01*
X30928Y84452D01*
X30591Y85036D01*
X30115Y85512D01*
X29531Y85849D01*
X28880Y86024D01*
D02*
G37*
G36*
X68644Y84252D02*
X67970D01*
X67319Y84078D01*
X66736Y83741D01*
X66259Y83264D01*
X65922Y82681D01*
X65748Y82030D01*
Y81356D01*
X65922Y80705D01*
X66259Y80122D01*
X66736Y79645D01*
X67319Y79308D01*
X67970Y79134D01*
X68644D01*
X69295Y79308D01*
X70079Y78852D01*
Y78797D01*
X70253Y78146D01*
X70590Y77563D01*
X71066Y77086D01*
X71650Y76749D01*
X72301Y76575D01*
X72975D01*
X73626Y76749D01*
X74209Y77086D01*
X74686Y77563D01*
X75023Y78146D01*
X75197Y78797D01*
Y79471D01*
X75023Y80122D01*
X74686Y80705D01*
X74209Y81182D01*
X73626Y81519D01*
X72975Y81693D01*
X72301D01*
X71650Y81519D01*
X70866Y81975D01*
Y82030D01*
X70692Y82681D01*
X70355Y83264D01*
X69878Y83741D01*
X69295Y84078D01*
X68644Y84252D01*
D02*
G37*
G36*
X34053Y72933D02*
X33270D01*
X32546Y72633D01*
X31993Y72080D01*
X31693Y71356D01*
Y70573D01*
X31993Y69849D01*
X32546Y69296D01*
X33270Y68996D01*
X34053D01*
X34776Y69296D01*
X35330Y69849D01*
X35630Y70573D01*
Y71356D01*
X35330Y72080D01*
X34776Y72633D01*
X34053Y72933D01*
D02*
G37*
G36*
X24817Y74561D02*
X24057D01*
X23322Y74364D01*
X22664Y73984D01*
X22126Y73446D01*
X21746Y72788D01*
X21549Y72053D01*
Y71293D01*
X21746Y70559D01*
X22126Y69900D01*
X22664Y69362D01*
X23322Y68982D01*
X24057Y68785D01*
X24817D01*
X25552Y68982D01*
X26210Y69362D01*
X26748Y69900D01*
X27128Y70559D01*
X27325Y71293D01*
Y72053D01*
X27128Y72788D01*
X26748Y73446D01*
X26210Y73984D01*
X25552Y74364D01*
X24817Y74561D01*
D02*
G37*
G36*
X146612Y69764D02*
X145829D01*
X145105Y69464D01*
X144552Y68910D01*
X144252Y68187D01*
Y67404D01*
X144552Y66680D01*
X145105Y66127D01*
X145829Y65827D01*
X146612D01*
X147336Y66127D01*
X147889Y66680D01*
X148189Y67404D01*
Y68187D01*
X147889Y68910D01*
X147336Y69464D01*
X146612Y69764D01*
D02*
G37*
G36*
X38384Y69488D02*
X37601D01*
X36877Y69188D01*
X36323Y68635D01*
X36024Y67911D01*
Y67128D01*
X36323Y66405D01*
X36877Y65851D01*
X37601Y65551D01*
X38384D01*
X39107Y65851D01*
X39661Y66405D01*
X39961Y67128D01*
Y67911D01*
X39661Y68635D01*
X39107Y69188D01*
X38384Y69488D01*
D02*
G37*
G36*
X4817Y70561D02*
X4057D01*
X3322Y70364D01*
X2664Y69984D01*
X2126Y69446D01*
X1746Y68788D01*
X1549Y68053D01*
Y67293D01*
X1746Y66559D01*
X2126Y65900D01*
X2664Y65362D01*
X3322Y64982D01*
X4057Y64785D01*
X4817D01*
X5552Y64982D01*
X6210Y65362D01*
X6748Y65900D01*
X7128Y66559D01*
X7325Y67293D01*
Y68053D01*
X7128Y68788D01*
X6748Y69446D01*
X6210Y69984D01*
X5552Y70364D01*
X4817Y70561D01*
D02*
G37*
G36*
X24817Y66561D02*
X24057D01*
X23322Y66364D01*
X22664Y65984D01*
X22126Y65446D01*
X21746Y64788D01*
X21549Y64053D01*
Y63293D01*
X21746Y62559D01*
X22126Y61900D01*
X22664Y61362D01*
X23322Y60982D01*
X24057Y60785D01*
X24817D01*
X25552Y60982D01*
X26210Y61362D01*
X26748Y61900D01*
X27128Y62559D01*
X27325Y63293D01*
Y64053D01*
X27128Y64788D01*
X26748Y65446D01*
X26210Y65984D01*
X25552Y66364D01*
X24817Y66561D01*
D02*
G37*
G36*
X33764Y64069D02*
X32981D01*
X32257Y63769D01*
X31703Y63215D01*
X31404Y62492D01*
Y61709D01*
X31703Y60985D01*
X32257Y60431D01*
X32981Y60132D01*
X33764D01*
X34487Y60431D01*
X35041Y60985D01*
X35341Y61709D01*
Y62492D01*
X35041Y63215D01*
X34487Y63769D01*
X33764Y64069D01*
D02*
G37*
G36*
X133996Y66264D02*
X132830D01*
X131704Y65962D01*
X130694Y65379D01*
X129869Y64554D01*
X129286Y63544D01*
X128984Y62418D01*
Y61251D01*
X129286Y60125D01*
X129869Y59115D01*
X130694Y58290D01*
X131704Y57707D01*
X132830Y57406D01*
X133996D01*
X135123Y57707D01*
X136133Y58290D01*
X136958Y59115D01*
X137541Y60125D01*
X137843Y61251D01*
Y62418D01*
X137541Y63544D01*
X136958Y64554D01*
X136133Y65379D01*
X135123Y65962D01*
X133996Y66264D01*
D02*
G37*
G36*
X111394D02*
X102535D01*
Y57406D01*
X111394D01*
Y66264D01*
D02*
G37*
G36*
X139473Y53039D02*
X138307D01*
X137180Y52737D01*
X136170Y52154D01*
X135346Y51330D01*
X134763Y50320D01*
X134461Y49193D01*
Y48027D01*
X134763Y46901D01*
X135346Y45891D01*
X136170Y45066D01*
X137180Y44483D01*
X138307Y44181D01*
X139473D01*
X140599Y44483D01*
X141609Y45066D01*
X142434Y45891D01*
X143017Y46901D01*
X143319Y48027D01*
Y49193D01*
X143017Y50320D01*
X142434Y51330D01*
X141609Y52154D01*
X140599Y52737D01*
X139473Y53039D01*
D02*
G37*
G36*
X102071D02*
X100905D01*
X99779Y52737D01*
X98769Y52154D01*
X97944Y51330D01*
X97361Y50320D01*
X97059Y49193D01*
Y48027D01*
X97361Y46901D01*
X97944Y45891D01*
X98769Y45066D01*
X99779Y44483D01*
X100905Y44181D01*
X102071D01*
X103198Y44483D01*
X104208Y45066D01*
X105032Y45891D01*
X105615Y46901D01*
X105917Y48027D01*
Y49193D01*
X105615Y50320D01*
X105032Y51330D01*
X104208Y52154D01*
X103198Y52737D01*
X102071Y53039D01*
D02*
G37*
G36*
X60571Y44429D02*
X53287D01*
Y37146D01*
X60571D01*
Y44429D01*
D02*
G37*
G36*
X133996Y39815D02*
X132830D01*
X131704Y39513D01*
X130694Y38930D01*
X129869Y38105D01*
X129286Y37095D01*
X128984Y35969D01*
Y34803D01*
X129286Y33676D01*
X129869Y32666D01*
X130694Y31842D01*
X131704Y31258D01*
X132830Y30957D01*
X133996D01*
X135123Y31258D01*
X136133Y31842D01*
X136958Y32666D01*
X137541Y33676D01*
X137843Y34803D01*
Y35969D01*
X137541Y37095D01*
X136958Y38105D01*
X136133Y38930D01*
X135123Y39513D01*
X133996Y39815D01*
D02*
G37*
G36*
X107548D02*
X106381D01*
X105255Y39513D01*
X104245Y38930D01*
X103420Y38105D01*
X102837Y37095D01*
X102535Y35969D01*
Y34803D01*
X102837Y33676D01*
X103420Y32666D01*
X104245Y31842D01*
X105255Y31258D01*
X106381Y30957D01*
X107548D01*
X108674Y31258D01*
X109684Y31842D01*
X110509Y32666D01*
X111092Y33676D01*
X111394Y34803D01*
Y35969D01*
X111092Y37095D01*
X110509Y38105D01*
X109684Y38930D01*
X108674Y39513D01*
X107548Y39815D01*
D02*
G37*
G36*
X25815Y34390D02*
X18059D01*
Y26634D01*
X25815D01*
Y34390D01*
D02*
G37*
G36*
X57409Y24744D02*
X56450D01*
X55524Y24496D01*
X54693Y24016D01*
X54015Y23338D01*
X53536Y22508D01*
X53287Y21582D01*
Y20623D01*
X53536Y19697D01*
X54015Y18866D01*
X54693Y18188D01*
X55524Y17709D01*
X56450Y17461D01*
X57409D01*
X58335Y17709D01*
X59165Y18188D01*
X59843Y18866D01*
X60323Y19697D01*
X60571Y20623D01*
Y21582D01*
X60323Y22508D01*
X59843Y23338D01*
X59165Y24016D01*
X58335Y24496D01*
X57409Y24744D01*
D02*
G37*
G36*
X36612Y20866D02*
X35829D01*
X35105Y20567D01*
X34552Y20013D01*
X34252Y19289D01*
Y18506D01*
X34552Y17783D01*
X35105Y17229D01*
X35829Y16929D01*
X36612D01*
X37336Y17229D01*
X37889Y17783D01*
X38189Y18506D01*
Y19289D01*
X37889Y20013D01*
X37336Y20567D01*
X36612Y20866D01*
D02*
G37*
G36*
X73423Y19488D02*
X72640D01*
X71916Y19188D01*
X71363Y18635D01*
X71063Y17911D01*
Y17128D01*
X71363Y16405D01*
X71916Y15851D01*
X72640Y15551D01*
X73423D01*
X74147Y15851D01*
X74700Y16405D01*
X75000Y17128D01*
Y17911D01*
X74700Y18635D01*
X74147Y19188D01*
X73423Y19488D01*
D02*
G37*
G36*
X25807Y22776D02*
X18051D01*
Y15020D01*
X25807D01*
Y22776D01*
D02*
G37*
G36*
X12440D02*
X11419D01*
X10432Y22511D01*
X9548Y22001D01*
X8826Y21279D01*
X8315Y20394D01*
X8051Y19408D01*
Y18387D01*
X8315Y17401D01*
X8826Y16517D01*
X9548Y15795D01*
X10432Y15284D01*
X11419Y15020D01*
X12440D01*
X13426Y15284D01*
X14310Y15795D01*
X15032Y16517D01*
X15543Y17401D01*
X15807Y18387D01*
Y19408D01*
X15543Y20394D01*
X15032Y21279D01*
X14310Y22001D01*
X13426Y22511D01*
X12440Y22776D01*
D02*
G37*
G36*
X121258Y17323D02*
X120475D01*
X119751Y17023D01*
X119197Y16469D01*
X118898Y15746D01*
Y14963D01*
X119197Y14239D01*
X119751Y13686D01*
X120475Y13386D01*
X121258D01*
X121981Y13686D01*
X122535Y14239D01*
X122835Y14963D01*
Y15746D01*
X122535Y16469D01*
X121981Y17023D01*
X121258Y17323D01*
D02*
G37*
G36*
X32872Y13780D02*
X32089D01*
X31365Y13480D01*
X30812Y12926D01*
X30512Y12203D01*
Y11419D01*
X30812Y10696D01*
X31365Y10142D01*
X32089Y9843D01*
X32872D01*
X33595Y10142D01*
X34149Y10696D01*
X34449Y11419D01*
Y12203D01*
X34149Y12926D01*
X33595Y13480D01*
X32872Y13780D01*
D02*
G37*
G36*
X20087Y10929D02*
X19283D01*
X18506Y10721D01*
X17809Y10319D01*
X17240Y9750D01*
X16838Y9053D01*
X16630Y8276D01*
Y7472D01*
X16838Y6695D01*
X17240Y5998D01*
X17809Y5429D01*
X18506Y5027D01*
X19283Y4819D01*
X20087D01*
X20864Y5027D01*
X21561Y5429D01*
X22130Y5998D01*
X22532Y6695D01*
X22740Y7472D01*
Y8276D01*
X22532Y9053D01*
X22130Y9750D01*
X21561Y10319D01*
X20864Y10721D01*
X20087Y10929D01*
D02*
G37*
G36*
X150228Y12598D02*
X148984D01*
X147783Y12276D01*
X146705Y11654D01*
X145826Y10775D01*
X145204Y9698D01*
X144882Y8496D01*
Y7252D01*
X145204Y6050D01*
X145826Y4973D01*
X146705Y4093D01*
X147783Y3472D01*
X148984Y3150D01*
X150228D01*
X151430Y3472D01*
X152507Y4093D01*
X153387Y4973D01*
X154009Y6050D01*
X154331Y7252D01*
Y8496D01*
X154009Y9698D01*
X153387Y10775D01*
X152507Y11654D01*
X151430Y12276D01*
X150228Y12598D01*
D02*
G37*
G36*
X8496D02*
X7252D01*
X6050Y12276D01*
X4973Y11654D01*
X4093Y10775D01*
X3472Y9698D01*
X3150Y8496D01*
Y7252D01*
X3472Y6050D01*
X4093Y4973D01*
X4973Y4093D01*
X6050Y3472D01*
X7252Y3150D01*
X8496D01*
X9698Y3472D01*
X10775Y4093D01*
X11654Y4973D01*
X12276Y6050D01*
X12598Y7252D01*
Y8496D01*
X12276Y9698D01*
X11654Y10775D01*
X10775Y11654D01*
X9698Y12276D01*
X8496Y12598D01*
D02*
G37*
%LPD*%
D62*
X11937Y30512D02*
D03*
X11929Y18898D02*
D03*
X147500Y150984D02*
D03*
D63*
X21937Y30512D02*
D03*
X21929Y18898D02*
D03*
X137500Y150984D02*
D03*
D64*
X101488Y48610D02*
D03*
X138890D02*
D03*
X133413Y61835D02*
D03*
X106965Y35386D02*
D03*
X133413D02*
D03*
D65*
X106965Y61835D02*
D03*
D67*
X56929Y21102D02*
D03*
D68*
Y40787D02*
D03*
D84*
X58740Y175039D02*
D03*
D85*
X68740Y150039D02*
D03*
D86*
X4437Y67673D02*
D03*
X24437Y71673D02*
D03*
Y63673D02*
D03*
D87*
X57362Y92874D02*
D03*
X53031D02*
D03*
X48701D02*
D03*
X44370D02*
D03*
X40039D02*
D03*
X57362Y97205D02*
D03*
X53031D02*
D03*
X48701D02*
D03*
X44370D02*
D03*
X40039D02*
D03*
X57362Y101535D02*
D03*
X53031D02*
D03*
X48701D02*
D03*
X44370D02*
D03*
X40039D02*
D03*
X57362Y105866D02*
D03*
X53031D02*
D03*
X48701D02*
D03*
X44370D02*
D03*
X40039D02*
D03*
X57362Y110197D02*
D03*
X53031D02*
D03*
X48701D02*
D03*
X44370D02*
D03*
X40039D02*
D03*
X20177Y144095D02*
D03*
X15846D02*
D03*
Y148425D02*
D03*
X20177D02*
D03*
D88*
X32909Y114732D02*
D03*
X54252Y126937D02*
D03*
X47980Y125933D02*
D03*
X47709Y121724D02*
D03*
X126181Y171850D02*
D03*
X128445Y174016D02*
D03*
X13189Y36220D02*
D03*
X9547Y39961D02*
D03*
Y36122D02*
D03*
X6102Y28150D02*
D03*
Y32087D02*
D03*
Y36024D02*
D03*
Y39961D02*
D03*
X2559Y28150D02*
D03*
Y32087D02*
D03*
Y36024D02*
D03*
Y39961D02*
D03*
X120118Y98740D02*
D03*
Y104252D02*
D03*
Y116063D02*
D03*
Y121968D02*
D03*
Y110158D02*
D03*
X123937Y98189D02*
D03*
Y103701D02*
D03*
Y115512D02*
D03*
Y121417D02*
D03*
Y109606D02*
D03*
X154724Y148819D02*
D03*
Y160630D02*
D03*
Y154724D02*
D03*
Y143386D02*
D03*
Y137402D02*
D03*
X154567Y193465D02*
D03*
X154646Y184646D02*
D03*
X142756Y184882D02*
D03*
X142441Y193228D02*
D03*
X137638Y193307D02*
D03*
X142598Y188976D02*
D03*
X8769Y95956D02*
D03*
X69291Y49606D02*
D03*
X26772Y91732D02*
D03*
X50299Y135831D02*
D03*
X10827Y129528D02*
D03*
X6299Y159843D02*
D03*
X104528Y4921D02*
D03*
X99213D02*
D03*
X93504D02*
D03*
X78937Y91142D02*
D03*
X59055Y78543D02*
D03*
X44193Y66142D02*
D03*
X20472Y163583D02*
D03*
X30512Y184449D02*
D03*
X34055Y182087D02*
D03*
X33858Y186909D02*
D03*
X12795Y160236D02*
D03*
X39370Y125000D02*
D03*
X78839Y94882D02*
D03*
X70866Y107677D02*
D03*
X19488Y60630D02*
D03*
X98327Y127953D02*
D03*
Y131496D02*
D03*
X85984Y103150D02*
D03*
Y106457D02*
D03*
X35433Y166634D02*
D03*
X36220Y18898D02*
D03*
X32480Y11811D02*
D03*
X29528Y101969D02*
D03*
X146221Y67795D02*
D03*
X26378Y111024D02*
D03*
X37992Y67520D02*
D03*
X33661Y70965D02*
D03*
X33372Y62100D02*
D03*
X60236Y131102D02*
D03*
X38681Y136319D02*
D03*
X120866Y15354D02*
D03*
X4134Y110236D02*
D03*
X73032Y17520D02*
D03*
X51673Y192028D02*
D03*
X7677Y171260D02*
D03*
X29232Y173327D02*
D03*
X62008Y123228D02*
D03*
X17224Y125984D02*
D03*
D89*
X68307Y81693D02*
D03*
X72638Y79134D02*
D03*
X28543Y83465D02*
D03*
X67323Y119587D02*
D03*
D90*
X78634Y39264D02*
D03*
X82571Y47138D02*
D03*
X23516Y39264D02*
D03*
X70760D02*
D03*
X39264D02*
D03*
X58161Y161016D02*
D03*
X85130Y143988D02*
D03*
X93004D02*
D03*
X100878D02*
D03*
X153437Y173122D02*
D03*
X149500Y86508D02*
D03*
X153437Y78634D02*
D03*
Y62886D02*
D03*
X149500Y55012D02*
D03*
X153437Y47138D02*
D03*
X149500Y39264D02*
D03*
X153437Y31390D02*
D03*
X149500Y23516D02*
D03*
X153437Y15642D02*
D03*
X145563Y78634D02*
D03*
Y15642D02*
D03*
X137689Y78634D02*
D03*
X125878Y86508D02*
D03*
X129815Y47138D02*
D03*
X118004Y39264D02*
D03*
Y23516D02*
D03*
X110130Y180996D02*
D03*
X114067Y173122D02*
D03*
X110130Y165248D02*
D03*
Y149500D02*
D03*
Y86508D02*
D03*
X114067Y31390D02*
D03*
X110130Y23516D02*
D03*
X102256Y180996D02*
D03*
X106193Y173122D02*
D03*
X102256Y165248D02*
D03*
X106193Y157374D02*
D03*
Y141626D02*
D03*
X102256Y86508D02*
D03*
Y23516D02*
D03*
X94382Y180996D02*
D03*
X98319Y173122D02*
D03*
X94382Y165248D02*
D03*
X98319Y157374D02*
D03*
Y31390D02*
D03*
X94382Y23516D02*
D03*
X90445Y173122D02*
D03*
Y157374D02*
D03*
X82571Y125878D02*
D03*
X74697Y47138D02*
D03*
X62886Y7768D02*
D03*
X58949Y188870D02*
D03*
X55012Y7768D02*
D03*
X47138Y180996D02*
D03*
X51075Y15642D02*
D03*
X47138Y7768D02*
D03*
X43201Y188870D02*
D03*
X39264Y149500D02*
D03*
X43201Y141626D02*
D03*
Y15642D02*
D03*
X39264Y7768D02*
D03*
X31390Y149500D02*
D03*
X35327Y47138D02*
D03*
M02*
