G04*
G04 #@! TF.GenerationSoftware,Altium Limited,Altium Designer,25.2.1 (25)*
G04*
G04 Layer_Color=16711935*
%FSLAX25Y25*%
%MOIN*%
G70*
G04*
G04 #@! TF.SameCoordinates,E3AB8C20-A1E6-43C1-8624-3ED8289FA371*
G04*
G04*
G04 #@! TF.FilePolarity,Negative*
G04*
G01*
G75*
%ADD60C,0.08173*%
%ADD61R,0.08173X0.08173*%
%ADD62C,0.06181*%
%ADD63R,0.06181X0.06181*%
%ADD64C,0.07284*%
%ADD65R,0.07284X0.07284*%
%ADD66C,0.00299*%
%ADD67C,0.05709*%
%ADD68R,0.05709X0.05709*%
%ADD69C,0.04500*%
%ADD70C,0.02268*%
%ADD71C,0.02661*%
%ADD72C,0.03842*%
%ADD73C,0.03950*%
%ADD94C,0.04236*%
G04:AMPARAMS|DCode=95|XSize=42.36mil|YSize=42.36mil|CornerRadius=11.34mil|HoleSize=0mil|Usage=FLASHONLY|Rotation=90.000|XOffset=0mil|YOffset=0mil|HoleType=Round|Shape=RoundedRectangle|*
%AMROUNDEDRECTD95*
21,1,0.04236,0.01968,0,0,90.0*
21,1,0.01968,0.04236,0,0,90.0*
1,1,0.02268,0.00984,0.00984*
1,1,0.02268,0.00984,-0.00984*
1,1,0.02268,-0.00984,-0.00984*
1,1,0.02268,-0.00984,0.00984*
%
%ADD95ROUNDEDRECTD95*%
G04:AMPARAMS|DCode=96|XSize=42.36mil|YSize=42.36mil|CornerRadius=11.34mil|HoleSize=0mil|Usage=FLASHONLY|Rotation=0.000|XOffset=0mil|YOffset=0mil|HoleType=Round|Shape=RoundedRectangle|*
%AMROUNDEDRECTD96*
21,1,0.04236,0.01968,0,0,0.0*
21,1,0.01968,0.04236,0,0,0.0*
1,1,0.02268,0.00984,-0.00984*
1,1,0.02268,-0.00984,-0.00984*
1,1,0.02268,-0.00984,0.00984*
1,1,0.02268,0.00984,0.00984*
%
%ADD96ROUNDEDRECTD96*%
D60*
X58740Y175039D02*
D03*
D61*
X68740Y150039D02*
D03*
D62*
X11937Y30512D02*
D03*
X11929Y18898D02*
D03*
X147500Y150984D02*
D03*
D63*
X21937Y30512D02*
D03*
X21929Y18898D02*
D03*
X137500Y150984D02*
D03*
D64*
X101488Y48610D02*
D03*
X138890D02*
D03*
X133413Y61835D02*
D03*
X106965Y35386D02*
D03*
X133413D02*
D03*
D65*
X106965Y61835D02*
D03*
D66*
X86614Y188976D02*
D03*
X19685Y7874D02*
D03*
X149606Y188976D02*
D03*
Y7874D02*
D03*
X7874D02*
D03*
Y188976D02*
D03*
D67*
X56929Y21102D02*
D03*
D68*
Y40787D02*
D03*
D69*
X4437Y67673D02*
D03*
X24437Y71673D02*
D03*
Y63673D02*
D03*
D70*
X57362Y92874D02*
D03*
X53031D02*
D03*
X48701D02*
D03*
X44370D02*
D03*
X40039D02*
D03*
X57362Y97205D02*
D03*
X53031D02*
D03*
X48701D02*
D03*
X44370D02*
D03*
X40039D02*
D03*
X57362Y101535D02*
D03*
X53031D02*
D03*
X48701D02*
D03*
X44370D02*
D03*
X40039D02*
D03*
X57362Y105866D02*
D03*
X53031D02*
D03*
X48701D02*
D03*
X44370D02*
D03*
X40039D02*
D03*
X57362Y110197D02*
D03*
X53031D02*
D03*
X48701D02*
D03*
X44370D02*
D03*
X40039D02*
D03*
X20177Y144095D02*
D03*
X15846D02*
D03*
Y148425D02*
D03*
X20177D02*
D03*
D71*
X32909Y114732D02*
D03*
X54252Y126937D02*
D03*
X47980Y125933D02*
D03*
X47709Y121724D02*
D03*
X126181Y171850D02*
D03*
X128445Y174016D02*
D03*
X13189Y36220D02*
D03*
X9547Y39961D02*
D03*
Y36122D02*
D03*
X6102Y28150D02*
D03*
Y32087D02*
D03*
Y36024D02*
D03*
Y39961D02*
D03*
X2559Y28150D02*
D03*
Y32087D02*
D03*
Y36024D02*
D03*
Y39961D02*
D03*
X120118Y98740D02*
D03*
Y104252D02*
D03*
Y116063D02*
D03*
Y121968D02*
D03*
Y110158D02*
D03*
X123937Y98189D02*
D03*
Y103701D02*
D03*
Y115512D02*
D03*
Y121417D02*
D03*
Y109606D02*
D03*
X154724Y148819D02*
D03*
Y160630D02*
D03*
Y154724D02*
D03*
Y143386D02*
D03*
Y137402D02*
D03*
X154567Y193465D02*
D03*
X154646Y184646D02*
D03*
X142756Y184882D02*
D03*
X142441Y193228D02*
D03*
X137638Y193307D02*
D03*
X142598Y188976D02*
D03*
X8769Y95956D02*
D03*
X69291Y49606D02*
D03*
X26772Y91732D02*
D03*
X50299Y135831D02*
D03*
X10827Y129528D02*
D03*
X6299Y159843D02*
D03*
X104528Y4921D02*
D03*
X99213D02*
D03*
X93504D02*
D03*
X78937Y91142D02*
D03*
X59055Y78543D02*
D03*
X44193Y66142D02*
D03*
X20472Y163583D02*
D03*
X30512Y184449D02*
D03*
X34055Y182087D02*
D03*
X33858Y186909D02*
D03*
X12795Y160236D02*
D03*
X39370Y125000D02*
D03*
X78839Y94882D02*
D03*
X70866Y107677D02*
D03*
X19488Y60630D02*
D03*
X98327Y127953D02*
D03*
Y131496D02*
D03*
X85984Y103150D02*
D03*
Y106457D02*
D03*
X35433Y166634D02*
D03*
X36220Y18898D02*
D03*
X32480Y11811D02*
D03*
X29528Y101969D02*
D03*
X146221Y67795D02*
D03*
X26378Y111024D02*
D03*
X37992Y67520D02*
D03*
X33661Y70965D02*
D03*
X33372Y62100D02*
D03*
X60236Y131102D02*
D03*
X38681Y136319D02*
D03*
X120866Y15354D02*
D03*
X4134Y110236D02*
D03*
X73032Y17520D02*
D03*
X51673Y192028D02*
D03*
X7677Y171260D02*
D03*
X29232Y173327D02*
D03*
X62008Y123228D02*
D03*
X17224Y125984D02*
D03*
D72*
X68307Y81693D02*
D03*
X72638Y79134D02*
D03*
X28543Y83465D02*
D03*
X67323Y119587D02*
D03*
D73*
X78634Y39264D02*
D03*
X82571Y47138D02*
D03*
X23516Y39264D02*
D03*
X70760D02*
D03*
X39264D02*
D03*
X58161Y161016D02*
D03*
X85130Y143988D02*
D03*
X93004D02*
D03*
X100878D02*
D03*
X153437Y173122D02*
D03*
X149500Y86508D02*
D03*
X153437Y78634D02*
D03*
Y62886D02*
D03*
X149500Y55012D02*
D03*
X153437Y47138D02*
D03*
X149500Y39264D02*
D03*
X153437Y31390D02*
D03*
X149500Y23516D02*
D03*
X153437Y15642D02*
D03*
X145563Y78634D02*
D03*
Y15642D02*
D03*
X137689Y78634D02*
D03*
X125878Y86508D02*
D03*
X129815Y47138D02*
D03*
X118004Y39264D02*
D03*
Y23516D02*
D03*
X110130Y180996D02*
D03*
X114067Y173122D02*
D03*
X110130Y165248D02*
D03*
Y149500D02*
D03*
Y86508D02*
D03*
X114067Y31390D02*
D03*
X110130Y23516D02*
D03*
X102256Y180996D02*
D03*
X106193Y173122D02*
D03*
X102256Y165248D02*
D03*
X106193Y157374D02*
D03*
Y141626D02*
D03*
X102256Y86508D02*
D03*
Y23516D02*
D03*
X94382Y180996D02*
D03*
X98319Y173122D02*
D03*
X94382Y165248D02*
D03*
X98319Y157374D02*
D03*
Y31390D02*
D03*
X94382Y23516D02*
D03*
X90445Y173122D02*
D03*
Y157374D02*
D03*
X82571Y125878D02*
D03*
X74697Y47138D02*
D03*
X62886Y7768D02*
D03*
X58949Y188870D02*
D03*
X55012Y7768D02*
D03*
X47138Y180996D02*
D03*
X51075Y15642D02*
D03*
X47138Y7768D02*
D03*
X43201Y188870D02*
D03*
X39264Y149500D02*
D03*
X43201Y141626D02*
D03*
Y15642D02*
D03*
X39264Y7768D02*
D03*
X31390Y149500D02*
D03*
X35327Y47138D02*
D03*
D94*
X32925Y110587D02*
D03*
X53921Y121756D02*
D03*
D95*
X76378Y57087D02*
D03*
X92520Y56693D02*
D03*
X84252D02*
D03*
D96*
X41665Y29937D02*
D03*
X41772Y21929D02*
D03*
X21654Y122047D02*
D03*
X13386D02*
D03*
X6693D02*
D03*
X127559Y17717D02*
D03*
X127953Y25984D02*
D03*
M02*
