G04*
G04 #@! TF.GenerationSoftware,Altium Limited,Altium Designer,25.2.1 (25)*
G04*
G04 Layer_Color=8421504*
%FSLAX25Y25*%
%MOIN*%
G70*
G04*
G04 #@! TF.SameCoordinates,E3AB8C20-A1E6-43C1-8624-3ED8289FA371*
G04*
G04*
G04 #@! TF.FilePolarity,Positive*
G04*
G01*
G75*
%ADD18O,0.03150X0.00984*%
%ADD19O,0.00984X0.03150*%
%ADD20R,0.22047X0.22047*%
G04:AMPARAMS|DCode=21|XSize=31.5mil|YSize=39.37mil|CornerRadius=3.94mil|HoleSize=0mil|Usage=FLASHONLY|Rotation=0.000|XOffset=0mil|YOffset=0mil|HoleType=Round|Shape=RoundedRectangle|*
%AMROUNDEDRECTD21*
21,1,0.03150,0.03150,0,0,0.0*
21,1,0.02362,0.03937,0,0,0.0*
1,1,0.00787,0.01181,-0.01575*
1,1,0.00787,-0.01181,-0.01575*
1,1,0.00787,-0.01181,0.01575*
1,1,0.00787,0.01181,0.01575*
%
%ADD21ROUNDEDRECTD21*%
G04:AMPARAMS|DCode=22|XSize=23.62mil|YSize=27.56mil|CornerRadius=2.95mil|HoleSize=0mil|Usage=FLASHONLY|Rotation=0.000|XOffset=0mil|YOffset=0mil|HoleType=Round|Shape=RoundedRectangle|*
%AMROUNDEDRECTD22*
21,1,0.02362,0.02165,0,0,0.0*
21,1,0.01772,0.02756,0,0,0.0*
1,1,0.00591,0.00886,-0.01083*
1,1,0.00591,-0.00886,-0.01083*
1,1,0.00591,-0.00886,0.01083*
1,1,0.00591,0.00886,0.01083*
%
%ADD22ROUNDEDRECTD22*%
G04:AMPARAMS|DCode=23|XSize=17.72mil|YSize=9.84mil|CornerRadius=1.97mil|HoleSize=0mil|Usage=FLASHONLY|Rotation=90.000|XOffset=0mil|YOffset=0mil|HoleType=Round|Shape=RoundedRectangle|*
%AMROUNDEDRECTD23*
21,1,0.01772,0.00591,0,0,90.0*
21,1,0.01378,0.00984,0,0,90.0*
1,1,0.00394,0.00295,0.00689*
1,1,0.00394,0.00295,-0.00689*
1,1,0.00394,-0.00295,-0.00689*
1,1,0.00394,-0.00295,0.00689*
%
%ADD23ROUNDEDRECTD23*%
G04:AMPARAMS|DCode=24|XSize=55.12mil|YSize=66.93mil|CornerRadius=6.89mil|HoleSize=0mil|Usage=FLASHONLY|Rotation=180.000|XOffset=0mil|YOffset=0mil|HoleType=Round|Shape=RoundedRectangle|*
%AMROUNDEDRECTD24*
21,1,0.05512,0.05315,0,0,180.0*
21,1,0.04134,0.06693,0,0,180.0*
1,1,0.01378,-0.02067,0.02657*
1,1,0.01378,0.02067,0.02657*
1,1,0.01378,0.02067,-0.02657*
1,1,0.01378,-0.02067,-0.02657*
%
%ADD24ROUNDEDRECTD24*%
G04:AMPARAMS|DCode=25|XSize=39.37mil|YSize=70.87mil|CornerRadius=4.92mil|HoleSize=0mil|Usage=FLASHONLY|Rotation=0.000|XOffset=0mil|YOffset=0mil|HoleType=Round|Shape=RoundedRectangle|*
%AMROUNDEDRECTD25*
21,1,0.03937,0.06102,0,0,0.0*
21,1,0.02953,0.07087,0,0,0.0*
1,1,0.00984,0.01476,-0.03051*
1,1,0.00984,-0.01476,-0.03051*
1,1,0.00984,-0.01476,0.03051*
1,1,0.00984,0.01476,0.03051*
%
%ADD25ROUNDEDRECTD25*%
G04:AMPARAMS|DCode=26|XSize=31.5mil|YSize=39.37mil|CornerRadius=3.94mil|HoleSize=0mil|Usage=FLASHONLY|Rotation=90.000|XOffset=0mil|YOffset=0mil|HoleType=Round|Shape=RoundedRectangle|*
%AMROUNDEDRECTD26*
21,1,0.03150,0.03150,0,0,90.0*
21,1,0.02362,0.03937,0,0,90.0*
1,1,0.00787,0.01575,0.01181*
1,1,0.00787,0.01575,-0.01181*
1,1,0.00787,-0.01575,-0.01181*
1,1,0.00787,-0.01575,0.01181*
%
%ADD26ROUNDEDRECTD26*%
%ADD27R,0.13386X0.03858*%
%ADD28R,0.08686X0.05334*%
%ADD29R,0.02362X0.03150*%
%ADD30R,0.03150X0.02362*%
G04:AMPARAMS|DCode=31|XSize=23.62mil|YSize=27.56mil|CornerRadius=2.95mil|HoleSize=0mil|Usage=FLASHONLY|Rotation=270.000|XOffset=0mil|YOffset=0mil|HoleType=Round|Shape=RoundedRectangle|*
%AMROUNDEDRECTD31*
21,1,0.02362,0.02165,0,0,270.0*
21,1,0.01772,0.02756,0,0,270.0*
1,1,0.00591,-0.01083,-0.00886*
1,1,0.00591,-0.01083,0.00886*
1,1,0.00591,0.01083,0.00886*
1,1,0.00591,0.01083,-0.00886*
%
%ADD31ROUNDEDRECTD31*%
G04:AMPARAMS|DCode=32|XSize=51.18mil|YSize=43.31mil|CornerRadius=2.17mil|HoleSize=0mil|Usage=FLASHONLY|Rotation=90.000|XOffset=0mil|YOffset=0mil|HoleType=Round|Shape=RoundedRectangle|*
%AMROUNDEDRECTD32*
21,1,0.05118,0.03898,0,0,90.0*
21,1,0.04685,0.04331,0,0,90.0*
1,1,0.00433,0.01949,0.02343*
1,1,0.00433,0.01949,-0.02343*
1,1,0.00433,-0.01949,-0.02343*
1,1,0.00433,-0.01949,0.02343*
%
%ADD32ROUNDEDRECTD32*%
%ADD33R,0.05118X0.06496*%
%ADD34R,0.07480X0.07087*%
%ADD35R,0.07480X0.03937*%
%ADD36R,0.06102X0.05610*%
%ADD37R,0.05433X0.01772*%
%ADD38R,0.10630X0.10236*%
%ADD39R,0.03150X0.01378*%
%ADD40R,0.01378X0.03347*%
%ADD41R,0.03150X0.03150*%
G36*
X134504Y175531D02*
X134512D01*
X134524Y175528D01*
X134531D01*
X134543Y175524D01*
X134551Y175520D01*
X134563Y175516D01*
X134571Y175508D01*
X134579Y175504D01*
X134587Y175496D01*
X134595Y175492D01*
X134602Y175484D01*
X134610Y175476D01*
X134618Y175469D01*
X134626Y175461D01*
X134630Y175453D01*
X134638Y175445D01*
X134642Y175437D01*
X134650Y175429D01*
X134653Y175417D01*
X134658Y175409D01*
X134661Y175398D01*
Y175390D01*
X134665Y175378D01*
Y175370D01*
X134669Y175358D01*
Y175350D01*
Y175339D01*
Y174748D01*
Y174736D01*
Y174728D01*
X134665Y174716D01*
Y174709D01*
X134661Y174697D01*
Y174689D01*
X134658Y174677D01*
X134653Y174669D01*
X134650Y174657D01*
X134642Y174650D01*
X134638Y174642D01*
X134630Y174634D01*
X134626Y174626D01*
X134618Y174618D01*
X134610Y174610D01*
X134602Y174602D01*
X134595Y174594D01*
X134587Y174591D01*
X134579Y174583D01*
X134571Y174579D01*
X134563Y174571D01*
X134551Y174567D01*
X134543Y174563D01*
X134531Y174559D01*
X134524D01*
X134512Y174555D01*
X134504D01*
X134492Y174551D01*
X133862D01*
X133850Y174555D01*
X133843D01*
X133831Y174559D01*
X133823D01*
X133811Y174563D01*
X133803Y174567D01*
X133791Y174571D01*
X133783Y174579D01*
X133776Y174583D01*
X133768Y174591D01*
X133760Y174594D01*
X133752Y174602D01*
X133744Y174610D01*
X133736Y174618D01*
X133728Y174626D01*
X133724Y174634D01*
X133716Y174642D01*
X133713Y174650D01*
X133705Y174657D01*
X133701Y174669D01*
X133697Y174677D01*
X133693Y174689D01*
Y174697D01*
X133689Y174709D01*
Y174716D01*
X133685Y174728D01*
Y174736D01*
Y174748D01*
Y175339D01*
Y175350D01*
Y175358D01*
X133689Y175370D01*
Y175378D01*
X133693Y175390D01*
Y175398D01*
X133697Y175409D01*
X133701Y175417D01*
X133705Y175429D01*
X133713Y175437D01*
X133716Y175445D01*
X133724Y175453D01*
X133728Y175461D01*
X133736Y175469D01*
X133744Y175476D01*
X133752Y175484D01*
X133760Y175492D01*
X133768Y175496D01*
X133776Y175504D01*
X133783Y175508D01*
X133791Y175516D01*
X133803Y175520D01*
X133811Y175524D01*
X133823Y175528D01*
X133831D01*
X133843Y175531D01*
X133850D01*
X133862Y175535D01*
X134492D01*
X134504Y175531D01*
D02*
G37*
G36*
X132929D02*
X132937D01*
X132949Y175528D01*
X132957D01*
X132968Y175524D01*
X132976Y175520D01*
X132988Y175516D01*
X132996Y175508D01*
X133004Y175504D01*
X133012Y175496D01*
X133020Y175492D01*
X133028Y175484D01*
X133035Y175476D01*
X133043Y175469D01*
X133051Y175461D01*
X133055Y175453D01*
X133063Y175445D01*
X133067Y175437D01*
X133075Y175429D01*
X133079Y175417D01*
X133083Y175409D01*
X133087Y175398D01*
Y175390D01*
X133091Y175378D01*
Y175370D01*
X133095Y175358D01*
Y175350D01*
Y175339D01*
Y174748D01*
Y174736D01*
Y174728D01*
X133091Y174716D01*
Y174709D01*
X133087Y174697D01*
Y174689D01*
X133083Y174677D01*
X133079Y174669D01*
X133075Y174657D01*
X133067Y174650D01*
X133063Y174642D01*
X133055Y174634D01*
X133051Y174626D01*
X133043Y174618D01*
X133035Y174610D01*
X133028Y174602D01*
X133020Y174594D01*
X133012Y174591D01*
X133004Y174583D01*
X132996Y174579D01*
X132988Y174571D01*
X132976Y174567D01*
X132968Y174563D01*
X132957Y174559D01*
X132949D01*
X132937Y174555D01*
X132929D01*
X132917Y174551D01*
X132287D01*
X132276Y174555D01*
X132268D01*
X132256Y174559D01*
X132248D01*
X132236Y174563D01*
X132228Y174567D01*
X132217Y174571D01*
X132209Y174579D01*
X132201Y174583D01*
X132193Y174591D01*
X132185Y174594D01*
X132177Y174602D01*
X132169Y174610D01*
X132161Y174618D01*
X132153Y174626D01*
X132150Y174634D01*
X132142Y174642D01*
X132138Y174650D01*
X132130Y174657D01*
X132126Y174669D01*
X132122Y174677D01*
X132118Y174689D01*
Y174697D01*
X132114Y174709D01*
Y174716D01*
X132110Y174728D01*
Y174736D01*
Y174748D01*
Y175339D01*
Y175350D01*
Y175358D01*
X132114Y175370D01*
Y175378D01*
X132118Y175390D01*
Y175398D01*
X132122Y175409D01*
X132126Y175417D01*
X132130Y175429D01*
X132138Y175437D01*
X132142Y175445D01*
X132150Y175453D01*
X132153Y175461D01*
X132161Y175469D01*
X132169Y175476D01*
X132177Y175484D01*
X132185Y175492D01*
X132193Y175496D01*
X132201Y175504D01*
X132209Y175508D01*
X132217Y175516D01*
X132228Y175520D01*
X132236Y175524D01*
X132248Y175528D01*
X132256D01*
X132268Y175531D01*
X132276D01*
X132287Y175535D01*
X132917D01*
X132929Y175531D01*
D02*
G37*
G36*
X134504Y173957D02*
X134512D01*
X134524Y173953D01*
X134531D01*
X134543Y173949D01*
X134551Y173945D01*
X134563Y173941D01*
X134571Y173933D01*
X134579Y173929D01*
X134587Y173921D01*
X134595Y173917D01*
X134602Y173909D01*
X134610Y173902D01*
X134618Y173894D01*
X134626Y173886D01*
X134630Y173878D01*
X134638Y173870D01*
X134642Y173862D01*
X134650Y173854D01*
X134653Y173843D01*
X134658Y173835D01*
X134661Y173823D01*
Y173815D01*
X134665Y173803D01*
Y173795D01*
X134669Y173784D01*
Y173776D01*
Y173764D01*
Y173173D01*
Y173161D01*
Y173153D01*
X134665Y173142D01*
Y173134D01*
X134661Y173122D01*
Y173114D01*
X134658Y173102D01*
X134653Y173094D01*
X134650Y173083D01*
X134642Y173075D01*
X134638Y173067D01*
X134630Y173059D01*
X134626Y173051D01*
X134618Y173043D01*
X134610Y173035D01*
X134602Y173028D01*
X134595Y173020D01*
X134587Y173016D01*
X134579Y173008D01*
X134571Y173004D01*
X134563Y172996D01*
X134551Y172992D01*
X134543Y172988D01*
X134531Y172984D01*
X134524D01*
X134512Y172980D01*
X134504D01*
X134492Y172976D01*
X133862D01*
X133850Y172980D01*
X133843D01*
X133831Y172984D01*
X133823D01*
X133811Y172988D01*
X133803Y172992D01*
X133791Y172996D01*
X133783Y173004D01*
X133776Y173008D01*
X133768Y173016D01*
X133760Y173020D01*
X133752Y173028D01*
X133744Y173035D01*
X133736Y173043D01*
X133728Y173051D01*
X133724Y173059D01*
X133716Y173067D01*
X133713Y173075D01*
X133705Y173083D01*
X133701Y173094D01*
X133697Y173102D01*
X133693Y173114D01*
Y173122D01*
X133689Y173134D01*
Y173142D01*
X133685Y173153D01*
Y173161D01*
Y173173D01*
Y173764D01*
Y173776D01*
Y173784D01*
X133689Y173795D01*
Y173803D01*
X133693Y173815D01*
Y173823D01*
X133697Y173835D01*
X133701Y173843D01*
X133705Y173854D01*
X133713Y173862D01*
X133716Y173870D01*
X133724Y173878D01*
X133728Y173886D01*
X133736Y173894D01*
X133744Y173902D01*
X133752Y173909D01*
X133760Y173917D01*
X133768Y173921D01*
X133776Y173929D01*
X133783Y173933D01*
X133791Y173941D01*
X133803Y173945D01*
X133811Y173949D01*
X133823Y173953D01*
X133831D01*
X133843Y173957D01*
X133850D01*
X133862Y173961D01*
X134492D01*
X134504Y173957D01*
D02*
G37*
G36*
X132929D02*
X132937D01*
X132949Y173953D01*
X132957D01*
X132968Y173949D01*
X132976Y173945D01*
X132988Y173941D01*
X132996Y173933D01*
X133004Y173929D01*
X133012Y173921D01*
X133020Y173917D01*
X133028Y173909D01*
X133035Y173902D01*
X133043Y173894D01*
X133051Y173886D01*
X133055Y173878D01*
X133063Y173870D01*
X133067Y173862D01*
X133075Y173854D01*
X133079Y173843D01*
X133083Y173835D01*
X133087Y173823D01*
Y173815D01*
X133091Y173803D01*
Y173795D01*
X133095Y173784D01*
Y173776D01*
Y173764D01*
Y173173D01*
Y173161D01*
Y173153D01*
X133091Y173142D01*
Y173134D01*
X133087Y173122D01*
Y173114D01*
X133083Y173102D01*
X133079Y173094D01*
X133075Y173083D01*
X133067Y173075D01*
X133063Y173067D01*
X133055Y173059D01*
X133051Y173051D01*
X133043Y173043D01*
X133035Y173035D01*
X133028Y173028D01*
X133020Y173020D01*
X133012Y173016D01*
X133004Y173008D01*
X132996Y173004D01*
X132988Y172996D01*
X132976Y172992D01*
X132968Y172988D01*
X132957Y172984D01*
X132949D01*
X132937Y172980D01*
X132929D01*
X132917Y172976D01*
X132287D01*
X132276Y172980D01*
X132268D01*
X132256Y172984D01*
X132248D01*
X132236Y172988D01*
X132228Y172992D01*
X132217Y172996D01*
X132209Y173004D01*
X132201Y173008D01*
X132193Y173016D01*
X132185Y173020D01*
X132177Y173028D01*
X132169Y173035D01*
X132161Y173043D01*
X132153Y173051D01*
X132150Y173059D01*
X132142Y173067D01*
X132138Y173075D01*
X132130Y173083D01*
X132126Y173094D01*
X132122Y173102D01*
X132118Y173114D01*
Y173122D01*
X132114Y173134D01*
Y173142D01*
X132110Y173153D01*
Y173161D01*
Y173173D01*
Y173764D01*
Y173776D01*
Y173784D01*
X132114Y173795D01*
Y173803D01*
X132118Y173815D01*
Y173823D01*
X132122Y173835D01*
X132126Y173843D01*
X132130Y173854D01*
X132138Y173862D01*
X132142Y173870D01*
X132150Y173878D01*
X132153Y173886D01*
X132161Y173894D01*
X132169Y173902D01*
X132177Y173909D01*
X132185Y173917D01*
X132193Y173921D01*
X132201Y173929D01*
X132209Y173933D01*
X132217Y173941D01*
X132228Y173945D01*
X132236Y173949D01*
X132248Y173953D01*
X132256D01*
X132268Y173957D01*
X132276D01*
X132287Y173961D01*
X132917D01*
X132929Y173957D01*
D02*
G37*
G36*
X134504Y172382D02*
X134512D01*
X134524Y172378D01*
X134531D01*
X134543Y172374D01*
X134551Y172370D01*
X134563Y172366D01*
X134571Y172358D01*
X134579Y172354D01*
X134587Y172346D01*
X134595Y172343D01*
X134602Y172335D01*
X134610Y172327D01*
X134618Y172319D01*
X134626Y172311D01*
X134630Y172303D01*
X134638Y172295D01*
X134642Y172287D01*
X134650Y172280D01*
X134653Y172268D01*
X134658Y172260D01*
X134661Y172248D01*
Y172240D01*
X134665Y172228D01*
Y172221D01*
X134669Y172209D01*
Y172201D01*
Y172189D01*
Y171598D01*
Y171587D01*
Y171579D01*
X134665Y171567D01*
Y171559D01*
X134661Y171547D01*
Y171539D01*
X134658Y171528D01*
X134653Y171520D01*
X134650Y171508D01*
X134642Y171500D01*
X134638Y171492D01*
X134630Y171484D01*
X134626Y171476D01*
X134618Y171468D01*
X134610Y171461D01*
X134602Y171453D01*
X134595Y171445D01*
X134587Y171441D01*
X134579Y171433D01*
X134571Y171429D01*
X134563Y171421D01*
X134551Y171417D01*
X134543Y171413D01*
X134531Y171409D01*
X134524D01*
X134512Y171405D01*
X134504D01*
X134492Y171402D01*
X133862D01*
X133850Y171405D01*
X133843D01*
X133831Y171409D01*
X133823D01*
X133811Y171413D01*
X133803Y171417D01*
X133791Y171421D01*
X133783Y171429D01*
X133776Y171433D01*
X133768Y171441D01*
X133760Y171445D01*
X133752Y171453D01*
X133744Y171461D01*
X133736Y171468D01*
X133728Y171476D01*
X133724Y171484D01*
X133716Y171492D01*
X133713Y171500D01*
X133705Y171508D01*
X133701Y171520D01*
X133697Y171528D01*
X133693Y171539D01*
Y171547D01*
X133689Y171559D01*
Y171567D01*
X133685Y171579D01*
Y171587D01*
Y171598D01*
Y172189D01*
Y172201D01*
Y172209D01*
X133689Y172221D01*
Y172228D01*
X133693Y172240D01*
Y172248D01*
X133697Y172260D01*
X133701Y172268D01*
X133705Y172280D01*
X133713Y172287D01*
X133716Y172295D01*
X133724Y172303D01*
X133728Y172311D01*
X133736Y172319D01*
X133744Y172327D01*
X133752Y172335D01*
X133760Y172343D01*
X133768Y172346D01*
X133776Y172354D01*
X133783Y172358D01*
X133791Y172366D01*
X133803Y172370D01*
X133811Y172374D01*
X133823Y172378D01*
X133831D01*
X133843Y172382D01*
X133850D01*
X133862Y172386D01*
X134492D01*
X134504Y172382D01*
D02*
G37*
G36*
X132929D02*
X132937D01*
X132949Y172378D01*
X132957D01*
X132968Y172374D01*
X132976Y172370D01*
X132988Y172366D01*
X132996Y172358D01*
X133004Y172354D01*
X133012Y172346D01*
X133020Y172343D01*
X133028Y172335D01*
X133035Y172327D01*
X133043Y172319D01*
X133051Y172311D01*
X133055Y172303D01*
X133063Y172295D01*
X133067Y172287D01*
X133075Y172280D01*
X133079Y172268D01*
X133083Y172260D01*
X133087Y172248D01*
Y172240D01*
X133091Y172228D01*
Y172221D01*
X133095Y172209D01*
Y172201D01*
Y172189D01*
Y171598D01*
Y171587D01*
Y171579D01*
X133091Y171567D01*
Y171559D01*
X133087Y171547D01*
Y171539D01*
X133083Y171528D01*
X133079Y171520D01*
X133075Y171508D01*
X133067Y171500D01*
X133063Y171492D01*
X133055Y171484D01*
X133051Y171476D01*
X133043Y171468D01*
X133035Y171461D01*
X133028Y171453D01*
X133020Y171445D01*
X133012Y171441D01*
X133004Y171433D01*
X132996Y171429D01*
X132988Y171421D01*
X132976Y171417D01*
X132968Y171413D01*
X132957Y171409D01*
X132949D01*
X132937Y171405D01*
X132929D01*
X132917Y171402D01*
X132287D01*
X132276Y171405D01*
X132268D01*
X132256Y171409D01*
X132248D01*
X132236Y171413D01*
X132228Y171417D01*
X132217Y171421D01*
X132209Y171429D01*
X132201Y171433D01*
X132193Y171441D01*
X132185Y171445D01*
X132177Y171453D01*
X132169Y171461D01*
X132161Y171468D01*
X132153Y171476D01*
X132150Y171484D01*
X132142Y171492D01*
X132138Y171500D01*
X132130Y171508D01*
X132126Y171520D01*
X132122Y171528D01*
X132118Y171539D01*
Y171547D01*
X132114Y171559D01*
Y171567D01*
X132110Y171579D01*
Y171587D01*
Y171598D01*
Y172189D01*
Y172201D01*
Y172209D01*
X132114Y172221D01*
Y172228D01*
X132118Y172240D01*
Y172248D01*
X132122Y172260D01*
X132126Y172268D01*
X132130Y172280D01*
X132138Y172287D01*
X132142Y172295D01*
X132150Y172303D01*
X132153Y172311D01*
X132161Y172319D01*
X132169Y172327D01*
X132177Y172335D01*
X132185Y172343D01*
X132193Y172346D01*
X132201Y172354D01*
X132209Y172358D01*
X132217Y172366D01*
X132228Y172370D01*
X132236Y172374D01*
X132248Y172378D01*
X132256D01*
X132268Y172382D01*
X132276D01*
X132287Y172386D01*
X132917D01*
X132929Y172382D01*
D02*
G37*
G36*
X134504Y170807D02*
X134512D01*
X134524Y170803D01*
X134531D01*
X134543Y170799D01*
X134551Y170795D01*
X134563Y170791D01*
X134571Y170783D01*
X134579Y170780D01*
X134587Y170772D01*
X134595Y170768D01*
X134602Y170760D01*
X134610Y170752D01*
X134618Y170744D01*
X134626Y170736D01*
X134630Y170728D01*
X134638Y170721D01*
X134642Y170713D01*
X134650Y170705D01*
X134653Y170693D01*
X134658Y170685D01*
X134661Y170673D01*
Y170665D01*
X134665Y170653D01*
Y170646D01*
X134669Y170634D01*
Y170626D01*
Y170614D01*
Y170024D01*
Y170012D01*
Y170004D01*
X134665Y169992D01*
Y169984D01*
X134661Y169972D01*
Y169965D01*
X134658Y169953D01*
X134653Y169945D01*
X134650Y169933D01*
X134642Y169925D01*
X134638Y169917D01*
X134630Y169909D01*
X134626Y169902D01*
X134618Y169894D01*
X134610Y169886D01*
X134602Y169878D01*
X134595Y169870D01*
X134587Y169866D01*
X134579Y169858D01*
X134571Y169854D01*
X134563Y169846D01*
X134551Y169843D01*
X134543Y169839D01*
X134531Y169835D01*
X134524D01*
X134512Y169831D01*
X134504D01*
X134492Y169827D01*
X133862D01*
X133850Y169831D01*
X133843D01*
X133831Y169835D01*
X133823D01*
X133811Y169839D01*
X133803Y169843D01*
X133791Y169846D01*
X133783Y169854D01*
X133776Y169858D01*
X133768Y169866D01*
X133760Y169870D01*
X133752Y169878D01*
X133744Y169886D01*
X133736Y169894D01*
X133728Y169902D01*
X133724Y169909D01*
X133716Y169917D01*
X133713Y169925D01*
X133705Y169933D01*
X133701Y169945D01*
X133697Y169953D01*
X133693Y169965D01*
Y169972D01*
X133689Y169984D01*
Y169992D01*
X133685Y170004D01*
Y170012D01*
Y170024D01*
Y170614D01*
Y170626D01*
Y170634D01*
X133689Y170646D01*
Y170653D01*
X133693Y170665D01*
Y170673D01*
X133697Y170685D01*
X133701Y170693D01*
X133705Y170705D01*
X133713Y170713D01*
X133716Y170721D01*
X133724Y170728D01*
X133728Y170736D01*
X133736Y170744D01*
X133744Y170752D01*
X133752Y170760D01*
X133760Y170768D01*
X133768Y170772D01*
X133776Y170780D01*
X133783Y170783D01*
X133791Y170791D01*
X133803Y170795D01*
X133811Y170799D01*
X133823Y170803D01*
X133831D01*
X133843Y170807D01*
X133850D01*
X133862Y170811D01*
X134492D01*
X134504Y170807D01*
D02*
G37*
G36*
X132929D02*
X132937D01*
X132949Y170803D01*
X132957D01*
X132968Y170799D01*
X132976Y170795D01*
X132988Y170791D01*
X132996Y170783D01*
X133004Y170780D01*
X133012Y170772D01*
X133020Y170768D01*
X133028Y170760D01*
X133035Y170752D01*
X133043Y170744D01*
X133051Y170736D01*
X133055Y170728D01*
X133063Y170721D01*
X133067Y170713D01*
X133075Y170705D01*
X133079Y170693D01*
X133083Y170685D01*
X133087Y170673D01*
Y170665D01*
X133091Y170653D01*
Y170646D01*
X133095Y170634D01*
Y170626D01*
Y170614D01*
Y170024D01*
Y170012D01*
Y170004D01*
X133091Y169992D01*
Y169984D01*
X133087Y169972D01*
Y169965D01*
X133083Y169953D01*
X133079Y169945D01*
X133075Y169933D01*
X133067Y169925D01*
X133063Y169917D01*
X133055Y169909D01*
X133051Y169902D01*
X133043Y169894D01*
X133035Y169886D01*
X133028Y169878D01*
X133020Y169870D01*
X133012Y169866D01*
X133004Y169858D01*
X132996Y169854D01*
X132988Y169846D01*
X132976Y169843D01*
X132968Y169839D01*
X132957Y169835D01*
X132949D01*
X132937Y169831D01*
X132929D01*
X132917Y169827D01*
X132287D01*
X132276Y169831D01*
X132268D01*
X132256Y169835D01*
X132248D01*
X132236Y169839D01*
X132228Y169843D01*
X132217Y169846D01*
X132209Y169854D01*
X132201Y169858D01*
X132193Y169866D01*
X132185Y169870D01*
X132177Y169878D01*
X132169Y169886D01*
X132161Y169894D01*
X132153Y169902D01*
X132150Y169909D01*
X132142Y169917D01*
X132138Y169925D01*
X132130Y169933D01*
X132126Y169945D01*
X132122Y169953D01*
X132118Y169965D01*
Y169972D01*
X132114Y169984D01*
Y169992D01*
X132110Y170004D01*
Y170012D01*
Y170024D01*
Y170614D01*
Y170626D01*
Y170634D01*
X132114Y170646D01*
Y170653D01*
X132118Y170665D01*
Y170673D01*
X132122Y170685D01*
X132126Y170693D01*
X132130Y170705D01*
X132138Y170713D01*
X132142Y170721D01*
X132150Y170728D01*
X132153Y170736D01*
X132161Y170744D01*
X132169Y170752D01*
X132177Y170760D01*
X132185Y170768D01*
X132193Y170772D01*
X132201Y170780D01*
X132209Y170783D01*
X132217Y170791D01*
X132228Y170795D01*
X132236Y170799D01*
X132248Y170803D01*
X132256D01*
X132268Y170807D01*
X132276D01*
X132287Y170811D01*
X132917D01*
X132929Y170807D01*
D02*
G37*
G36*
X137316Y133043D02*
X137372Y132987D01*
X137402Y132915D01*
Y132876D01*
Y130809D01*
Y130770D01*
X137372Y130698D01*
X137316Y130642D01*
X137244Y130612D01*
X136772D01*
X136699Y130642D01*
X136644Y130698D01*
X136614Y130770D01*
Y130809D01*
Y132876D01*
Y132915D01*
X136644Y132987D01*
X136699Y133043D01*
X136772Y133073D01*
X137244D01*
X137316Y133043D01*
D02*
G37*
G36*
X139777Y131860D02*
X139832Y131804D01*
X139862Y131732D01*
Y131693D01*
Y130217D01*
Y130177D01*
X139832Y130105D01*
X139777Y130050D01*
X139705Y130020D01*
X138642D01*
X138570Y130050D01*
X138514Y130105D01*
X138484Y130177D01*
Y130217D01*
Y131693D01*
Y131732D01*
X138514Y131804D01*
X138570Y131860D01*
X138642Y131890D01*
X139705D01*
X139777Y131860D01*
D02*
G37*
G36*
X135446D02*
X135502Y131804D01*
X135531Y131732D01*
Y131693D01*
Y130217D01*
Y130177D01*
X135502Y130105D01*
X135446Y130050D01*
X135374Y130020D01*
X134311D01*
X134239Y130050D01*
X134184Y130105D01*
X134153Y130177D01*
Y130217D01*
Y131693D01*
Y131732D01*
X134184Y131804D01*
X134239Y131860D01*
X134311Y131890D01*
X135374D01*
X135446Y131860D01*
D02*
G37*
G36*
X139777Y129202D02*
X139832Y129147D01*
X139862Y129075D01*
Y129035D01*
Y127559D01*
Y127520D01*
X139832Y127447D01*
X139777Y127392D01*
X139705Y127362D01*
X138642D01*
X138570Y127392D01*
X138514Y127447D01*
X138484Y127520D01*
Y127559D01*
Y129035D01*
Y129075D01*
X138514Y129147D01*
X138570Y129202D01*
X138642Y129232D01*
X139705D01*
X139777Y129202D01*
D02*
G37*
G36*
X137316Y129793D02*
X137372Y129737D01*
X137402Y129665D01*
Y129626D01*
Y127559D01*
Y127520D01*
X137372Y127447D01*
X137316Y127392D01*
X137244Y127362D01*
X136772D01*
X136699Y127392D01*
X136644Y127447D01*
X136614Y127520D01*
Y127559D01*
Y129626D01*
Y129665D01*
X136644Y129737D01*
X136699Y129793D01*
X136772Y129823D01*
X137244D01*
X137316Y129793D01*
D02*
G37*
G36*
X135446Y129202D02*
X135502Y129147D01*
X135531Y129075D01*
Y129035D01*
Y127559D01*
Y127520D01*
X135502Y127447D01*
X135446Y127392D01*
X135374Y127362D01*
X134311D01*
X134239Y127392D01*
X134184Y127447D01*
X134153Y127520D01*
Y127559D01*
Y129035D01*
Y129075D01*
X134184Y129147D01*
X134239Y129202D01*
X134311Y129232D01*
X135374D01*
X135446Y129202D01*
D02*
G37*
D18*
X62087Y90709D02*
D03*
Y92677D02*
D03*
Y94646D02*
D03*
Y96614D02*
D03*
Y98583D02*
D03*
Y100551D02*
D03*
Y102520D02*
D03*
Y104488D02*
D03*
Y106457D02*
D03*
Y108425D02*
D03*
Y110394D02*
D03*
Y112362D02*
D03*
X35315D02*
D03*
Y110394D02*
D03*
Y108425D02*
D03*
Y106457D02*
D03*
Y104488D02*
D03*
Y102520D02*
D03*
Y100551D02*
D03*
Y98583D02*
D03*
Y96614D02*
D03*
Y94646D02*
D03*
Y92677D02*
D03*
Y90709D02*
D03*
D19*
X59527Y114921D02*
D03*
X57559D02*
D03*
X55590D02*
D03*
X53622D02*
D03*
X51653D02*
D03*
X49685D02*
D03*
X47717D02*
D03*
X45748D02*
D03*
X43780D02*
D03*
X41811D02*
D03*
X39843D02*
D03*
X37874D02*
D03*
Y88150D02*
D03*
X39843D02*
D03*
X41811D02*
D03*
X43780D02*
D03*
X45748D02*
D03*
X47717D02*
D03*
X49685D02*
D03*
X51653D02*
D03*
X53622D02*
D03*
X55590D02*
D03*
X57559D02*
D03*
X59527D02*
D03*
D20*
X48701Y101535D02*
D03*
D21*
X115551Y4724D02*
D03*
X109646D02*
D03*
X151181Y133957D02*
D03*
X145276D02*
D03*
X44394Y129905D02*
D03*
X50299D02*
D03*
D22*
X35433Y191929D02*
D03*
X39370D02*
D03*
X102165Y11417D02*
D03*
X106102D02*
D03*
X86319Y5709D02*
D03*
X82382D02*
D03*
X96642Y105248D02*
D03*
X92705D02*
D03*
X93543Y129650D02*
D03*
X89606D02*
D03*
X15551Y56693D02*
D03*
X19488D02*
D03*
X9630Y56760D02*
D03*
X5693D02*
D03*
X51772Y66142D02*
D03*
X47835D02*
D03*
X59055Y82677D02*
D03*
X62992D02*
D03*
X39370Y120079D02*
D03*
X35433D02*
D03*
X25000Y133071D02*
D03*
X21063D02*
D03*
X10925Y132874D02*
D03*
X14862D02*
D03*
X19685Y159252D02*
D03*
X23622D02*
D03*
X12795Y164370D02*
D03*
X16732D02*
D03*
X39370Y170276D02*
D03*
X35433D02*
D03*
X35433Y176181D02*
D03*
X39370D02*
D03*
D23*
X139961Y135925D02*
D03*
X137992D02*
D03*
X136024D02*
D03*
X134055D02*
D03*
D24*
X137429Y142480D02*
D03*
X146429D02*
D03*
X136784Y185630D02*
D03*
X127784D02*
D03*
X146528Y159646D02*
D03*
X137528D02*
D03*
D25*
X130512Y121240D02*
D03*
X142717D02*
D03*
X130575Y110508D02*
D03*
X142780D02*
D03*
X130575Y99779D02*
D03*
X142780D02*
D03*
D26*
X150165Y121173D02*
D03*
Y127079D02*
D03*
X114764Y184350D02*
D03*
Y178445D02*
D03*
X122047Y171358D02*
D03*
Y177264D02*
D03*
X74016Y87008D02*
D03*
Y92913D02*
D03*
D27*
X122807Y142484D02*
D03*
Y133153D02*
D03*
D28*
X145177Y176676D02*
D03*
Y168600D02*
D03*
D29*
X87303Y11280D02*
D03*
X94784D02*
D03*
X91043Y19232D02*
D03*
D30*
X140787Y8957D02*
D03*
X132835Y5217D02*
D03*
Y12697D02*
D03*
D31*
X127165Y6890D02*
D03*
Y10827D02*
D03*
X82209Y121968D02*
D03*
Y118032D02*
D03*
X67716Y95079D02*
D03*
Y91142D02*
D03*
X67205Y105185D02*
D03*
Y109122D02*
D03*
X30213Y91677D02*
D03*
Y87740D02*
D03*
X31496Y132579D02*
D03*
Y136516D02*
D03*
X5472Y151319D02*
D03*
Y155256D02*
D03*
X39370Y186024D02*
D03*
Y182087D02*
D03*
X23622Y177756D02*
D03*
Y181693D02*
D03*
X16831Y177657D02*
D03*
Y181595D02*
D03*
D32*
X97142Y122028D02*
D03*
X89661D02*
D03*
X97142Y112972D02*
D03*
X89661D02*
D03*
D33*
X9213Y110335D02*
D03*
Y83760D02*
D03*
D34*
Y101575D02*
D03*
D35*
Y90945D02*
D03*
D36*
X19350Y106841D02*
D03*
Y87254D02*
D03*
D37*
X19685Y102165D02*
D03*
Y99606D02*
D03*
Y97047D02*
D03*
Y94488D02*
D03*
Y91929D02*
D03*
D38*
X18012Y146260D02*
D03*
D39*
X10138Y151181D02*
D03*
Y149213D02*
D03*
Y147244D02*
D03*
Y145276D02*
D03*
Y143307D02*
D03*
Y141339D02*
D03*
X25886Y151181D02*
D03*
Y149213D02*
D03*
Y147244D02*
D03*
Y145276D02*
D03*
Y143307D02*
D03*
Y141339D02*
D03*
D40*
X13091Y138484D02*
D03*
X15059D02*
D03*
X17028D02*
D03*
X18996D02*
D03*
X20965D02*
D03*
X22933D02*
D03*
X13091Y154035D02*
D03*
X15059D02*
D03*
X17028D02*
D03*
X18996D02*
D03*
X20965D02*
D03*
X22933D02*
D03*
D41*
X19990Y188602D02*
D03*
X25896D02*
D03*
X19980Y192913D02*
D03*
X25886D02*
D03*
M02*
