G04*
G04 #@! TF.GenerationSoftware,Altium Limited,Altium Designer,25.2.1 (25)*
G04*
G04 Layer_Color=2752767*
%FSLAX25Y25*%
%MOIN*%
G70*
G04*
G04 #@! TF.SameCoordinates,E3AB8C20-A1E6-43C1-8624-3ED8289FA371*
G04*
G04*
G04 #@! TF.FilePolarity,Positive*
G04*
G01*
G75*
%ADD13C,0.00500*%
%ADD100C,0.00667*%
%ADD101C,0.00400*%
D13*
X78740Y183039D02*
X79740Y184039D01*
X80740D01*
X79740Y185039D01*
X80740Y186039D01*
X79740D01*
X78740Y187039D01*
X77740Y186039D01*
X76740D01*
X77740Y185039D01*
X76740Y184039D01*
X77740D01*
X78740Y183039D01*
Y143039D02*
X79740Y144039D01*
X80740D01*
X79740Y145039D01*
X80740Y146039D01*
X79740D01*
X78740Y147039D01*
X77740Y146039D01*
X76740D01*
X77740Y145039D01*
X76740Y144039D01*
X77740D01*
X78740Y143039D01*
Y163039D02*
X76740Y167039D01*
X80740D01*
X78740Y163039D01*
X9937Y28512D02*
Y32512D01*
X13937D01*
Y28512D01*
X9937D01*
X10737Y29312D02*
Y31712D01*
X13137D01*
Y29312D01*
X10737D01*
X19937Y28512D02*
Y32512D01*
X23937D01*
Y28512D01*
X19937D01*
X20737Y29312D02*
Y31712D01*
X23137D01*
Y29312D01*
X20737D01*
X9929Y16898D02*
Y20898D01*
X13929D01*
Y16898D01*
X9929D01*
X10729Y17698D02*
Y20098D01*
X13129D01*
Y17698D01*
X10729D01*
X19929Y16898D02*
Y20898D01*
X23929D01*
Y16898D01*
X19929D01*
X20729Y17698D02*
Y20098D01*
X23129D01*
Y17698D01*
X20729D01*
X100488Y47610D02*
Y46610D01*
X102488D01*
Y47610D01*
X103488D01*
Y49610D01*
X102488D01*
Y50610D01*
X100488D01*
Y49610D01*
X99488D01*
Y47610D01*
X100488D01*
X137890D02*
Y46610D01*
X139890D01*
Y47610D01*
X140890D01*
Y49610D01*
X139890D01*
Y50610D01*
X137890D01*
Y49610D01*
X136890D01*
Y47610D01*
X137890D01*
X105965Y60835D02*
Y59835D01*
X107965D01*
Y60835D01*
X108965D01*
Y62835D01*
X107965D01*
Y63835D01*
X105965D01*
Y62835D01*
X104965D01*
Y60835D01*
X105965D01*
X132413D02*
Y59835D01*
X134413D01*
Y60835D01*
X135413D01*
Y62835D01*
X134413D01*
Y63835D01*
X132413D01*
Y62835D01*
X131413D01*
Y60835D01*
X132413D01*
X105965Y34386D02*
Y33386D01*
X107965D01*
Y34386D01*
X108965D01*
Y36386D01*
X107965D01*
Y37386D01*
X105965D01*
Y36386D01*
X104965D01*
Y34386D01*
X105965D01*
X132413D02*
Y33386D01*
X134413D01*
Y34386D01*
X135413D01*
Y36386D01*
X134413D01*
Y37386D01*
X132413D01*
Y36386D01*
X131413D01*
Y34386D01*
X132413D01*
X86614Y186976D02*
X87614Y187976D01*
X88614D01*
X87614Y188976D01*
X88614Y189976D01*
X87614D01*
X86614Y190976D01*
X85614Y189976D01*
X84614D01*
X85614Y188976D01*
X84614Y187976D01*
X85614D01*
X86614Y186976D01*
Y187776D02*
X87214Y188376D01*
X87814D01*
X87214Y188976D01*
X87814Y189576D01*
X87214D01*
X86614Y190176D01*
X86014Y189576D01*
X85414D01*
X86014Y188976D01*
X85414Y188376D01*
X86014D01*
X86614Y187776D01*
X54929Y19102D02*
Y23102D01*
X58929D01*
Y19102D01*
X54929D01*
Y38787D02*
Y42787D01*
X58929D01*
Y38787D01*
X54929D01*
X17685Y5874D02*
X18685Y7874D01*
X17685Y9874D01*
X19685Y8874D01*
X21685Y9874D01*
X20685Y7874D01*
X21685Y5874D01*
X19685Y6874D01*
X17685Y5874D01*
X18485Y6674D02*
X19085Y7874D01*
X18485Y9074D01*
X19685Y8474D01*
X20885Y9074D01*
X20285Y7874D01*
X20885Y6674D01*
X19685Y7274D01*
X18485Y6674D01*
X145500Y148984D02*
Y152984D01*
X149500D01*
Y148984D01*
X145500D01*
X146300Y149784D02*
Y152184D01*
X148700D01*
Y149784D01*
X146300D01*
X135500Y148984D02*
Y152984D01*
X139500D01*
Y148984D01*
X135500D01*
X136300Y149784D02*
Y152184D01*
X138700D01*
Y149784D01*
X136300D01*
X148606Y187976D02*
Y186976D01*
X150606D01*
Y187976D01*
X151606D01*
Y189976D01*
X150606D01*
Y190976D01*
X148606D01*
Y189976D01*
X147606D01*
Y187976D01*
X148606D01*
X149006Y188376D02*
Y187776D01*
X150206D01*
Y188376D01*
X150806D01*
Y189576D01*
X150206D01*
Y190176D01*
X149006D01*
Y189576D01*
X148406D01*
Y188376D01*
X149006D01*
X148606Y6874D02*
Y5874D01*
X150606D01*
Y6874D01*
X151606D01*
Y8874D01*
X150606D01*
Y9874D01*
X148606D01*
Y8874D01*
X147606D01*
Y6874D01*
X148606D01*
X149006Y7274D02*
Y6674D01*
X150206D01*
Y7274D01*
X150806D01*
Y8474D01*
X150206D01*
Y9074D01*
X149006D01*
Y8474D01*
X148406D01*
Y7274D01*
X149006D01*
X6874Y6874D02*
Y5874D01*
X8874D01*
Y6874D01*
X9874D01*
Y8874D01*
X8874D01*
Y9874D01*
X6874D01*
Y8874D01*
X5874D01*
Y6874D01*
X6874D01*
X7274Y7274D02*
Y6674D01*
X8474D01*
Y7274D01*
X9074D01*
Y8474D01*
X8474D01*
Y9074D01*
X7274D01*
Y8474D01*
X6674D01*
Y7274D01*
X7274D01*
X6874Y187976D02*
Y186976D01*
X8874D01*
Y187976D01*
X9874D01*
Y189976D01*
X8874D01*
Y190976D01*
X6874D01*
Y189976D01*
X5874D01*
Y187976D01*
X6874D01*
X7274Y188376D02*
Y187776D01*
X8474D01*
Y188376D01*
X9074D01*
Y189576D01*
X8474D01*
Y190176D01*
X7274D01*
Y189576D01*
X6674D01*
Y188376D01*
X7274D01*
X2437Y65673D02*
X3437Y67673D01*
X2437Y69673D01*
X4437Y68673D01*
X6437Y69673D01*
X5437Y67673D01*
X6437Y65673D01*
X4437Y66673D01*
X2437Y65673D01*
X22437Y69673D02*
X23437Y71673D01*
X22437Y73673D01*
X24437Y72673D01*
X26437Y73673D01*
X25437Y71673D01*
X26437Y69673D01*
X24437Y70673D01*
X22437Y69673D01*
Y61673D02*
X23437Y63673D01*
X22437Y65673D01*
X24437Y64673D01*
X26437Y65673D01*
X25437Y63673D01*
X26437Y61673D01*
X24437Y62673D01*
X22437Y61673D01*
X55362Y90874D02*
X56362D01*
X57362Y91874D01*
X58362Y90874D01*
X59362D01*
Y91874D01*
X58362Y92874D01*
X59362Y93874D01*
Y94874D01*
X58362D01*
X57362Y93874D01*
X56362Y94874D01*
X55362D01*
Y93874D01*
X56362Y92874D01*
X55362Y91874D01*
Y90874D01*
X51032D02*
X52031D01*
X53031Y91874D01*
X54031Y90874D01*
X55032D01*
Y91874D01*
X54031Y92874D01*
X55032Y93874D01*
Y94874D01*
X54031D01*
X53031Y93874D01*
X52031Y94874D01*
X51032D01*
Y93874D01*
X52031Y92874D01*
X51032Y91874D01*
Y90874D01*
X46701D02*
X47701D01*
X48701Y91874D01*
X49701Y90874D01*
X50701D01*
Y91874D01*
X49701Y92874D01*
X50701Y93874D01*
Y94874D01*
X49701D01*
X48701Y93874D01*
X47701Y94874D01*
X46701D01*
Y93874D01*
X47701Y92874D01*
X46701Y91874D01*
Y90874D01*
X42370D02*
X43370D01*
X44370Y91874D01*
X45370Y90874D01*
X46370D01*
Y91874D01*
X45370Y92874D01*
X46370Y93874D01*
Y94874D01*
X45370D01*
X44370Y93874D01*
X43370Y94874D01*
X42370D01*
Y93874D01*
X43370Y92874D01*
X42370Y91874D01*
Y90874D01*
X38039D02*
X39039D01*
X40039Y91874D01*
X41039Y90874D01*
X42039D01*
Y91874D01*
X41039Y92874D01*
X42039Y93874D01*
Y94874D01*
X41039D01*
X40039Y93874D01*
X39039Y94874D01*
X38039D01*
Y93874D01*
X39039Y92874D01*
X38039Y91874D01*
Y90874D01*
X55362Y95205D02*
X56362D01*
X57362Y96205D01*
X58362Y95205D01*
X59362D01*
Y96205D01*
X58362Y97205D01*
X59362Y98205D01*
Y99205D01*
X58362D01*
X57362Y98205D01*
X56362Y99205D01*
X55362D01*
Y98205D01*
X56362Y97205D01*
X55362Y96205D01*
Y95205D01*
X51032D02*
X52031D01*
X53031Y96205D01*
X54031Y95205D01*
X55032D01*
Y96205D01*
X54031Y97205D01*
X55032Y98205D01*
Y99205D01*
X54031D01*
X53031Y98205D01*
X52031Y99205D01*
X51032D01*
Y98205D01*
X52031Y97205D01*
X51032Y96205D01*
Y95205D01*
X46701D02*
X47701D01*
X48701Y96205D01*
X49701Y95205D01*
X50701D01*
Y96205D01*
X49701Y97205D01*
X50701Y98205D01*
Y99205D01*
X49701D01*
X48701Y98205D01*
X47701Y99205D01*
X46701D01*
Y98205D01*
X47701Y97205D01*
X46701Y96205D01*
Y95205D01*
X42370D02*
X43370D01*
X44370Y96205D01*
X45370Y95205D01*
X46370D01*
Y96205D01*
X45370Y97205D01*
X46370Y98205D01*
Y99205D01*
X45370D01*
X44370Y98205D01*
X43370Y99205D01*
X42370D01*
Y98205D01*
X43370Y97205D01*
X42370Y96205D01*
Y95205D01*
X38039D02*
X39039D01*
X40039Y96205D01*
X41039Y95205D01*
X42039D01*
Y96205D01*
X41039Y97205D01*
X42039Y98205D01*
Y99205D01*
X41039D01*
X40039Y98205D01*
X39039Y99205D01*
X38039D01*
Y98205D01*
X39039Y97205D01*
X38039Y96205D01*
Y95205D01*
X55362Y99535D02*
X56362D01*
X57362Y100535D01*
X58362Y99535D01*
X59362D01*
Y100535D01*
X58362Y101535D01*
X59362Y102535D01*
Y103535D01*
X58362D01*
X57362Y102535D01*
X56362Y103535D01*
X55362D01*
Y102535D01*
X56362Y101535D01*
X55362Y100535D01*
Y99535D01*
X51032D02*
X52031D01*
X53031Y100535D01*
X54031Y99535D01*
X55032D01*
Y100535D01*
X54031Y101535D01*
X55032Y102535D01*
Y103535D01*
X54031D01*
X53031Y102535D01*
X52031Y103535D01*
X51032D01*
Y102535D01*
X52031Y101535D01*
X51032Y100535D01*
Y99535D01*
X46701D02*
X47701D01*
X48701Y100535D01*
X49701Y99535D01*
X50701D01*
Y100535D01*
X49701Y101535D01*
X50701Y102535D01*
Y103535D01*
X49701D01*
X48701Y102535D01*
X47701Y103535D01*
X46701D01*
Y102535D01*
X47701Y101535D01*
X46701Y100535D01*
Y99535D01*
X42370D02*
X43370D01*
X44370Y100535D01*
X45370Y99535D01*
X46370D01*
Y100535D01*
X45370Y101535D01*
X46370Y102535D01*
Y103535D01*
X45370D01*
X44370Y102535D01*
X43370Y103535D01*
X42370D01*
Y102535D01*
X43370Y101535D01*
X42370Y100535D01*
Y99535D01*
X38039D02*
X39039D01*
X40039Y100535D01*
X41039Y99535D01*
X42039D01*
Y100535D01*
X41039Y101535D01*
X42039Y102535D01*
Y103535D01*
X41039D01*
X40039Y102535D01*
X39039Y103535D01*
X38039D01*
Y102535D01*
X39039Y101535D01*
X38039Y100535D01*
Y99535D01*
X55362Y103866D02*
X56362D01*
X57362Y104866D01*
X58362Y103866D01*
X59362D01*
Y104866D01*
X58362Y105866D01*
X59362Y106866D01*
Y107866D01*
X58362D01*
X57362Y106866D01*
X56362Y107866D01*
X55362D01*
Y106866D01*
X56362Y105866D01*
X55362Y104866D01*
Y103866D01*
X51032D02*
X52031D01*
X53031Y104866D01*
X54031Y103866D01*
X55032D01*
Y104866D01*
X54031Y105866D01*
X55032Y106866D01*
Y107866D01*
X54031D01*
X53031Y106866D01*
X52031Y107866D01*
X51032D01*
Y106866D01*
X52031Y105866D01*
X51032Y104866D01*
Y103866D01*
X46701D02*
X47701D01*
X48701Y104866D01*
X49701Y103866D01*
X50701D01*
Y104866D01*
X49701Y105866D01*
X50701Y106866D01*
Y107866D01*
X49701D01*
X48701Y106866D01*
X47701Y107866D01*
X46701D01*
Y106866D01*
X47701Y105866D01*
X46701Y104866D01*
Y103866D01*
X42370D02*
X43370D01*
X44370Y104866D01*
X45370Y103866D01*
X46370D01*
Y104866D01*
X45370Y105866D01*
X46370Y106866D01*
Y107866D01*
X45370D01*
X44370Y106866D01*
X43370Y107866D01*
X42370D01*
Y106866D01*
X43370Y105866D01*
X42370Y104866D01*
Y103866D01*
X38039D02*
X39039D01*
X40039Y104866D01*
X41039Y103866D01*
X42039D01*
Y104866D01*
X41039Y105866D01*
X42039Y106866D01*
Y107866D01*
X41039D01*
X40039Y106866D01*
X39039Y107866D01*
X38039D01*
Y106866D01*
X39039Y105866D01*
X38039Y104866D01*
Y103866D01*
X55362Y108197D02*
X56362D01*
X57362Y109197D01*
X58362Y108197D01*
X59362D01*
Y109197D01*
X58362Y110197D01*
X59362Y111197D01*
Y112197D01*
X58362D01*
X57362Y111197D01*
X56362Y112197D01*
X55362D01*
Y111197D01*
X56362Y110197D01*
X55362Y109197D01*
Y108197D01*
X51032D02*
X52031D01*
X53031Y109197D01*
X54031Y108197D01*
X55032D01*
Y109197D01*
X54031Y110197D01*
X55032Y111197D01*
Y112197D01*
X54031D01*
X53031Y111197D01*
X52031Y112197D01*
X51032D01*
Y111197D01*
X52031Y110197D01*
X51032Y109197D01*
Y108197D01*
X46701D02*
X47701D01*
X48701Y109197D01*
X49701Y108197D01*
X50701D01*
Y109197D01*
X49701Y110197D01*
X50701Y111197D01*
Y112197D01*
X49701D01*
X48701Y111197D01*
X47701Y112197D01*
X46701D01*
Y111197D01*
X47701Y110197D01*
X46701Y109197D01*
Y108197D01*
X42370D02*
X43370D01*
X44370Y109197D01*
X45370Y108197D01*
X46370D01*
Y109197D01*
X45370Y110197D01*
X46370Y111197D01*
Y112197D01*
X45370D01*
X44370Y111197D01*
X43370Y112197D01*
X42370D01*
Y111197D01*
X43370Y110197D01*
X42370Y109197D01*
Y108197D01*
X38039D02*
X39039D01*
X40039Y109197D01*
X41039Y108197D01*
X42039D01*
Y109197D01*
X41039Y110197D01*
X42039Y111197D01*
Y112197D01*
X41039D01*
X40039Y111197D01*
X39039Y112197D01*
X38039D01*
Y111197D01*
X39039Y110197D01*
X38039Y109197D01*
Y108197D01*
X66307Y81693D02*
X68307Y83693D01*
X70307Y81693D01*
X68307Y79693D01*
X66307Y81693D01*
X76634Y39264D02*
X78634Y41264D01*
X80634Y39264D01*
X78634Y37264D01*
X76634Y39264D01*
X80571Y47138D02*
X82571Y49138D01*
X84571Y47138D01*
X82571Y45138D01*
X80571Y47138D01*
X21516Y39264D02*
X23516Y41264D01*
X25516Y39264D01*
X23516Y37264D01*
X21516Y39264D01*
X68760D02*
X70760Y41264D01*
X72760Y39264D01*
X70760Y37264D01*
X68760Y39264D01*
X37264D02*
X39264Y41264D01*
X41264Y39264D01*
X39264Y37264D01*
X37264Y39264D01*
X56161Y161016D02*
X58161Y163016D01*
X60162Y161016D01*
X58161Y159016D01*
X56161Y161016D01*
X83130Y143988D02*
X85130Y145988D01*
X87130Y143988D01*
X85130Y141988D01*
X83130Y143988D01*
X91004D02*
X93004Y145988D01*
X95004Y143988D01*
X93004Y141988D01*
X91004Y143988D01*
X98878D02*
X100878Y145988D01*
X102878Y143988D01*
X100878Y141988D01*
X98878Y143988D01*
X151437Y173122D02*
X153437Y175122D01*
X155437Y173122D01*
X153437Y171122D01*
X151437Y173122D01*
X147500Y86508D02*
X149500Y88508D01*
X151500Y86508D01*
X149500Y84508D01*
X147500Y86508D01*
X151437Y78634D02*
X153437Y80634D01*
X155437Y78634D01*
X153437Y76634D01*
X151437Y78634D01*
Y62886D02*
X153437Y64886D01*
X155437Y62886D01*
X153437Y60886D01*
X151437Y62886D01*
X147500Y55012D02*
X149500Y57012D01*
X151500Y55012D01*
X149500Y53012D01*
X147500Y55012D01*
X151437Y47138D02*
X153437Y49138D01*
X155437Y47138D01*
X153437Y45138D01*
X151437Y47138D01*
X147500Y39264D02*
X149500Y41264D01*
X151500Y39264D01*
X149500Y37264D01*
X147500Y39264D01*
X151437Y31390D02*
X153437Y33390D01*
X155437Y31390D01*
X153437Y29390D01*
X151437Y31390D01*
X147500Y23516D02*
X149500Y25516D01*
X151500Y23516D01*
X149500Y21516D01*
X147500Y23516D01*
X151437Y15642D02*
X153437Y17642D01*
X155437Y15642D01*
X153437Y13642D01*
X151437Y15642D01*
X143563Y78634D02*
X145563Y80634D01*
X147563Y78634D01*
X145563Y76634D01*
X143563Y78634D01*
Y15642D02*
X145563Y17642D01*
X147563Y15642D01*
X145563Y13642D01*
X143563Y15642D01*
X135689Y78634D02*
X137689Y80634D01*
X139689Y78634D01*
X137689Y76634D01*
X135689Y78634D01*
X123878Y86508D02*
X125878Y88508D01*
X127878Y86508D01*
X125878Y84508D01*
X123878Y86508D01*
X127815Y47138D02*
X129815Y49138D01*
X131815Y47138D01*
X129815Y45138D01*
X127815Y47138D01*
X116004Y39264D02*
X118004Y41264D01*
X120004Y39264D01*
X118004Y37264D01*
X116004Y39264D01*
Y23516D02*
X118004Y25516D01*
X120004Y23516D01*
X118004Y21516D01*
X116004Y23516D01*
X108130Y180996D02*
X110130Y182996D01*
X112130Y180996D01*
X110130Y178996D01*
X108130Y180996D01*
X112067Y173122D02*
X114067Y175122D01*
X116067Y173122D01*
X114067Y171122D01*
X112067Y173122D01*
X108130Y165248D02*
X110130Y167248D01*
X112130Y165248D01*
X110130Y163248D01*
X108130Y165248D01*
Y149500D02*
X110130Y151500D01*
X112130Y149500D01*
X110130Y147500D01*
X108130Y149500D01*
Y86508D02*
X110130Y88508D01*
X112130Y86508D01*
X110130Y84508D01*
X108130Y86508D01*
X112067Y31390D02*
X114067Y33390D01*
X116067Y31390D01*
X114067Y29390D01*
X112067Y31390D01*
X108130Y23516D02*
X110130Y25516D01*
X112130Y23516D01*
X110130Y21516D01*
X108130Y23516D01*
X100256Y180996D02*
X102256Y182996D01*
X104256Y180996D01*
X102256Y178996D01*
X100256Y180996D01*
X104193Y173122D02*
X106193Y175122D01*
X108193Y173122D01*
X106193Y171122D01*
X104193Y173122D01*
X100256Y165248D02*
X102256Y167248D01*
X104256Y165248D01*
X102256Y163248D01*
X100256Y165248D01*
X104193Y157374D02*
X106193Y159374D01*
X108193Y157374D01*
X106193Y155374D01*
X104193Y157374D01*
Y141626D02*
X106193Y143626D01*
X108193Y141626D01*
X106193Y139626D01*
X104193Y141626D01*
X100256Y86508D02*
X102256Y88508D01*
X104256Y86508D01*
X102256Y84508D01*
X100256Y86508D01*
Y23516D02*
X102256Y25516D01*
X104256Y23516D01*
X102256Y21516D01*
X100256Y23516D01*
X92382Y180996D02*
X94382Y182996D01*
X96382Y180996D01*
X94382Y178996D01*
X92382Y180996D01*
X96319Y173122D02*
X98319Y175122D01*
X100319Y173122D01*
X98319Y171122D01*
X96319Y173122D01*
X92382Y165248D02*
X94382Y167248D01*
X96382Y165248D01*
X94382Y163248D01*
X92382Y165248D01*
X96319Y157374D02*
X98319Y159374D01*
X100319Y157374D01*
X98319Y155374D01*
X96319Y157374D01*
Y31390D02*
X98319Y33390D01*
X100319Y31390D01*
X98319Y29390D01*
X96319Y31390D01*
X92382Y23516D02*
X94382Y25516D01*
X96382Y23516D01*
X94382Y21516D01*
X92382Y23516D01*
X88445Y173122D02*
X90445Y175122D01*
X92445Y173122D01*
X90445Y171122D01*
X88445Y173122D01*
Y157374D02*
X90445Y159374D01*
X92445Y157374D01*
X90445Y155374D01*
X88445Y157374D01*
X80571Y125878D02*
X82571Y127878D01*
X84571Y125878D01*
X82571Y123878D01*
X80571Y125878D01*
X72697Y47138D02*
X74697Y49138D01*
X76697Y47138D01*
X74697Y45138D01*
X72697Y47138D01*
X60886Y7768D02*
X62886Y9768D01*
X64886Y7768D01*
X62886Y5768D01*
X60886Y7768D01*
X56949Y188870D02*
X58949Y190870D01*
X60949Y188870D01*
X58949Y186870D01*
X56949Y188870D01*
X53012Y7768D02*
X55012Y9768D01*
X57012Y7768D01*
X55012Y5768D01*
X53012Y7768D01*
X45138Y180996D02*
X47138Y182996D01*
X49138Y180996D01*
X47138Y178996D01*
X45138Y180996D01*
X49075Y15642D02*
X51075Y17642D01*
X53075Y15642D01*
X51075Y13642D01*
X49075Y15642D01*
X45138Y7768D02*
X47138Y9768D01*
X49138Y7768D01*
X47138Y5768D01*
X45138Y7768D01*
X41201Y188870D02*
X43201Y190870D01*
X45201Y188870D01*
X43201Y186870D01*
X41201Y188870D01*
X37264Y149500D02*
X39264Y151500D01*
X41264Y149500D01*
X39264Y147500D01*
X37264Y149500D01*
X41201Y141626D02*
X43201Y143626D01*
X45201Y141626D01*
X43201Y139626D01*
X41201Y141626D01*
Y15642D02*
X43201Y17642D01*
X45201Y15642D01*
X43201Y13642D01*
X41201Y15642D01*
X37264Y7768D02*
X39264Y9768D01*
X41264Y7768D01*
X39264Y5768D01*
X37264Y7768D01*
X29390Y149500D02*
X31390Y151500D01*
X33390Y149500D01*
X31390Y147500D01*
X29390Y149500D01*
X33327Y47138D02*
X35327Y49138D01*
X37327Y47138D01*
X35327Y45138D01*
X33327Y47138D01*
X70638Y79134D02*
X72638Y81134D01*
X74638Y79134D01*
X72638Y77134D01*
X70638Y79134D01*
X26543Y83465D02*
X28543Y85465D01*
X30543Y83465D01*
X28543Y81465D01*
X26543Y83465D01*
X18177Y142095D02*
X19177D01*
X20177Y143095D01*
X21177Y142095D01*
X22177D01*
Y143095D01*
X21177Y144095D01*
X22177Y145095D01*
Y146095D01*
X21177D01*
X20177Y145095D01*
X19177Y146095D01*
X18177D01*
Y145095D01*
X19177Y144095D01*
X18177Y143095D01*
Y142095D01*
X13847D02*
X14846D01*
X15846Y143095D01*
X16847Y142095D01*
X17846D01*
Y143095D01*
X16847Y144095D01*
X17846Y145095D01*
Y146095D01*
X16847D01*
X15846Y145095D01*
X14846Y146095D01*
X13847D01*
Y145095D01*
X14846Y144095D01*
X13847Y143095D01*
Y142095D01*
Y146425D02*
X14846D01*
X15846Y147425D01*
X16847Y146425D01*
X17846D01*
Y147425D01*
X16847Y148425D01*
X17846Y149425D01*
Y150425D01*
X16847D01*
X15846Y149425D01*
X14846Y150425D01*
X13847D01*
Y149425D01*
X14846Y148425D01*
X13847Y147425D01*
Y146425D01*
X18177D02*
X19177D01*
X20177Y147425D01*
X21177Y146425D01*
X22177D01*
Y147425D01*
X21177Y148425D01*
X22177Y149425D01*
Y150425D01*
X21177D01*
X20177Y149425D01*
X19177Y150425D01*
X18177D01*
Y149425D01*
X19177Y148425D01*
X18177Y147425D01*
Y146425D01*
X65323Y119587D02*
X67323Y121587D01*
X69323Y119587D01*
X67323Y117587D01*
X65323Y119587D01*
D100*
X60740Y175039D02*
X60511Y175969D01*
X59876Y176685D01*
X58981Y177025D01*
X58031Y176909D01*
X57243Y176366D01*
X56798Y175518D01*
Y174561D01*
X57243Y173713D01*
X58031Y173169D01*
X58981Y173054D01*
X59876Y173393D01*
X60511Y174110D01*
X60740Y175039D01*
X70740Y150039D02*
X70511Y150969D01*
X69876Y151685D01*
X68981Y152025D01*
X68031Y151909D01*
X67243Y151366D01*
X66798Y150518D01*
Y149561D01*
X67243Y148713D01*
X68031Y148169D01*
X68981Y148054D01*
X69876Y148393D01*
X70511Y149110D01*
X70740Y150039D01*
X34909Y114732D02*
X34680Y115662D01*
X34046Y116378D01*
X33151Y116718D01*
X32200Y116602D01*
X31412Y116059D01*
X30968Y115211D01*
Y114254D01*
X31412Y113406D01*
X32200Y112862D01*
X33151Y112747D01*
X34046Y113086D01*
X34680Y113803D01*
X34909Y114732D01*
X56252Y126937D02*
X56023Y127866D01*
X55388Y128583D01*
X54493Y128922D01*
X53543Y128807D01*
X52755Y128263D01*
X52310Y127416D01*
Y126458D01*
X52755Y125611D01*
X53543Y125067D01*
X54493Y124952D01*
X55388Y125291D01*
X56023Y126008D01*
X56252Y126937D01*
X49980Y125933D02*
X49751Y126863D01*
X49116Y127579D01*
X48221Y127919D01*
X47271Y127803D01*
X46483Y127259D01*
X46038Y126412D01*
Y125454D01*
X46483Y124607D01*
X47271Y124063D01*
X48221Y123948D01*
X49116Y124287D01*
X49751Y125004D01*
X49980Y125933D01*
X49709Y121724D02*
X49480Y122654D01*
X48845Y123370D01*
X47950Y123710D01*
X46999Y123594D01*
X46212Y123051D01*
X45767Y122203D01*
Y121246D01*
X46212Y120398D01*
X46999Y119854D01*
X47950Y119739D01*
X48845Y120078D01*
X49480Y120795D01*
X49709Y121724D01*
X128181Y171850D02*
X127952Y172780D01*
X127317Y173496D01*
X126422Y173836D01*
X125472Y173720D01*
X124684Y173177D01*
X124239Y172329D01*
Y171372D01*
X124684Y170524D01*
X125472Y169980D01*
X126422Y169865D01*
X127317Y170204D01*
X127952Y170921D01*
X128181Y171850D01*
X130445Y174016D02*
X130216Y174945D01*
X129581Y175662D01*
X128686Y176001D01*
X127736Y175886D01*
X126948Y175342D01*
X126503Y174494D01*
Y173537D01*
X126948Y172689D01*
X127736Y172146D01*
X128686Y172030D01*
X129581Y172370D01*
X130216Y173086D01*
X130445Y174016D01*
X15189Y36220D02*
X14960Y37150D01*
X14325Y37866D01*
X13430Y38206D01*
X12480Y38091D01*
X11692Y37547D01*
X11247Y36699D01*
Y35742D01*
X11692Y34894D01*
X12480Y34350D01*
X13430Y34235D01*
X14325Y34574D01*
X14960Y35291D01*
X15189Y36220D01*
X11547Y39961D02*
X11318Y40890D01*
X10683Y41607D01*
X9788Y41946D01*
X8838Y41831D01*
X8050Y41287D01*
X7605Y40439D01*
Y39482D01*
X8050Y38634D01*
X8838Y38091D01*
X9788Y37975D01*
X10683Y38315D01*
X11318Y39031D01*
X11547Y39961D01*
Y36122D02*
X11318Y37051D01*
X10683Y37768D01*
X9788Y38107D01*
X8838Y37992D01*
X8050Y37448D01*
X7605Y36601D01*
Y35643D01*
X8050Y34796D01*
X8838Y34252D01*
X9788Y34137D01*
X10683Y34476D01*
X11318Y35193D01*
X11547Y36122D01*
X8102Y28150D02*
X7873Y29079D01*
X7238Y29796D01*
X6343Y30135D01*
X5393Y30020D01*
X4605Y29476D01*
X4160Y28628D01*
Y27671D01*
X4605Y26823D01*
X5393Y26280D01*
X6343Y26164D01*
X7238Y26504D01*
X7873Y27220D01*
X8102Y28150D01*
Y32087D02*
X7873Y33016D01*
X7238Y33733D01*
X6343Y34072D01*
X5393Y33957D01*
X4605Y33413D01*
X4160Y32565D01*
Y31608D01*
X4605Y30760D01*
X5393Y30217D01*
X6343Y30101D01*
X7238Y30441D01*
X7873Y31157D01*
X8102Y32087D01*
Y36024D02*
X7873Y36953D01*
X7238Y37670D01*
X6343Y38009D01*
X5393Y37894D01*
X4605Y37350D01*
X4160Y36502D01*
Y35545D01*
X4605Y34697D01*
X5393Y34154D01*
X6343Y34038D01*
X7238Y34378D01*
X7873Y35094D01*
X8102Y36024D01*
Y39961D02*
X7873Y40890D01*
X7238Y41607D01*
X6343Y41946D01*
X5393Y41831D01*
X4605Y41287D01*
X4160Y40439D01*
Y39482D01*
X4605Y38634D01*
X5393Y38091D01*
X6343Y37975D01*
X7238Y38315D01*
X7873Y39031D01*
X8102Y39961D01*
X4559Y28150D02*
X4330Y29079D01*
X3695Y29796D01*
X2800Y30135D01*
X1850Y30020D01*
X1062Y29476D01*
X617Y28628D01*
Y27671D01*
X1062Y26823D01*
X1850Y26280D01*
X2800Y26164D01*
X3695Y26504D01*
X4330Y27220D01*
X4559Y28150D01*
Y32087D02*
X4330Y33016D01*
X3695Y33733D01*
X2800Y34072D01*
X1850Y33957D01*
X1062Y33413D01*
X617Y32565D01*
Y31608D01*
X1062Y30760D01*
X1850Y30217D01*
X2800Y30101D01*
X3695Y30441D01*
X4330Y31157D01*
X4559Y32087D01*
Y36024D02*
X4330Y36953D01*
X3695Y37670D01*
X2800Y38009D01*
X1850Y37894D01*
X1062Y37350D01*
X617Y36502D01*
Y35545D01*
X1062Y34697D01*
X1850Y34154D01*
X2800Y34038D01*
X3695Y34378D01*
X4330Y35094D01*
X4559Y36024D01*
Y39961D02*
X4330Y40890D01*
X3695Y41607D01*
X2800Y41946D01*
X1850Y41831D01*
X1062Y41287D01*
X617Y40439D01*
Y39482D01*
X1062Y38634D01*
X1850Y38091D01*
X2800Y37975D01*
X3695Y38315D01*
X4330Y39031D01*
X4559Y39961D01*
X122118Y98740D02*
X121889Y99670D01*
X121254Y100386D01*
X120359Y100726D01*
X119409Y100610D01*
X118621Y100066D01*
X118176Y99219D01*
Y98261D01*
X118621Y97414D01*
X119409Y96870D01*
X120359Y96755D01*
X121254Y97094D01*
X121889Y97811D01*
X122118Y98740D01*
Y104252D02*
X121889Y105181D01*
X121254Y105898D01*
X120359Y106237D01*
X119409Y106122D01*
X118621Y105578D01*
X118176Y104731D01*
Y103773D01*
X118621Y102926D01*
X119409Y102382D01*
X120359Y102267D01*
X121254Y102606D01*
X121889Y103323D01*
X122118Y104252D01*
Y116063D02*
X121889Y116992D01*
X121254Y117709D01*
X120359Y118048D01*
X119409Y117933D01*
X118621Y117389D01*
X118176Y116542D01*
Y115584D01*
X118621Y114737D01*
X119409Y114193D01*
X120359Y114078D01*
X121254Y114417D01*
X121889Y115134D01*
X122118Y116063D01*
Y121968D02*
X121889Y122898D01*
X121254Y123615D01*
X120359Y123954D01*
X119409Y123838D01*
X118621Y123295D01*
X118176Y122447D01*
Y121490D01*
X118621Y120642D01*
X119409Y120098D01*
X120359Y119983D01*
X121254Y120323D01*
X121889Y121039D01*
X122118Y121968D01*
Y110158D02*
X121889Y111087D01*
X121254Y111803D01*
X120359Y112143D01*
X119409Y112028D01*
X118621Y111484D01*
X118176Y110636D01*
Y109679D01*
X118621Y108831D01*
X119409Y108288D01*
X120359Y108172D01*
X121254Y108511D01*
X121889Y109228D01*
X122118Y110158D01*
X125937Y98189D02*
X125708Y99118D01*
X125073Y99835D01*
X124178Y100174D01*
X123228Y100059D01*
X122440Y99515D01*
X121995Y98668D01*
Y97710D01*
X122440Y96863D01*
X123228Y96319D01*
X124178Y96204D01*
X125073Y96543D01*
X125708Y97259D01*
X125937Y98189D01*
Y103701D02*
X125708Y104630D01*
X125073Y105347D01*
X124178Y105686D01*
X123228Y105571D01*
X122440Y105027D01*
X121995Y104179D01*
Y103222D01*
X122440Y102374D01*
X123228Y101831D01*
X124178Y101715D01*
X125073Y102055D01*
X125708Y102771D01*
X125937Y103701D01*
Y115512D02*
X125708Y116441D01*
X125073Y117158D01*
X124178Y117497D01*
X123228Y117382D01*
X122440Y116838D01*
X121995Y115990D01*
Y115033D01*
X122440Y114186D01*
X123228Y113642D01*
X124178Y113526D01*
X125073Y113866D01*
X125708Y114582D01*
X125937Y115512D01*
Y121417D02*
X125708Y122347D01*
X125073Y123063D01*
X124178Y123403D01*
X123228Y123287D01*
X122440Y122744D01*
X121995Y121896D01*
Y120939D01*
X122440Y120091D01*
X123228Y119547D01*
X124178Y119432D01*
X125073Y119771D01*
X125708Y120488D01*
X125937Y121417D01*
Y109606D02*
X125708Y110536D01*
X125073Y111252D01*
X124178Y111592D01*
X123228Y111476D01*
X122440Y110933D01*
X121995Y110085D01*
Y109128D01*
X122440Y108280D01*
X123228Y107736D01*
X124178Y107621D01*
X125073Y107960D01*
X125708Y108677D01*
X125937Y109606D01*
X156724Y148819D02*
X156495Y149748D01*
X155860Y150465D01*
X154965Y150804D01*
X154015Y150689D01*
X153227Y150145D01*
X152782Y149297D01*
Y148340D01*
X153227Y147493D01*
X154015Y146949D01*
X154965Y146834D01*
X155860Y147173D01*
X156495Y147889D01*
X156724Y148819D01*
Y160630D02*
X156495Y161559D01*
X155860Y162276D01*
X154965Y162615D01*
X154015Y162500D01*
X153227Y161956D01*
X152782Y161109D01*
Y160151D01*
X153227Y159304D01*
X154015Y158760D01*
X154965Y158644D01*
X155860Y158984D01*
X156495Y159701D01*
X156724Y160630D01*
Y154724D02*
X156495Y155654D01*
X155860Y156370D01*
X154965Y156710D01*
X154015Y156594D01*
X153227Y156051D01*
X152782Y155203D01*
Y154246D01*
X153227Y153398D01*
X154015Y152854D01*
X154965Y152739D01*
X155860Y153078D01*
X156495Y153795D01*
X156724Y154724D01*
Y143386D02*
X156495Y144315D01*
X155860Y145032D01*
X154965Y145371D01*
X154015Y145256D01*
X153227Y144712D01*
X152782Y143865D01*
Y142907D01*
X153227Y142060D01*
X154015Y141516D01*
X154965Y141400D01*
X155860Y141740D01*
X156495Y142456D01*
X156724Y143386D01*
Y137402D02*
X156495Y138331D01*
X155860Y139048D01*
X154965Y139387D01*
X154015Y139272D01*
X153227Y138728D01*
X152782Y137880D01*
Y136923D01*
X153227Y136075D01*
X154015Y135531D01*
X154965Y135416D01*
X155860Y135756D01*
X156495Y136472D01*
X156724Y137402D01*
X156567Y193465D02*
X156338Y194394D01*
X155703Y195110D01*
X154808Y195450D01*
X153858Y195335D01*
X153070Y194791D01*
X152625Y193943D01*
Y192986D01*
X153070Y192138D01*
X153858Y191595D01*
X154808Y191479D01*
X155703Y191819D01*
X156338Y192535D01*
X156567Y193465D01*
X156646Y184646D02*
X156417Y185575D01*
X155782Y186292D01*
X154887Y186631D01*
X153937Y186516D01*
X153149Y185972D01*
X152704Y185124D01*
Y184167D01*
X153149Y183319D01*
X153937Y182776D01*
X154887Y182660D01*
X155782Y183000D01*
X156417Y183716D01*
X156646Y184646D01*
X144756Y184882D02*
X144527Y185811D01*
X143892Y186528D01*
X142997Y186867D01*
X142047Y186752D01*
X141259Y186208D01*
X140814Y185361D01*
Y184403D01*
X141259Y183556D01*
X142047Y183012D01*
X142997Y182896D01*
X143892Y183236D01*
X144527Y183952D01*
X144756Y184882D01*
X144441Y193228D02*
X144212Y194158D01*
X143577Y194874D01*
X142682Y195214D01*
X141732Y195098D01*
X140944Y194555D01*
X140499Y193707D01*
Y192750D01*
X140944Y191902D01*
X141732Y191358D01*
X142682Y191243D01*
X143577Y191582D01*
X144212Y192299D01*
X144441Y193228D01*
X139638Y193307D02*
X139409Y194237D01*
X138774Y194953D01*
X137879Y195292D01*
X136929Y195177D01*
X136141Y194633D01*
X135696Y193786D01*
Y192829D01*
X136141Y191981D01*
X136929Y191437D01*
X137879Y191322D01*
X138774Y191661D01*
X139409Y192378D01*
X139638Y193307D01*
X144598Y188976D02*
X144369Y189906D01*
X143735Y190622D01*
X142840Y190962D01*
X141889Y190846D01*
X141101Y190303D01*
X140656Y189455D01*
Y188498D01*
X141101Y187650D01*
X141889Y187106D01*
X142840Y186991D01*
X143735Y187330D01*
X144369Y188047D01*
X144598Y188976D01*
X10769Y95956D02*
X10540Y96885D01*
X9905Y97602D01*
X9010Y97941D01*
X8059Y97826D01*
X7272Y97282D01*
X6827Y96434D01*
Y95477D01*
X7272Y94630D01*
X8059Y94086D01*
X9010Y93970D01*
X9905Y94310D01*
X10540Y95026D01*
X10769Y95956D01*
X71291Y49606D02*
X71062Y50536D01*
X70428Y51252D01*
X69532Y51592D01*
X68582Y51476D01*
X67794Y50933D01*
X67349Y50085D01*
Y49128D01*
X67794Y48280D01*
X68582Y47736D01*
X69532Y47621D01*
X70428Y47960D01*
X71062Y48677D01*
X71291Y49606D01*
X28772Y91732D02*
X28543Y92662D01*
X27908Y93378D01*
X27013Y93718D01*
X26062Y93602D01*
X25275Y93059D01*
X24830Y92211D01*
Y91254D01*
X25275Y90406D01*
X26062Y89862D01*
X27013Y89747D01*
X27908Y90086D01*
X28543Y90803D01*
X28772Y91732D01*
X52299Y135831D02*
X52070Y136760D01*
X51435Y137477D01*
X50540Y137816D01*
X49590Y137701D01*
X48802Y137157D01*
X48357Y136309D01*
Y135352D01*
X48802Y134504D01*
X49590Y133961D01*
X50540Y133845D01*
X51435Y134185D01*
X52070Y134901D01*
X52299Y135831D01*
X12827Y129528D02*
X12598Y130457D01*
X11963Y131174D01*
X11068Y131513D01*
X10118Y131398D01*
X9330Y130854D01*
X8885Y130006D01*
Y129049D01*
X9330Y128201D01*
X10118Y127657D01*
X11068Y127542D01*
X11963Y127882D01*
X12598Y128598D01*
X12827Y129528D01*
X8299Y159843D02*
X8070Y160772D01*
X7435Y161488D01*
X6540Y161828D01*
X5590Y161713D01*
X4802Y161169D01*
X4357Y160321D01*
Y159364D01*
X4802Y158516D01*
X5590Y157973D01*
X6540Y157857D01*
X7435Y158197D01*
X8070Y158913D01*
X8299Y159843D01*
X106528Y4921D02*
X106298Y5851D01*
X105664Y6567D01*
X104769Y6907D01*
X103818Y6791D01*
X103031Y6247D01*
X102586Y5400D01*
Y4443D01*
X103031Y3595D01*
X103818Y3051D01*
X104769Y2936D01*
X105664Y3275D01*
X106298Y3992D01*
X106528Y4921D01*
X101213D02*
X100984Y5851D01*
X100349Y6567D01*
X99454Y6907D01*
X98503Y6791D01*
X97716Y6247D01*
X97271Y5400D01*
Y4443D01*
X97716Y3595D01*
X98503Y3051D01*
X99454Y2936D01*
X100349Y3275D01*
X100984Y3992D01*
X101213Y4921D01*
X95504D02*
X95275Y5851D01*
X94640Y6567D01*
X93745Y6907D01*
X92795Y6791D01*
X92007Y6247D01*
X91562Y5400D01*
Y4443D01*
X92007Y3595D01*
X92795Y3051D01*
X93745Y2936D01*
X94640Y3275D01*
X95275Y3992D01*
X95504Y4921D01*
X80937Y91142D02*
X80708Y92071D01*
X80073Y92788D01*
X79178Y93127D01*
X78228Y93012D01*
X77440Y92468D01*
X76995Y91620D01*
Y90663D01*
X77440Y89815D01*
X78228Y89272D01*
X79178Y89156D01*
X80073Y89496D01*
X80708Y90212D01*
X80937Y91142D01*
X61055Y78543D02*
X60826Y79473D01*
X60191Y80189D01*
X59296Y80529D01*
X58346Y80413D01*
X57558Y79870D01*
X57113Y79022D01*
Y78065D01*
X57558Y77217D01*
X58346Y76673D01*
X59296Y76558D01*
X60191Y76897D01*
X60826Y77614D01*
X61055Y78543D01*
X46193Y66142D02*
X45964Y67071D01*
X45329Y67788D01*
X44434Y68127D01*
X43484Y68012D01*
X42696Y67468D01*
X42251Y66620D01*
Y65663D01*
X42696Y64815D01*
X43484Y64272D01*
X44434Y64156D01*
X45329Y64496D01*
X45964Y65212D01*
X46193Y66142D01*
X22472Y163583D02*
X22243Y164512D01*
X21609Y165229D01*
X20714Y165568D01*
X19763Y165453D01*
X18975Y164909D01*
X18531Y164061D01*
Y163104D01*
X18975Y162256D01*
X19763Y161713D01*
X20714Y161597D01*
X21609Y161937D01*
X22243Y162653D01*
X22472Y163583D01*
X32512Y184449D02*
X32283Y185378D01*
X31648Y186095D01*
X30753Y186434D01*
X29803Y186319D01*
X29015Y185775D01*
X28570Y184927D01*
Y183970D01*
X29015Y183123D01*
X29803Y182579D01*
X30753Y182463D01*
X31648Y182803D01*
X32283Y183519D01*
X32512Y184449D01*
X36055Y182087D02*
X35826Y183016D01*
X35191Y183733D01*
X34296Y184072D01*
X33346Y183957D01*
X32558Y183413D01*
X32113Y182565D01*
Y181608D01*
X32558Y180760D01*
X33346Y180217D01*
X34296Y180101D01*
X35191Y180441D01*
X35826Y181157D01*
X36055Y182087D01*
X35858Y186909D02*
X35629Y187839D01*
X34994Y188555D01*
X34099Y188895D01*
X33149Y188779D01*
X32361Y188236D01*
X31916Y187388D01*
Y186431D01*
X32361Y185583D01*
X33149Y185039D01*
X34099Y184924D01*
X34994Y185264D01*
X35629Y185980D01*
X35858Y186909D01*
X14795Y160236D02*
X14566Y161166D01*
X13931Y161882D01*
X13036Y162222D01*
X12086Y162106D01*
X11298Y161563D01*
X10853Y160715D01*
Y159758D01*
X11298Y158910D01*
X12086Y158366D01*
X13036Y158251D01*
X13931Y158590D01*
X14566Y159307D01*
X14795Y160236D01*
X41370Y125000D02*
X41141Y125929D01*
X40506Y126646D01*
X39611Y126985D01*
X38661Y126870D01*
X37873Y126326D01*
X37428Y125479D01*
Y124521D01*
X37873Y123674D01*
X38661Y123130D01*
X39611Y123015D01*
X40506Y123354D01*
X41141Y124071D01*
X41370Y125000D01*
X80839Y94882D02*
X80610Y95811D01*
X79975Y96528D01*
X79080Y96867D01*
X78129Y96752D01*
X77342Y96208D01*
X76897Y95360D01*
Y94403D01*
X77342Y93556D01*
X78129Y93012D01*
X79080Y92896D01*
X79975Y93236D01*
X80610Y93952D01*
X80839Y94882D01*
X72866Y107677D02*
X72637Y108607D01*
X72002Y109323D01*
X71107Y109663D01*
X70157Y109547D01*
X69369Y109003D01*
X68924Y108156D01*
Y107199D01*
X69369Y106351D01*
X70157Y105807D01*
X71107Y105692D01*
X72002Y106031D01*
X72637Y106748D01*
X72866Y107677D01*
X21488Y60630D02*
X21259Y61559D01*
X20624Y62276D01*
X19729Y62615D01*
X18779Y62500D01*
X17991Y61956D01*
X17546Y61109D01*
Y60151D01*
X17991Y59304D01*
X18779Y58760D01*
X19729Y58644D01*
X20624Y58984D01*
X21259Y59701D01*
X21488Y60630D01*
X100327Y127953D02*
X100098Y128882D01*
X99463Y129599D01*
X98568Y129938D01*
X97618Y129823D01*
X96830Y129279D01*
X96385Y128431D01*
Y127474D01*
X96830Y126627D01*
X97618Y126083D01*
X98568Y125967D01*
X99463Y126307D01*
X100098Y127023D01*
X100327Y127953D01*
Y131496D02*
X100098Y132425D01*
X99463Y133142D01*
X98568Y133482D01*
X97618Y133366D01*
X96830Y132822D01*
X96385Y131975D01*
Y131017D01*
X96830Y130170D01*
X97618Y129626D01*
X98568Y129511D01*
X99463Y129850D01*
X100098Y130567D01*
X100327Y131496D01*
X87984Y103150D02*
X87755Y104079D01*
X87120Y104796D01*
X86225Y105135D01*
X85275Y105020D01*
X84487Y104476D01*
X84042Y103628D01*
Y102671D01*
X84487Y101823D01*
X85275Y101280D01*
X86225Y101164D01*
X87120Y101504D01*
X87755Y102220D01*
X87984Y103150D01*
Y106457D02*
X87755Y107386D01*
X87120Y108103D01*
X86225Y108442D01*
X85275Y108327D01*
X84487Y107783D01*
X84042Y106935D01*
Y105978D01*
X84487Y105130D01*
X85275Y104587D01*
X86225Y104471D01*
X87120Y104811D01*
X87755Y105527D01*
X87984Y106457D01*
X37433Y166634D02*
X37204Y167563D01*
X36569Y168280D01*
X35674Y168619D01*
X34724Y168504D01*
X33936Y167960D01*
X33491Y167113D01*
Y166155D01*
X33936Y165308D01*
X34724Y164764D01*
X35674Y164648D01*
X36569Y164988D01*
X37204Y165704D01*
X37433Y166634D01*
X38221Y18898D02*
X37991Y19827D01*
X37357Y20544D01*
X36461Y20883D01*
X35511Y20768D01*
X34723Y20224D01*
X34279Y19376D01*
Y18419D01*
X34723Y17571D01*
X35511Y17028D01*
X36461Y16912D01*
X37357Y17252D01*
X37991Y17968D01*
X38221Y18898D01*
X34480Y11811D02*
X34251Y12741D01*
X33616Y13457D01*
X32721Y13796D01*
X31771Y13681D01*
X30983Y13137D01*
X30538Y12290D01*
Y11332D01*
X30983Y10485D01*
X31771Y9941D01*
X32721Y9826D01*
X33616Y10165D01*
X34251Y10882D01*
X34480Y11811D01*
X31528Y101969D02*
X31299Y102898D01*
X30664Y103614D01*
X29769Y103954D01*
X28818Y103839D01*
X28030Y103295D01*
X27586Y102447D01*
Y101490D01*
X28030Y100642D01*
X28818Y100099D01*
X29769Y99983D01*
X30664Y100322D01*
X31299Y101039D01*
X31528Y101969D01*
X148221Y67795D02*
X147991Y68725D01*
X147357Y69441D01*
X146461Y69781D01*
X145511Y69665D01*
X144723Y69121D01*
X144279Y68274D01*
Y67317D01*
X144723Y66469D01*
X145511Y65925D01*
X146461Y65810D01*
X147357Y66149D01*
X147991Y66866D01*
X148221Y67795D01*
X28378Y111024D02*
X28149Y111953D01*
X27514Y112670D01*
X26619Y113009D01*
X25669Y112894D01*
X24881Y112350D01*
X24436Y111502D01*
Y110545D01*
X24881Y109697D01*
X25669Y109154D01*
X26619Y109038D01*
X27514Y109378D01*
X28149Y110094D01*
X28378Y111024D01*
X39992Y67520D02*
X39763Y68449D01*
X39128Y69166D01*
X38233Y69505D01*
X37283Y69390D01*
X36495Y68846D01*
X36050Y67998D01*
Y67041D01*
X36495Y66193D01*
X37283Y65650D01*
X38233Y65534D01*
X39128Y65874D01*
X39763Y66590D01*
X39992Y67520D01*
X35661Y70965D02*
X35432Y71894D01*
X34798Y72610D01*
X33902Y72950D01*
X32952Y72835D01*
X32164Y72291D01*
X31719Y71443D01*
Y70486D01*
X32164Y69638D01*
X32952Y69095D01*
X33902Y68979D01*
X34798Y69319D01*
X35432Y70035D01*
X35661Y70965D01*
X35372Y62100D02*
X35143Y63030D01*
X34508Y63746D01*
X33613Y64086D01*
X32663Y63970D01*
X31875Y63427D01*
X31430Y62579D01*
Y61622D01*
X31875Y60774D01*
X32663Y60230D01*
X33613Y60115D01*
X34508Y60454D01*
X35143Y61171D01*
X35372Y62100D01*
X62236Y131102D02*
X62007Y132032D01*
X61372Y132748D01*
X60477Y133088D01*
X59527Y132972D01*
X58739Y132429D01*
X58294Y131581D01*
Y130624D01*
X58739Y129776D01*
X59527Y129232D01*
X60477Y129117D01*
X61372Y129456D01*
X62007Y130173D01*
X62236Y131102D01*
X40681Y136319D02*
X40452Y137248D01*
X39817Y137965D01*
X38922Y138304D01*
X37972Y138189D01*
X37184Y137645D01*
X36739Y136797D01*
Y135840D01*
X37184Y134993D01*
X37972Y134449D01*
X38922Y134334D01*
X39817Y134673D01*
X40452Y135389D01*
X40681Y136319D01*
X122866Y15354D02*
X122637Y16284D01*
X122002Y17000D01*
X121107Y17340D01*
X120157Y17224D01*
X119369Y16681D01*
X118924Y15833D01*
Y14876D01*
X119369Y14028D01*
X120157Y13484D01*
X121107Y13369D01*
X122002Y13708D01*
X122637Y14425D01*
X122866Y15354D01*
X6134Y110236D02*
X5905Y111166D01*
X5270Y111882D01*
X4375Y112222D01*
X3425Y112106D01*
X2637Y111563D01*
X2192Y110715D01*
Y109758D01*
X2637Y108910D01*
X3425Y108366D01*
X4375Y108251D01*
X5270Y108590D01*
X5905Y109307D01*
X6134Y110236D01*
X75032Y17520D02*
X74802Y18449D01*
X74168Y19166D01*
X73273Y19505D01*
X72322Y19390D01*
X71535Y18846D01*
X71090Y17998D01*
Y17041D01*
X71535Y16193D01*
X72322Y15650D01*
X73273Y15534D01*
X74168Y15874D01*
X74802Y16590D01*
X75032Y17520D01*
X53673Y192028D02*
X53444Y192957D01*
X52809Y193674D01*
X51914Y194013D01*
X50964Y193898D01*
X50176Y193354D01*
X49731Y192506D01*
Y191549D01*
X50176Y190701D01*
X50964Y190157D01*
X51914Y190042D01*
X52809Y190382D01*
X53444Y191098D01*
X53673Y192028D01*
X9677Y171260D02*
X9448Y172189D01*
X8813Y172906D01*
X7918Y173245D01*
X6968Y173130D01*
X6180Y172586D01*
X5735Y171739D01*
Y170781D01*
X6180Y169934D01*
X6968Y169390D01*
X7918Y169274D01*
X8813Y169614D01*
X9448Y170330D01*
X9677Y171260D01*
X31232Y173327D02*
X31003Y174256D01*
X30368Y174973D01*
X29473Y175312D01*
X28523Y175197D01*
X27735Y174653D01*
X27290Y173805D01*
Y172848D01*
X27735Y172001D01*
X28523Y171457D01*
X29473Y171341D01*
X30368Y171681D01*
X31003Y172397D01*
X31232Y173327D01*
X64008Y123228D02*
X63779Y124158D01*
X63144Y124874D01*
X62249Y125214D01*
X61299Y125098D01*
X60511Y124555D01*
X60066Y123707D01*
Y122750D01*
X60511Y121902D01*
X61299Y121358D01*
X62249Y121243D01*
X63144Y121582D01*
X63779Y122299D01*
X64008Y123228D01*
X19224Y125984D02*
X18995Y126914D01*
X18361Y127630D01*
X17466Y127970D01*
X16515Y127854D01*
X15727Y127311D01*
X15282Y126463D01*
Y125506D01*
X15727Y124658D01*
X16515Y124114D01*
X17466Y123999D01*
X18361Y124338D01*
X18995Y125055D01*
X19224Y125984D01*
D101*
X34109Y114732D02*
X33758Y115581D01*
X32909Y115932D01*
X32061Y115581D01*
X31709Y114732D01*
X32061Y113884D01*
X32909Y113532D01*
X33758Y113884D01*
X34109Y114732D01*
X55452Y126937D02*
X55101Y127786D01*
X54252Y128137D01*
X53403Y127786D01*
X53052Y126937D01*
X53403Y126089D01*
X54252Y125737D01*
X55101Y126089D01*
X55452Y126937D01*
X49180Y125933D02*
X48829Y126782D01*
X47980Y127133D01*
X47132Y126782D01*
X46780Y125933D01*
X47132Y125084D01*
X47980Y124733D01*
X48829Y125084D01*
X49180Y125933D01*
X48909Y121724D02*
X48557Y122573D01*
X47709Y122924D01*
X46860Y122573D01*
X46509Y121724D01*
X46860Y120876D01*
X47709Y120524D01*
X48557Y120876D01*
X48909Y121724D01*
X127381Y171850D02*
X127030Y172699D01*
X126181Y173050D01*
X125333Y172699D01*
X124981Y171850D01*
X125333Y171002D01*
X126181Y170650D01*
X127030Y171002D01*
X127381Y171850D01*
X129645Y174016D02*
X129293Y174864D01*
X128445Y175216D01*
X127596Y174864D01*
X127245Y174016D01*
X127596Y173167D01*
X128445Y172816D01*
X129293Y173167D01*
X129645Y174016D01*
X14389Y36220D02*
X14038Y37069D01*
X13189Y37420D01*
X12340Y37069D01*
X11989Y36220D01*
X12340Y35372D01*
X13189Y35021D01*
X14038Y35372D01*
X14389Y36220D01*
X10747Y39961D02*
X10396Y40809D01*
X9547Y41161D01*
X8699Y40809D01*
X8347Y39961D01*
X8699Y39112D01*
X9547Y38761D01*
X10396Y39112D01*
X10747Y39961D01*
Y36122D02*
X10396Y36971D01*
X9547Y37322D01*
X8699Y36971D01*
X8347Y36122D01*
X8699Y35274D01*
X9547Y34922D01*
X10396Y35274D01*
X10747Y36122D01*
X7302Y28150D02*
X6951Y28998D01*
X6102Y29350D01*
X5254Y28998D01*
X4902Y28150D01*
X5254Y27301D01*
X6102Y26950D01*
X6951Y27301D01*
X7302Y28150D01*
Y32087D02*
X6951Y32935D01*
X6102Y33287D01*
X5254Y32935D01*
X4902Y32087D01*
X5254Y31238D01*
X6102Y30887D01*
X6951Y31238D01*
X7302Y32087D01*
Y36024D02*
X6951Y36872D01*
X6102Y37224D01*
X5254Y36872D01*
X4902Y36024D01*
X5254Y35175D01*
X6102Y34824D01*
X6951Y35175D01*
X7302Y36024D01*
Y39961D02*
X6951Y40809D01*
X6102Y41161D01*
X5254Y40809D01*
X4902Y39961D01*
X5254Y39112D01*
X6102Y38761D01*
X6951Y39112D01*
X7302Y39961D01*
X3759Y28150D02*
X3408Y28998D01*
X2559Y29350D01*
X1711Y28998D01*
X1359Y28150D01*
X1711Y27301D01*
X2559Y26950D01*
X3408Y27301D01*
X3759Y28150D01*
Y32087D02*
X3408Y32935D01*
X2559Y33287D01*
X1711Y32935D01*
X1359Y32087D01*
X1711Y31238D01*
X2559Y30887D01*
X3408Y31238D01*
X3759Y32087D01*
Y36024D02*
X3408Y36872D01*
X2559Y37224D01*
X1711Y36872D01*
X1359Y36024D01*
X1711Y35175D01*
X2559Y34824D01*
X3408Y35175D01*
X3759Y36024D01*
Y39961D02*
X3408Y40809D01*
X2559Y41161D01*
X1711Y40809D01*
X1359Y39961D01*
X1711Y39112D01*
X2559Y38761D01*
X3408Y39112D01*
X3759Y39961D01*
X121318Y98740D02*
X120967Y99589D01*
X120118Y99940D01*
X119270Y99589D01*
X118918Y98740D01*
X119270Y97892D01*
X120118Y97540D01*
X120967Y97892D01*
X121318Y98740D01*
Y104252D02*
X120967Y105101D01*
X120118Y105452D01*
X119270Y105101D01*
X118918Y104252D01*
X119270Y103403D01*
X120118Y103052D01*
X120967Y103403D01*
X121318Y104252D01*
Y116063D02*
X120967Y116911D01*
X120118Y117263D01*
X119270Y116911D01*
X118918Y116063D01*
X119270Y115215D01*
X120118Y114863D01*
X120967Y115215D01*
X121318Y116063D01*
Y121968D02*
X120967Y122817D01*
X120118Y123169D01*
X119270Y122817D01*
X118918Y121968D01*
X119270Y121120D01*
X120118Y120768D01*
X120967Y121120D01*
X121318Y121968D01*
Y110158D02*
X120967Y111006D01*
X120118Y111357D01*
X119270Y111006D01*
X118918Y110158D01*
X119270Y109309D01*
X120118Y108958D01*
X120967Y109309D01*
X121318Y110158D01*
X125137Y98189D02*
X124785Y99037D01*
X123937Y99389D01*
X123089Y99037D01*
X122737Y98189D01*
X123089Y97340D01*
X123937Y96989D01*
X124785Y97340D01*
X125137Y98189D01*
Y103701D02*
X124785Y104549D01*
X123937Y104901D01*
X123089Y104549D01*
X122737Y103701D01*
X123089Y102852D01*
X123937Y102501D01*
X124785Y102852D01*
X125137Y103701D01*
Y115512D02*
X124785Y116360D01*
X123937Y116712D01*
X123089Y116360D01*
X122737Y115512D01*
X123089Y114663D01*
X123937Y114312D01*
X124785Y114663D01*
X125137Y115512D01*
Y121417D02*
X124785Y122266D01*
X123937Y122617D01*
X123089Y122266D01*
X122737Y121417D01*
X123089Y120569D01*
X123937Y120217D01*
X124785Y120569D01*
X125137Y121417D01*
Y109606D02*
X124785Y110455D01*
X123937Y110806D01*
X123089Y110455D01*
X122737Y109606D01*
X123089Y108758D01*
X123937Y108406D01*
X124785Y108758D01*
X125137Y109606D01*
X155924Y148819D02*
X155573Y149667D01*
X154724Y150019D01*
X153876Y149667D01*
X153524Y148819D01*
X153876Y147970D01*
X154724Y147619D01*
X155573Y147970D01*
X155924Y148819D01*
Y160630D02*
X155573Y161478D01*
X154724Y161830D01*
X153876Y161478D01*
X153524Y160630D01*
X153876Y159781D01*
X154724Y159430D01*
X155573Y159781D01*
X155924Y160630D01*
Y154724D02*
X155573Y155573D01*
X154724Y155924D01*
X153876Y155573D01*
X153524Y154724D01*
X153876Y153876D01*
X154724Y153524D01*
X155573Y153876D01*
X155924Y154724D01*
Y143386D02*
X155573Y144234D01*
X154724Y144586D01*
X153876Y144234D01*
X153524Y143386D01*
X153876Y142537D01*
X154724Y142186D01*
X155573Y142537D01*
X155924Y143386D01*
Y137402D02*
X155573Y138250D01*
X154724Y138602D01*
X153876Y138250D01*
X153524Y137402D01*
X153876Y136553D01*
X154724Y136202D01*
X155573Y136553D01*
X155924Y137402D01*
X155767Y193465D02*
X155415Y194313D01*
X154567Y194665D01*
X153718Y194313D01*
X153367Y193465D01*
X153718Y192616D01*
X154567Y192265D01*
X155415Y192616D01*
X155767Y193465D01*
X155846Y184646D02*
X155494Y185494D01*
X154646Y185846D01*
X153797Y185494D01*
X153446Y184646D01*
X153797Y183797D01*
X154646Y183446D01*
X155494Y183797D01*
X155846Y184646D01*
X143956Y184882D02*
X143604Y185730D01*
X142756Y186082D01*
X141907Y185730D01*
X141556Y184882D01*
X141907Y184033D01*
X142756Y183682D01*
X143604Y184033D01*
X143956Y184882D01*
X143641Y193228D02*
X143289Y194077D01*
X142441Y194428D01*
X141592Y194077D01*
X141241Y193228D01*
X141592Y192380D01*
X142441Y192028D01*
X143289Y192380D01*
X143641Y193228D01*
X138838Y193307D02*
X138486Y194156D01*
X137638Y194507D01*
X136789Y194156D01*
X136438Y193307D01*
X136789Y192459D01*
X137638Y192107D01*
X138486Y192459D01*
X138838Y193307D01*
X143798Y188976D02*
X143447Y189825D01*
X142598Y190176D01*
X141750Y189825D01*
X141398Y188976D01*
X141750Y188128D01*
X142598Y187776D01*
X143447Y188128D01*
X143798Y188976D01*
X9969Y95956D02*
X9617Y96804D01*
X8769Y97156D01*
X7920Y96804D01*
X7569Y95956D01*
X7920Y95107D01*
X8769Y94756D01*
X9617Y95107D01*
X9969Y95956D01*
X70491Y49606D02*
X70140Y50455D01*
X69291Y50806D01*
X68443Y50455D01*
X68091Y49606D01*
X68443Y48758D01*
X69291Y48406D01*
X70140Y48758D01*
X70491Y49606D01*
X27972Y91732D02*
X27620Y92581D01*
X26772Y92932D01*
X25923Y92581D01*
X25572Y91732D01*
X25923Y90884D01*
X26772Y90532D01*
X27620Y90884D01*
X27972Y91732D01*
X51499Y135831D02*
X51148Y136679D01*
X50299Y137031D01*
X49451Y136679D01*
X49099Y135831D01*
X49451Y134982D01*
X50299Y134631D01*
X51148Y134982D01*
X51499Y135831D01*
X12027Y129528D02*
X11675Y130376D01*
X10827Y130728D01*
X9978Y130376D01*
X9627Y129528D01*
X9978Y128679D01*
X10827Y128328D01*
X11675Y128679D01*
X12027Y129528D01*
X7499Y159843D02*
X7148Y160691D01*
X6299Y161042D01*
X5451Y160691D01*
X5099Y159843D01*
X5451Y158994D01*
X6299Y158642D01*
X7148Y158994D01*
X7499Y159843D01*
X105728Y4921D02*
X105376Y5770D01*
X104528Y6121D01*
X103679Y5770D01*
X103328Y4921D01*
X103679Y4073D01*
X104528Y3721D01*
X105376Y4073D01*
X105728Y4921D01*
X100413D02*
X100061Y5770D01*
X99213Y6121D01*
X98364Y5770D01*
X98013Y4921D01*
X98364Y4073D01*
X99213Y3721D01*
X100061Y4073D01*
X100413Y4921D01*
X94704D02*
X94353Y5770D01*
X93504Y6121D01*
X92655Y5770D01*
X92304Y4921D01*
X92655Y4073D01*
X93504Y3721D01*
X94353Y4073D01*
X94704Y4921D01*
X80137Y91142D02*
X79786Y91990D01*
X78937Y92342D01*
X78088Y91990D01*
X77737Y91142D01*
X78088Y90293D01*
X78937Y89942D01*
X79786Y90293D01*
X80137Y91142D01*
X60255Y78543D02*
X59904Y79392D01*
X59055Y79743D01*
X58207Y79392D01*
X57855Y78543D01*
X58207Y77695D01*
X59055Y77343D01*
X59904Y77695D01*
X60255Y78543D01*
X45393Y66142D02*
X45041Y66990D01*
X44193Y67342D01*
X43344Y66990D01*
X42993Y66142D01*
X43344Y65293D01*
X44193Y64942D01*
X45041Y65293D01*
X45393Y66142D01*
X21672Y163583D02*
X21321Y164431D01*
X20472Y164783D01*
X19624Y164431D01*
X19272Y163583D01*
X19624Y162734D01*
X20472Y162383D01*
X21321Y162734D01*
X21672Y163583D01*
X31712Y184449D02*
X31360Y185297D01*
X30512Y185649D01*
X29663Y185297D01*
X29312Y184449D01*
X29663Y183600D01*
X30512Y183249D01*
X31360Y183600D01*
X31712Y184449D01*
X35255Y182087D02*
X34904Y182935D01*
X34055Y183287D01*
X33207Y182935D01*
X32855Y182087D01*
X33207Y181238D01*
X34055Y180887D01*
X34904Y181238D01*
X35255Y182087D01*
X35058Y186909D02*
X34707Y187758D01*
X33858Y188109D01*
X33010Y187758D01*
X32658Y186909D01*
X33010Y186061D01*
X33858Y185709D01*
X34707Y186061D01*
X35058Y186909D01*
X13995Y160236D02*
X13644Y161085D01*
X12795Y161436D01*
X11947Y161085D01*
X11595Y160236D01*
X11947Y159388D01*
X12795Y159036D01*
X13644Y159388D01*
X13995Y160236D01*
X40570Y125000D02*
X40219Y125848D01*
X39370Y126200D01*
X38522Y125848D01*
X38170Y125000D01*
X38522Y124152D01*
X39370Y123800D01*
X40219Y124152D01*
X40570Y125000D01*
X80039Y94882D02*
X79687Y95730D01*
X78839Y96082D01*
X77990Y95730D01*
X77639Y94882D01*
X77990Y94033D01*
X78839Y93682D01*
X79687Y94033D01*
X80039Y94882D01*
X72066Y107677D02*
X71715Y108526D01*
X70866Y108877D01*
X70018Y108526D01*
X69666Y107677D01*
X70018Y106829D01*
X70866Y106477D01*
X71715Y106829D01*
X72066Y107677D01*
X20688Y60630D02*
X20337Y61478D01*
X19488Y61830D01*
X18640Y61478D01*
X18288Y60630D01*
X18640Y59781D01*
X19488Y59430D01*
X20337Y59781D01*
X20688Y60630D01*
X99527Y127953D02*
X99175Y128801D01*
X98327Y129153D01*
X97478Y128801D01*
X97127Y127953D01*
X97478Y127104D01*
X98327Y126753D01*
X99175Y127104D01*
X99527Y127953D01*
Y131496D02*
X99175Y132345D01*
X98327Y132696D01*
X97478Y132345D01*
X97127Y131496D01*
X97478Y130648D01*
X98327Y130296D01*
X99175Y130648D01*
X99527Y131496D01*
X87184Y103150D02*
X86833Y103998D01*
X85984Y104350D01*
X85136Y103998D01*
X84784Y103150D01*
X85136Y102301D01*
X85984Y101950D01*
X86833Y102301D01*
X87184Y103150D01*
Y106457D02*
X86833Y107305D01*
X85984Y107657D01*
X85136Y107305D01*
X84784Y106457D01*
X85136Y105608D01*
X85984Y105257D01*
X86833Y105608D01*
X87184Y106457D01*
X36633Y166634D02*
X36282Y167482D01*
X35433Y167834D01*
X34585Y167482D01*
X34233Y166634D01*
X34585Y165785D01*
X35433Y165434D01*
X36282Y165785D01*
X36633Y166634D01*
X37420Y18898D02*
X37069Y19746D01*
X36220Y20098D01*
X35372Y19746D01*
X35021Y18898D01*
X35372Y18049D01*
X36220Y17698D01*
X37069Y18049D01*
X37420Y18898D01*
X33680Y11811D02*
X33329Y12660D01*
X32480Y13011D01*
X31632Y12660D01*
X31280Y11811D01*
X31632Y10962D01*
X32480Y10611D01*
X33329Y10962D01*
X33680Y11811D01*
X30728Y101969D02*
X30376Y102817D01*
X29528Y103168D01*
X28679Y102817D01*
X28328Y101969D01*
X28679Y101120D01*
X29528Y100768D01*
X30376Y101120D01*
X30728Y101969D01*
X147421Y67795D02*
X147069Y68644D01*
X146221Y68995D01*
X145372Y68644D01*
X145020Y67795D01*
X145372Y66947D01*
X146221Y66595D01*
X147069Y66947D01*
X147421Y67795D01*
X27578Y111024D02*
X27226Y111872D01*
X26378Y112224D01*
X25529Y111872D01*
X25178Y111024D01*
X25529Y110175D01*
X26378Y109824D01*
X27226Y110175D01*
X27578Y111024D01*
X39192Y67520D02*
X38841Y68368D01*
X37992Y68720D01*
X37144Y68368D01*
X36792Y67520D01*
X37144Y66671D01*
X37992Y66320D01*
X38841Y66671D01*
X39192Y67520D01*
X34861Y70965D02*
X34510Y71813D01*
X33661Y72165D01*
X32813Y71813D01*
X32461Y70965D01*
X32813Y70116D01*
X33661Y69765D01*
X34510Y70116D01*
X34861Y70965D01*
X34572Y62100D02*
X34221Y62949D01*
X33372Y63300D01*
X32524Y62949D01*
X32172Y62100D01*
X32524Y61252D01*
X33372Y60900D01*
X34221Y61252D01*
X34572Y62100D01*
X61436Y131102D02*
X61085Y131951D01*
X60236Y132302D01*
X59388Y131951D01*
X59036Y131102D01*
X59388Y130254D01*
X60236Y129902D01*
X61085Y130254D01*
X61436Y131102D01*
X39881Y136319D02*
X39530Y137167D01*
X38681Y137519D01*
X37833Y137167D01*
X37481Y136319D01*
X37833Y135470D01*
X38681Y135119D01*
X39530Y135470D01*
X39881Y136319D01*
X122066Y15354D02*
X121715Y16203D01*
X120866Y16554D01*
X120018Y16203D01*
X119666Y15354D01*
X120018Y14506D01*
X120866Y14154D01*
X121715Y14506D01*
X122066Y15354D01*
X5334Y110236D02*
X4982Y111085D01*
X4134Y111436D01*
X3285Y111085D01*
X2934Y110236D01*
X3285Y109388D01*
X4134Y109036D01*
X4982Y109388D01*
X5334Y110236D01*
X74231Y17520D02*
X73880Y18368D01*
X73032Y18720D01*
X72183Y18368D01*
X71832Y17520D01*
X72183Y16671D01*
X73032Y16320D01*
X73880Y16671D01*
X74231Y17520D01*
X52873Y192028D02*
X52522Y192876D01*
X51673Y193228D01*
X50825Y192876D01*
X50473Y192028D01*
X50825Y191179D01*
X51673Y190828D01*
X52522Y191179D01*
X52873Y192028D01*
X8877Y171260D02*
X8526Y172108D01*
X7677Y172460D01*
X6829Y172108D01*
X6477Y171260D01*
X6829Y170411D01*
X7677Y170060D01*
X8526Y170411D01*
X8877Y171260D01*
X30432Y173327D02*
X30081Y174175D01*
X29232Y174527D01*
X28384Y174175D01*
X28032Y173327D01*
X28384Y172478D01*
X29232Y172127D01*
X30081Y172478D01*
X30432Y173327D01*
X63208Y123228D02*
X62856Y124077D01*
X62008Y124428D01*
X61159Y124077D01*
X60808Y123228D01*
X61159Y122380D01*
X62008Y122028D01*
X62856Y122380D01*
X63208Y123228D01*
X18424Y125984D02*
X18073Y126833D01*
X17224Y127184D01*
X16376Y126833D01*
X16024Y125984D01*
X16376Y125136D01*
X17224Y124784D01*
X18073Y125136D01*
X18424Y125984D01*
M02*
