G04*
G04 #@! TF.GenerationSoftware,Altium Limited,Altium Designer,25.2.1 (25)*
G04*
G04 Layer_Color=16711935*
%FSLAX25Y25*%
%MOIN*%
G70*
G04*
G04 #@! TF.SameCoordinates,E3AB8C20-A1E6-43C1-8624-3ED8289FA371*
G04*
G04*
G04 #@! TF.FilePolarity,Positive*
G04*
G01*
G75*
%ADD12C,0.00787*%
G36*
X122170Y49716D02*
Y49712D01*
Y49701D01*
Y49681D01*
Y49655D01*
X122167Y49620D01*
Y49586D01*
X122163Y49543D01*
X122159Y49497D01*
X122147Y49401D01*
X122132Y49301D01*
X122113Y49202D01*
X122082Y49113D01*
Y49109D01*
X122078Y49102D01*
X122074Y49090D01*
X122067Y49075D01*
X122044Y49036D01*
X122013Y48983D01*
X121971Y48925D01*
X121917Y48864D01*
X121848Y48806D01*
X121771Y48748D01*
X121767D01*
X121759Y48741D01*
X121748Y48737D01*
X121729Y48725D01*
X121710Y48718D01*
X121683Y48706D01*
X121648Y48691D01*
X121614Y48679D01*
X121575Y48668D01*
X121529Y48652D01*
X121483Y48641D01*
X121429Y48633D01*
X121314Y48618D01*
X121184Y48610D01*
X121149D01*
X121126Y48614D01*
X121095D01*
X121061Y48618D01*
X121022Y48622D01*
X120980Y48625D01*
X120888Y48641D01*
X120792Y48660D01*
X120692Y48691D01*
X120604Y48729D01*
X120600D01*
X120592Y48737D01*
X120584Y48741D01*
X120569Y48752D01*
X120527Y48779D01*
X120481Y48821D01*
X120427Y48871D01*
X120377Y48929D01*
X120327Y49002D01*
X120285Y49082D01*
Y49086D01*
X120281Y49094D01*
X120277Y49106D01*
X120270Y49125D01*
X120262Y49148D01*
X120254Y49178D01*
X120247Y49213D01*
X120239Y49251D01*
X120227Y49294D01*
X120220Y49340D01*
X120212Y49393D01*
X120204Y49447D01*
X120197Y49509D01*
X120193Y49574D01*
X120189Y49643D01*
Y49716D01*
Y51175D01*
X120523D01*
Y49716D01*
Y49712D01*
Y49701D01*
Y49685D01*
Y49662D01*
Y49635D01*
X120527Y49605D01*
X120531Y49532D01*
X120538Y49455D01*
X120546Y49374D01*
X120561Y49297D01*
X120569Y49263D01*
X120581Y49232D01*
X120584Y49225D01*
X120592Y49205D01*
X120607Y49178D01*
X120631Y49144D01*
X120657Y49106D01*
X120696Y49063D01*
X120738Y49025D01*
X120792Y48990D01*
X120800Y48987D01*
X120819Y48979D01*
X120849Y48963D01*
X120892Y48952D01*
X120945Y48937D01*
X121007Y48921D01*
X121076Y48913D01*
X121153Y48910D01*
X121187D01*
X121214Y48913D01*
X121245D01*
X121280Y48917D01*
X121356Y48929D01*
X121445Y48952D01*
X121529Y48979D01*
X121610Y49021D01*
X121648Y49044D01*
X121679Y49075D01*
Y49079D01*
X121686Y49082D01*
X121694Y49094D01*
X121702Y49109D01*
X121717Y49129D01*
X121729Y49152D01*
X121744Y49182D01*
X121759Y49217D01*
X121771Y49259D01*
X121786Y49305D01*
X121802Y49355D01*
X121813Y49417D01*
X121821Y49482D01*
X121829Y49551D01*
X121836Y49632D01*
Y49716D01*
Y51175D01*
X122170D01*
Y49716D01*
D02*
G37*
G36*
X124152Y50841D02*
X123146D01*
X123008Y50161D01*
X123011Y50165D01*
X123019Y50169D01*
X123030Y50177D01*
X123046Y50188D01*
X123069Y50200D01*
X123092Y50212D01*
X123153Y50242D01*
X123222Y50273D01*
X123303Y50296D01*
X123391Y50315D01*
X123484Y50323D01*
X123514D01*
X123537Y50319D01*
X123568Y50315D01*
X123599Y50311D01*
X123637Y50304D01*
X123676Y50296D01*
X123764Y50265D01*
X123810Y50250D01*
X123856Y50227D01*
X123906Y50200D01*
X123952Y50169D01*
X123998Y50135D01*
X124040Y50092D01*
X124044Y50089D01*
X124052Y50081D01*
X124064Y50069D01*
X124075Y50050D01*
X124094Y50027D01*
X124113Y50000D01*
X124133Y49970D01*
X124156Y49935D01*
X124179Y49893D01*
X124198Y49850D01*
X124217Y49801D01*
X124236Y49751D01*
X124248Y49693D01*
X124259Y49635D01*
X124267Y49570D01*
X124271Y49505D01*
Y49501D01*
Y49490D01*
Y49470D01*
X124267Y49447D01*
X124263Y49417D01*
X124259Y49382D01*
X124256Y49344D01*
X124248Y49301D01*
X124221Y49209D01*
X124186Y49113D01*
X124163Y49060D01*
X124136Y49009D01*
X124106Y48960D01*
X124071Y48913D01*
X124067Y48910D01*
X124060Y48902D01*
X124044Y48887D01*
X124025Y48867D01*
X124002Y48844D01*
X123971Y48818D01*
X123937Y48791D01*
X123895Y48764D01*
X123852Y48733D01*
X123802Y48706D01*
X123745Y48679D01*
X123687Y48656D01*
X123622Y48637D01*
X123557Y48622D01*
X123484Y48614D01*
X123407Y48610D01*
X123372D01*
X123349Y48614D01*
X123322Y48618D01*
X123288Y48622D01*
X123249Y48625D01*
X123207Y48633D01*
X123119Y48656D01*
X123027Y48691D01*
X122981Y48714D01*
X122934Y48741D01*
X122888Y48768D01*
X122846Y48802D01*
X122842Y48806D01*
X122838Y48810D01*
X122827Y48821D01*
X122812Y48837D01*
X122796Y48856D01*
X122777Y48879D01*
X122758Y48906D01*
X122735Y48937D01*
X122693Y49009D01*
X122650Y49098D01*
X122620Y49198D01*
X122608Y49255D01*
X122600Y49313D01*
X122927Y49336D01*
Y49332D01*
Y49324D01*
X122931Y49313D01*
X122934Y49297D01*
X122946Y49255D01*
X122961Y49202D01*
X122981Y49144D01*
X123011Y49086D01*
X123046Y49029D01*
X123092Y48979D01*
X123100Y48975D01*
X123115Y48960D01*
X123142Y48944D01*
X123180Y48921D01*
X123226Y48902D01*
X123280Y48883D01*
X123342Y48867D01*
X123407Y48864D01*
X123430D01*
X123445Y48867D01*
X123487Y48871D01*
X123541Y48883D01*
X123599Y48906D01*
X123664Y48933D01*
X123726Y48975D01*
X123756Y48998D01*
X123787Y49029D01*
Y49033D01*
X123795Y49036D01*
X123810Y49060D01*
X123837Y49098D01*
X123864Y49148D01*
X123891Y49213D01*
X123918Y49290D01*
X123933Y49378D01*
X123941Y49478D01*
Y49482D01*
Y49490D01*
Y49505D01*
X123937Y49520D01*
Y49543D01*
X123933Y49570D01*
X123921Y49632D01*
X123906Y49697D01*
X123879Y49766D01*
X123841Y49835D01*
X123791Y49897D01*
X123783Y49904D01*
X123764Y49920D01*
X123733Y49946D01*
X123687Y49973D01*
X123633Y50000D01*
X123564Y50027D01*
X123487Y50042D01*
X123403Y50050D01*
X123376D01*
X123349Y50046D01*
X123311Y50042D01*
X123269Y50031D01*
X123222Y50020D01*
X123176Y50000D01*
X123130Y49977D01*
X123126Y49973D01*
X123111Y49966D01*
X123088Y49950D01*
X123061Y49931D01*
X123034Y49904D01*
X123004Y49874D01*
X122973Y49839D01*
X122946Y49801D01*
X122654Y49843D01*
X122900Y51137D01*
X124152D01*
Y50841D01*
D02*
G37*
G36*
X58753Y30611D02*
X56526D01*
Y29370D01*
X56230D01*
Y30945D01*
X58753D01*
Y30611D01*
D02*
G37*
G36*
X57067Y28768D02*
X57064D01*
X57060D01*
X57037Y28764D01*
X57002Y28756D01*
X56956Y28748D01*
X56906Y28733D01*
X56852Y28718D01*
X56802Y28695D01*
X56753Y28668D01*
X56749Y28664D01*
X56733Y28652D01*
X56710Y28633D01*
X56683Y28602D01*
X56653Y28568D01*
X56618Y28526D01*
X56587Y28472D01*
X56557Y28414D01*
Y28410D01*
X56553Y28407D01*
X56545Y28384D01*
X56534Y28349D01*
X56522Y28299D01*
X56507Y28245D01*
X56495Y28176D01*
X56488Y28103D01*
X56484Y28026D01*
Y27996D01*
X56488Y27957D01*
X56491Y27915D01*
X56495Y27861D01*
X56507Y27808D01*
X56518Y27750D01*
X56537Y27692D01*
X56541Y27685D01*
X56549Y27669D01*
X56560Y27643D01*
X56580Y27612D01*
X56603Y27573D01*
X56630Y27539D01*
X56660Y27504D01*
X56695Y27474D01*
X56699Y27470D01*
X56714Y27462D01*
X56733Y27450D01*
X56760Y27435D01*
X56791Y27424D01*
X56829Y27412D01*
X56868Y27404D01*
X56910Y27400D01*
X56914D01*
X56929D01*
X56952Y27404D01*
X56979Y27408D01*
X57014Y27416D01*
X57048Y27431D01*
X57083Y27447D01*
X57117Y27470D01*
X57121Y27474D01*
X57133Y27481D01*
X57148Y27500D01*
X57171Y27523D01*
X57194Y27554D01*
X57217Y27593D01*
X57244Y27643D01*
X57267Y27696D01*
X57271Y27700D01*
X57275Y27715D01*
X57282Y27746D01*
X57290Y27765D01*
X57298Y27788D01*
X57305Y27819D01*
X57313Y27850D01*
X57325Y27888D01*
X57336Y27927D01*
X57348Y27973D01*
X57359Y28026D01*
X57375Y28084D01*
X57390Y28146D01*
Y28149D01*
X57394Y28161D01*
X57398Y28180D01*
X57405Y28203D01*
X57413Y28230D01*
X57421Y28261D01*
X57440Y28334D01*
X57467Y28414D01*
X57494Y28495D01*
X57521Y28568D01*
X57532Y28602D01*
X57547Y28629D01*
Y28633D01*
X57551Y28637D01*
X57567Y28660D01*
X57586Y28691D01*
X57613Y28729D01*
X57647Y28775D01*
X57686Y28817D01*
X57732Y28860D01*
X57782Y28898D01*
X57789Y28902D01*
X57809Y28914D01*
X57835Y28925D01*
X57874Y28940D01*
X57920Y28960D01*
X57974Y28971D01*
X58035Y28983D01*
X58096Y28986D01*
X58100D01*
X58104D01*
X58116D01*
X58131D01*
X58166Y28979D01*
X58212Y28971D01*
X58269Y28960D01*
X58327Y28940D01*
X58392Y28914D01*
X58454Y28879D01*
X58457D01*
X58461Y28875D01*
X58481Y28860D01*
X58511Y28833D01*
X58550Y28798D01*
X58588Y28756D01*
X58630Y28702D01*
X58672Y28637D01*
X58707Y28564D01*
Y28560D01*
X58711Y28556D01*
X58715Y28545D01*
X58722Y28526D01*
X58726Y28506D01*
X58734Y28483D01*
X58753Y28430D01*
X58768Y28361D01*
X58780Y28284D01*
X58792Y28195D01*
X58795Y28103D01*
Y28057D01*
X58792Y28030D01*
Y28003D01*
X58784Y27938D01*
X58772Y27861D01*
X58757Y27777D01*
X58734Y27692D01*
X58703Y27612D01*
Y27608D01*
X58699Y27604D01*
X58696Y27593D01*
X58688Y27577D01*
X58665Y27539D01*
X58638Y27489D01*
X58600Y27435D01*
X58553Y27381D01*
X58500Y27328D01*
X58438Y27281D01*
X58431Y27278D01*
X58407Y27262D01*
X58369Y27243D01*
X58323Y27224D01*
X58265Y27201D01*
X58196Y27178D01*
X58123Y27163D01*
X58043Y27155D01*
X58020Y27474D01*
X58024D01*
X58031D01*
X58043Y27477D01*
X58058Y27481D01*
X58100Y27489D01*
X58154Y27504D01*
X58212Y27527D01*
X58269Y27558D01*
X58327Y27600D01*
X58377Y27650D01*
X58381Y27658D01*
X58396Y27677D01*
X58415Y27712D01*
X58438Y27758D01*
X58461Y27819D01*
X58481Y27896D01*
X58496Y27984D01*
X58500Y28088D01*
Y28138D01*
X58496Y28161D01*
Y28192D01*
X58484Y28257D01*
X58473Y28330D01*
X58454Y28403D01*
X58427Y28472D01*
X58407Y28503D01*
X58388Y28530D01*
X58385Y28533D01*
X58369Y28549D01*
X58346Y28572D01*
X58311Y28595D01*
X58273Y28622D01*
X58227Y28641D01*
X58177Y28656D01*
X58119Y28664D01*
X58112D01*
X58096D01*
X58070Y28660D01*
X58039Y28652D01*
X58004Y28641D01*
X57966Y28622D01*
X57931Y28599D01*
X57897Y28568D01*
X57893Y28564D01*
X57881Y28545D01*
X57874Y28533D01*
X57862Y28518D01*
X57855Y28495D01*
X57843Y28468D01*
X57828Y28437D01*
X57812Y28403D01*
X57801Y28364D01*
X57785Y28318D01*
X57766Y28264D01*
X57751Y28207D01*
X57736Y28142D01*
X57716Y28069D01*
Y28065D01*
X57713Y28049D01*
X57709Y28030D01*
X57701Y28003D01*
X57693Y27969D01*
X57682Y27931D01*
X57663Y27846D01*
X57636Y27754D01*
X57609Y27662D01*
X57597Y27616D01*
X57582Y27577D01*
X57567Y27539D01*
X57555Y27508D01*
Y27504D01*
X57551Y27496D01*
X57543Y27489D01*
X57536Y27474D01*
X57513Y27435D01*
X57486Y27385D01*
X57447Y27331D01*
X57401Y27278D01*
X57351Y27228D01*
X57298Y27185D01*
X57290Y27182D01*
X57271Y27170D01*
X57240Y27151D01*
X57194Y27132D01*
X57144Y27112D01*
X57083Y27093D01*
X57014Y27082D01*
X56941Y27078D01*
X56937D01*
X56933D01*
X56921D01*
X56906D01*
X56868Y27086D01*
X56818Y27093D01*
X56760Y27105D01*
X56695Y27128D01*
X56626Y27155D01*
X56560Y27193D01*
X56553Y27197D01*
X56530Y27216D01*
X56499Y27239D01*
X56461Y27278D01*
X56415Y27324D01*
X56368Y27381D01*
X56326Y27450D01*
X56284Y27527D01*
Y27531D01*
X56280Y27539D01*
X56276Y27550D01*
X56269Y27566D01*
X56261Y27585D01*
X56253Y27608D01*
X56238Y27669D01*
X56219Y27738D01*
X56203Y27823D01*
X56192Y27911D01*
X56188Y28011D01*
Y28069D01*
X56192Y28096D01*
Y28130D01*
X56196Y28168D01*
X56200Y28211D01*
X56211Y28299D01*
X56230Y28395D01*
X56253Y28491D01*
X56284Y28583D01*
Y28587D01*
X56288Y28595D01*
X56296Y28606D01*
X56303Y28622D01*
X56326Y28664D01*
X56361Y28714D01*
X56403Y28775D01*
X56453Y28833D01*
X56514Y28894D01*
X56583Y28948D01*
X56587D01*
X56591Y28952D01*
X56603Y28960D01*
X56618Y28967D01*
X56637Y28979D01*
X56660Y28990D01*
X56718Y29013D01*
X56783Y29036D01*
X56864Y29059D01*
X56948Y29075D01*
X57041Y29083D01*
X57067Y28768D01*
D02*
G37*
G36*
X58131Y26506D02*
X58135Y26498D01*
X58143Y26483D01*
X58154Y26467D01*
X58166Y26444D01*
X58177Y26417D01*
X58212Y26356D01*
X58254Y26287D01*
X58304Y26210D01*
X58362Y26133D01*
X58423Y26060D01*
X58427Y26057D01*
X58431Y26053D01*
X58454Y26030D01*
X58488Y25995D01*
X58530Y25953D01*
X58584Y25907D01*
X58642Y25861D01*
X58703Y25818D01*
X58765Y25784D01*
Y25580D01*
X56230D01*
Y25891D01*
X58204D01*
X58200Y25895D01*
X58185Y25911D01*
X58166Y25938D01*
X58139Y25972D01*
X58104Y26014D01*
X58070Y26064D01*
X58027Y26122D01*
X57989Y26187D01*
Y26191D01*
X57985Y26195D01*
X57970Y26218D01*
X57951Y26252D01*
X57928Y26295D01*
X57901Y26344D01*
X57878Y26398D01*
X57851Y26456D01*
X57828Y26510D01*
X58131D01*
Y26506D01*
D02*
G37*
G36*
X136363Y135800D02*
X136966D01*
Y135489D01*
X136363D01*
Y134394D01*
X136079D01*
X134447Y135546D01*
Y135800D01*
X136079D01*
Y136142D01*
X136363D01*
Y135800D01*
D02*
G37*
G36*
X135998Y134064D02*
X136033D01*
X136075Y134060D01*
X136121Y134056D01*
X136217Y134045D01*
X136317Y134030D01*
X136417Y134010D01*
X136505Y133980D01*
X136509D01*
X136516Y133976D01*
X136528Y133972D01*
X136543Y133964D01*
X136582Y133941D01*
X136635Y133911D01*
X136693Y133868D01*
X136755Y133815D01*
X136812Y133745D01*
X136870Y133669D01*
Y133665D01*
X136877Y133657D01*
X136881Y133646D01*
X136893Y133626D01*
X136900Y133607D01*
X136912Y133580D01*
X136927Y133546D01*
X136939Y133511D01*
X136950Y133473D01*
X136966Y133427D01*
X136977Y133381D01*
X136985Y133327D01*
X137000Y133212D01*
X137008Y133081D01*
Y133047D01*
X137004Y133024D01*
Y132993D01*
X137000Y132958D01*
X136996Y132920D01*
X136993Y132878D01*
X136977Y132785D01*
X136958Y132689D01*
X136927Y132590D01*
X136889Y132501D01*
Y132497D01*
X136881Y132490D01*
X136877Y132482D01*
X136866Y132467D01*
X136839Y132424D01*
X136797Y132378D01*
X136747Y132325D01*
X136689Y132275D01*
X136616Y132225D01*
X136536Y132183D01*
X136532D01*
X136524Y132179D01*
X136513Y132175D01*
X136493Y132167D01*
X136470Y132159D01*
X136440Y132152D01*
X136405Y132144D01*
X136367Y132136D01*
X136324Y132125D01*
X136278Y132117D01*
X136225Y132110D01*
X136171Y132102D01*
X136109Y132094D01*
X136044Y132090D01*
X135975Y132087D01*
X135902D01*
X134443D01*
Y132421D01*
X135902D01*
X135906D01*
X135917D01*
X135933D01*
X135956D01*
X135983D01*
X136013Y132424D01*
X136086Y132428D01*
X136163Y132436D01*
X136244Y132444D01*
X136321Y132459D01*
X136355Y132467D01*
X136386Y132478D01*
X136393Y132482D01*
X136413Y132490D01*
X136440Y132505D01*
X136474Y132528D01*
X136513Y132555D01*
X136555Y132593D01*
X136593Y132636D01*
X136628Y132689D01*
X136632Y132697D01*
X136639Y132716D01*
X136655Y132747D01*
X136666Y132789D01*
X136681Y132843D01*
X136697Y132905D01*
X136705Y132974D01*
X136708Y133050D01*
Y133085D01*
X136705Y133112D01*
Y133143D01*
X136701Y133177D01*
X136689Y133254D01*
X136666Y133342D01*
X136639Y133427D01*
X136597Y133507D01*
X136574Y133546D01*
X136543Y133577D01*
X136539D01*
X136536Y133584D01*
X136524Y133592D01*
X136509Y133599D01*
X136489Y133615D01*
X136467Y133626D01*
X136436Y133642D01*
X136401Y133657D01*
X136359Y133669D01*
X136313Y133684D01*
X136263Y133699D01*
X136202Y133711D01*
X136136Y133719D01*
X136067Y133726D01*
X135986Y133734D01*
X135902D01*
X134443D01*
Y134068D01*
X135902D01*
X135906D01*
X135917D01*
X135937D01*
X135963D01*
X135998Y134064D01*
D02*
G37*
G36*
X124589Y137485D02*
X122362D01*
Y136244D01*
X122066D01*
Y137819D01*
X124589D01*
Y137485D01*
D02*
G37*
G36*
X122135Y136010D02*
X122166Y136006D01*
X122200Y136003D01*
X122239Y135991D01*
X122277Y135979D01*
X122281D01*
X122285Y135976D01*
X122308Y135968D01*
X122339Y135953D01*
X122385Y135930D01*
X122435Y135903D01*
X122492Y135864D01*
X122550Y135826D01*
X122611Y135776D01*
X122615D01*
X122619Y135768D01*
X122642Y135749D01*
X122677Y135718D01*
X122723Y135672D01*
X122776Y135615D01*
X122842Y135546D01*
X122915Y135461D01*
X122995Y135369D01*
X122999Y135365D01*
X123011Y135350D01*
X123026Y135331D01*
X123053Y135304D01*
X123080Y135269D01*
X123114Y135231D01*
X123187Y135146D01*
X123276Y135054D01*
X123364Y134962D01*
X123406Y134916D01*
X123448Y134877D01*
X123491Y134843D01*
X123529Y134812D01*
X123533D01*
X123537Y134804D01*
X123548Y134797D01*
X123564Y134789D01*
X123602Y134766D01*
X123652Y134739D01*
X123709Y134712D01*
X123771Y134689D01*
X123840Y134674D01*
X123905Y134666D01*
X123909D01*
X123913D01*
X123936Y134670D01*
X123971Y134674D01*
X124013Y134682D01*
X124063Y134701D01*
X124113Y134724D01*
X124167Y134755D01*
X124216Y134801D01*
X124220Y134808D01*
X124236Y134824D01*
X124255Y134854D01*
X124282Y134893D01*
X124305Y134943D01*
X124324Y135000D01*
X124339Y135070D01*
X124343Y135146D01*
Y135169D01*
X124339Y135185D01*
X124335Y135223D01*
X124328Y135273D01*
X124309Y135331D01*
X124285Y135392D01*
X124251Y135450D01*
X124205Y135503D01*
X124197Y135507D01*
X124182Y135523D01*
X124151Y135546D01*
X124109Y135569D01*
X124055Y135596D01*
X123994Y135615D01*
X123921Y135630D01*
X123836Y135638D01*
X123871Y135957D01*
X123875D01*
X123886D01*
X123905Y135953D01*
X123928Y135949D01*
X123959Y135941D01*
X123994Y135937D01*
X124071Y135914D01*
X124159Y135883D01*
X124247Y135841D01*
X124335Y135784D01*
X124374Y135753D01*
X124412Y135715D01*
X124416Y135711D01*
X124420Y135703D01*
X124431Y135691D01*
X124443Y135676D01*
X124454Y135653D01*
X124474Y135626D01*
X124489Y135596D01*
X124508Y135561D01*
X124524Y135523D01*
X124543Y135480D01*
X124558Y135430D01*
X124570Y135380D01*
X124593Y135265D01*
X124597Y135204D01*
X124600Y135139D01*
Y135104D01*
X124597Y135077D01*
X124593Y135046D01*
X124589Y135012D01*
X124585Y134974D01*
X124574Y134931D01*
X124550Y134839D01*
X124516Y134743D01*
X124493Y134693D01*
X124466Y134647D01*
X124431Y134605D01*
X124397Y134563D01*
X124393Y134559D01*
X124389Y134555D01*
X124378Y134543D01*
X124362Y134528D01*
X124339Y134513D01*
X124316Y134494D01*
X124259Y134455D01*
X124186Y134417D01*
X124101Y134382D01*
X124005Y134355D01*
X123951Y134351D01*
X123898Y134347D01*
X123890D01*
X123871D01*
X123840Y134351D01*
X123802Y134355D01*
X123756Y134363D01*
X123706Y134374D01*
X123652Y134390D01*
X123598Y134413D01*
X123591Y134417D01*
X123571Y134424D01*
X123544Y134440D01*
X123506Y134463D01*
X123460Y134490D01*
X123406Y134524D01*
X123352Y134570D01*
X123291Y134620D01*
X123283Y134628D01*
X123260Y134647D01*
X123226Y134682D01*
X123203Y134705D01*
X123176Y134731D01*
X123145Y134762D01*
X123110Y134801D01*
X123076Y134839D01*
X123034Y134881D01*
X122991Y134927D01*
X122945Y134981D01*
X122899Y135035D01*
X122845Y135096D01*
X122842Y135100D01*
X122834Y135108D01*
X122822Y135123D01*
X122807Y135142D01*
X122769Y135188D01*
X122719Y135246D01*
X122665Y135304D01*
X122611Y135365D01*
X122565Y135415D01*
X122546Y135434D01*
X122527Y135453D01*
X122523Y135457D01*
X122511Y135465D01*
X122496Y135480D01*
X122473Y135500D01*
X122423Y135542D01*
X122362Y135584D01*
Y134344D01*
X122066D01*
Y136014D01*
X122070D01*
X122085D01*
X122108D01*
X122135Y136010D01*
D02*
G37*
G36*
X145177Y175341D02*
X143203D01*
X143207Y175337D01*
X143223Y175322D01*
X143242Y175295D01*
X143269Y175260D01*
X143303Y175218D01*
X143338Y175168D01*
X143380Y175111D01*
X143419Y175045D01*
Y175042D01*
X143422Y175038D01*
X143438Y175015D01*
X143457Y174980D01*
X143480Y174938D01*
X143507Y174888D01*
X143530Y174834D01*
X143557Y174777D01*
X143580Y174723D01*
X143276D01*
Y174727D01*
X143273Y174734D01*
X143265Y174750D01*
X143253Y174765D01*
X143242Y174788D01*
X143230Y174815D01*
X143196Y174876D01*
X143154Y174946D01*
X143104Y175022D01*
X143046Y175099D01*
X142985Y175172D01*
X142981Y175176D01*
X142977Y175180D01*
X142954Y175203D01*
X142919Y175237D01*
X142877Y175280D01*
X142823Y175326D01*
X142766Y175372D01*
X142704Y175414D01*
X142643Y175449D01*
Y175652D01*
X145177D01*
Y175341D01*
D02*
G37*
G36*
Y172638D02*
X142654D01*
Y172972D01*
X144881D01*
Y174212D01*
X145177D01*
Y172638D01*
D02*
G37*
G36*
X91592Y18846D02*
X89619D01*
X89622Y18843D01*
X89638Y18827D01*
X89657Y18800D01*
X89684Y18766D01*
X89719Y18723D01*
X89753Y18674D01*
X89795Y18616D01*
X89834Y18551D01*
Y18547D01*
X89837Y18543D01*
X89853Y18520D01*
X89872Y18485D01*
X89895Y18443D01*
X89922Y18393D01*
X89945Y18339D01*
X89972Y18282D01*
X89995Y18228D01*
X89692D01*
Y18232D01*
X89688Y18240D01*
X89680Y18255D01*
X89669Y18270D01*
X89657Y18293D01*
X89645Y18320D01*
X89611Y18382D01*
X89569Y18451D01*
X89519Y18528D01*
X89461Y18604D01*
X89400Y18677D01*
X89396Y18681D01*
X89392Y18685D01*
X89369Y18708D01*
X89334Y18743D01*
X89292Y18785D01*
X89239Y18831D01*
X89181Y18877D01*
X89119Y18919D01*
X89058Y18954D01*
Y19157D01*
X91592D01*
Y18846D01*
D02*
G37*
G36*
X91784Y17610D02*
Y17606D01*
X91781Y17598D01*
X91773Y17583D01*
X91765Y17564D01*
X91758Y17541D01*
X91742Y17510D01*
X91727Y17479D01*
X91711Y17441D01*
X91669Y17360D01*
X91615Y17268D01*
X91554Y17168D01*
X91481Y17068D01*
Y17064D01*
X91489Y17057D01*
X91496Y17041D01*
X91504Y17018D01*
X91516Y16992D01*
X91531Y16961D01*
X91543Y16926D01*
X91558Y16888D01*
X91573Y16842D01*
X91585Y16796D01*
X91612Y16688D01*
X91627Y16573D01*
X91635Y16450D01*
Y16416D01*
X91631Y16393D01*
Y16362D01*
X91627Y16327D01*
X91619Y16289D01*
X91615Y16247D01*
X91596Y16151D01*
X91566Y16047D01*
X91527Y15939D01*
X91473Y15832D01*
X91470Y15828D01*
X91466Y15820D01*
X91454Y15805D01*
X91443Y15786D01*
X91427Y15763D01*
X91404Y15736D01*
X91354Y15675D01*
X91289Y15605D01*
X91208Y15536D01*
X91116Y15467D01*
X91009Y15406D01*
X91005D01*
X90993Y15398D01*
X90978Y15390D01*
X90955Y15383D01*
X90928Y15371D01*
X90894Y15360D01*
X90855Y15344D01*
X90813Y15333D01*
X90763Y15317D01*
X90713Y15302D01*
X90598Y15279D01*
X90471Y15264D01*
X90333Y15256D01*
X90329D01*
X90317D01*
X90294D01*
X90272Y15260D01*
X90237D01*
X90198Y15264D01*
X90156Y15267D01*
X90110Y15275D01*
X90003Y15294D01*
X89891Y15317D01*
X89772Y15356D01*
X89657Y15406D01*
X89653D01*
X89642Y15413D01*
X89626Y15421D01*
X89607Y15433D01*
X89580Y15448D01*
X89549Y15467D01*
X89484Y15517D01*
X89407Y15578D01*
X89331Y15651D01*
X89254Y15736D01*
X89189Y15836D01*
X89185Y15840D01*
X89181Y15847D01*
X89173Y15863D01*
X89162Y15886D01*
X89150Y15913D01*
X89139Y15943D01*
X89123Y15978D01*
X89108Y16020D01*
X89093Y16062D01*
X89077Y16112D01*
X89054Y16216D01*
X89035Y16335D01*
X89027Y16458D01*
Y16492D01*
X89031Y16515D01*
Y16546D01*
X89035Y16585D01*
X89043Y16623D01*
X89047Y16669D01*
X89069Y16765D01*
X89100Y16873D01*
X89139Y16980D01*
X89166Y17034D01*
X89196Y17088D01*
Y17091D01*
X89204Y17099D01*
X89212Y17115D01*
X89227Y17134D01*
X89242Y17157D01*
X89265Y17184D01*
X89315Y17245D01*
X89381Y17314D01*
X89461Y17387D01*
X89553Y17452D01*
X89661Y17514D01*
X89665D01*
X89672Y17522D01*
X89692Y17529D01*
X89715Y17537D01*
X89741Y17548D01*
X89772Y17560D01*
X89811Y17575D01*
X89857Y17591D01*
X89903Y17602D01*
X89957Y17617D01*
X90068Y17640D01*
X90195Y17656D01*
X90333Y17664D01*
X90337D01*
X90348D01*
X90364D01*
X90387D01*
X90413Y17660D01*
X90444D01*
X90479Y17656D01*
X90521Y17652D01*
X90605Y17640D01*
X90702Y17621D01*
X90798Y17598D01*
X90894Y17568D01*
X90897D01*
X90905Y17564D01*
X90917Y17556D01*
X90936Y17548D01*
X90955Y17541D01*
X90982Y17525D01*
X91039Y17495D01*
X91105Y17456D01*
X91178Y17406D01*
X91251Y17349D01*
X91324Y17280D01*
Y17283D01*
X91331Y17291D01*
X91339Y17303D01*
X91351Y17318D01*
X91362Y17341D01*
X91377Y17364D01*
X91412Y17422D01*
X91450Y17487D01*
X91489Y17560D01*
X91527Y17637D01*
X91558Y17714D01*
X91784Y17610D01*
D02*
G37*
G36*
X140440Y10938D02*
X140471Y10934D01*
X140505Y10931D01*
X140543Y10927D01*
X140586Y10915D01*
X140678Y10892D01*
X140774Y10858D01*
X140824Y10834D01*
X140870Y10808D01*
X140912Y10773D01*
X140954Y10739D01*
X140958Y10735D01*
X140962Y10731D01*
X140974Y10719D01*
X140989Y10704D01*
X141004Y10681D01*
X141024Y10658D01*
X141062Y10600D01*
X141100Y10527D01*
X141135Y10443D01*
X141162Y10347D01*
X141166Y10293D01*
X141169Y10239D01*
Y10232D01*
Y10212D01*
X141166Y10182D01*
X141162Y10143D01*
X141154Y10097D01*
X141142Y10047D01*
X141127Y9994D01*
X141104Y9940D01*
X141100Y9932D01*
X141093Y9913D01*
X141077Y9886D01*
X141054Y9848D01*
X141027Y9802D01*
X140993Y9748D01*
X140947Y9694D01*
X140897Y9633D01*
X140889Y9625D01*
X140870Y9602D01*
X140835Y9567D01*
X140812Y9544D01*
X140785Y9517D01*
X140755Y9487D01*
X140716Y9452D01*
X140678Y9418D01*
X140636Y9375D01*
X140590Y9333D01*
X140536Y9287D01*
X140482Y9241D01*
X140421Y9187D01*
X140417Y9183D01*
X140409Y9176D01*
X140394Y9164D01*
X140375Y9149D01*
X140329Y9110D01*
X140271Y9060D01*
X140213Y9007D01*
X140152Y8953D01*
X140102Y8907D01*
X140083Y8888D01*
X140064Y8868D01*
X140060Y8864D01*
X140052Y8853D01*
X140037Y8838D01*
X140017Y8815D01*
X139975Y8765D01*
X139933Y8703D01*
X141173D01*
Y8408D01*
X139503D01*
Y8411D01*
Y8427D01*
Y8450D01*
X139507Y8477D01*
X139511Y8507D01*
X139514Y8542D01*
X139526Y8580D01*
X139537Y8619D01*
Y8623D01*
X139541Y8626D01*
X139549Y8649D01*
X139564Y8680D01*
X139587Y8726D01*
X139614Y8776D01*
X139653Y8834D01*
X139691Y8891D01*
X139741Y8953D01*
Y8957D01*
X139749Y8961D01*
X139768Y8984D01*
X139798Y9018D01*
X139845Y9064D01*
X139902Y9118D01*
X139971Y9183D01*
X140056Y9256D01*
X140148Y9337D01*
X140152Y9341D01*
X140167Y9352D01*
X140186Y9368D01*
X140213Y9394D01*
X140248Y9421D01*
X140286Y9456D01*
X140371Y9529D01*
X140463Y9617D01*
X140555Y9706D01*
X140601Y9748D01*
X140639Y9790D01*
X140674Y9832D01*
X140705Y9871D01*
Y9875D01*
X140712Y9878D01*
X140720Y9890D01*
X140728Y9905D01*
X140751Y9944D01*
X140778Y9994D01*
X140805Y10051D01*
X140828Y10113D01*
X140843Y10182D01*
X140851Y10247D01*
Y10251D01*
Y10255D01*
X140847Y10278D01*
X140843Y10312D01*
X140835Y10354D01*
X140816Y10404D01*
X140793Y10454D01*
X140762Y10508D01*
X140716Y10558D01*
X140709Y10562D01*
X140693Y10577D01*
X140663Y10596D01*
X140624Y10623D01*
X140574Y10646D01*
X140517Y10666D01*
X140447Y10681D01*
X140371Y10685D01*
X140348D01*
X140332Y10681D01*
X140294Y10677D01*
X140244Y10669D01*
X140186Y10650D01*
X140125Y10627D01*
X140067Y10593D01*
X140014Y10547D01*
X140010Y10539D01*
X139994Y10523D01*
X139971Y10493D01*
X139948Y10450D01*
X139921Y10397D01*
X139902Y10335D01*
X139887Y10262D01*
X139879Y10178D01*
X139560Y10212D01*
Y10216D01*
Y10228D01*
X139564Y10247D01*
X139568Y10270D01*
X139576Y10301D01*
X139580Y10335D01*
X139603Y10412D01*
X139633Y10500D01*
X139676Y10589D01*
X139733Y10677D01*
X139764Y10715D01*
X139802Y10754D01*
X139806Y10758D01*
X139814Y10762D01*
X139825Y10773D01*
X139841Y10785D01*
X139864Y10796D01*
X139891Y10815D01*
X139921Y10831D01*
X139956Y10850D01*
X139994Y10865D01*
X140037Y10884D01*
X140086Y10900D01*
X140137Y10911D01*
X140252Y10934D01*
X140313Y10938D01*
X140378Y10942D01*
X140413D01*
X140440Y10938D01*
D02*
G37*
G36*
X138070Y10969D02*
X138101D01*
X138140Y10965D01*
X138178Y10957D01*
X138224Y10954D01*
X138320Y10931D01*
X138428Y10900D01*
X138535Y10861D01*
X138589Y10834D01*
X138643Y10804D01*
X138646D01*
X138654Y10796D01*
X138670Y10788D01*
X138689Y10773D01*
X138712Y10758D01*
X138739Y10735D01*
X138800Y10685D01*
X138869Y10619D01*
X138942Y10539D01*
X139007Y10447D01*
X139069Y10339D01*
Y10335D01*
X139077Y10328D01*
X139084Y10308D01*
X139092Y10285D01*
X139103Y10259D01*
X139115Y10228D01*
X139130Y10189D01*
X139146Y10143D01*
X139157Y10097D01*
X139173Y10043D01*
X139196Y9932D01*
X139211Y9805D01*
X139219Y9667D01*
Y9663D01*
Y9652D01*
Y9636D01*
Y9613D01*
X139215Y9586D01*
Y9556D01*
X139211Y9521D01*
X139207Y9479D01*
X139196Y9394D01*
X139176Y9298D01*
X139153Y9202D01*
X139123Y9106D01*
Y9103D01*
X139119Y9095D01*
X139111Y9083D01*
X139103Y9064D01*
X139096Y9045D01*
X139081Y9018D01*
X139050Y8961D01*
X139011Y8895D01*
X138961Y8822D01*
X138904Y8749D01*
X138835Y8676D01*
X138839D01*
X138846Y8669D01*
X138858Y8661D01*
X138873Y8649D01*
X138896Y8638D01*
X138919Y8623D01*
X138977Y8588D01*
X139042Y8550D01*
X139115Y8511D01*
X139192Y8473D01*
X139269Y8442D01*
X139165Y8216D01*
X139161D01*
X139153Y8219D01*
X139138Y8227D01*
X139119Y8235D01*
X139096Y8242D01*
X139065Y8258D01*
X139034Y8273D01*
X138996Y8288D01*
X138915Y8331D01*
X138823Y8384D01*
X138723Y8446D01*
X138623Y8519D01*
X138620D01*
X138612Y8511D01*
X138597Y8504D01*
X138574Y8496D01*
X138547Y8484D01*
X138516Y8469D01*
X138481Y8457D01*
X138443Y8442D01*
X138397Y8427D01*
X138351Y8415D01*
X138243Y8388D01*
X138128Y8373D01*
X138005Y8365D01*
X137971D01*
X137948Y8369D01*
X137917D01*
X137882Y8373D01*
X137844Y8381D01*
X137802Y8384D01*
X137706Y8404D01*
X137602Y8434D01*
X137495Y8473D01*
X137387Y8527D01*
X137383Y8530D01*
X137375Y8534D01*
X137360Y8546D01*
X137341Y8557D01*
X137318Y8573D01*
X137291Y8596D01*
X137230Y8646D01*
X137161Y8711D01*
X137091Y8792D01*
X137022Y8884D01*
X136961Y8991D01*
Y8995D01*
X136953Y9007D01*
X136945Y9022D01*
X136938Y9045D01*
X136926Y9072D01*
X136915Y9106D01*
X136899Y9145D01*
X136888Y9187D01*
X136872Y9237D01*
X136857Y9287D01*
X136834Y9402D01*
X136819Y9529D01*
X136811Y9667D01*
Y9671D01*
Y9683D01*
Y9706D01*
X136815Y9729D01*
Y9763D01*
X136819Y9802D01*
X136822Y9844D01*
X136830Y9890D01*
X136849Y9997D01*
X136872Y10109D01*
X136911Y10228D01*
X136961Y10343D01*
Y10347D01*
X136969Y10358D01*
X136976Y10374D01*
X136988Y10393D01*
X137003Y10420D01*
X137022Y10450D01*
X137072Y10516D01*
X137134Y10593D01*
X137206Y10669D01*
X137291Y10746D01*
X137391Y10811D01*
X137395Y10815D01*
X137402Y10819D01*
X137418Y10827D01*
X137441Y10838D01*
X137468Y10850D01*
X137498Y10861D01*
X137533Y10877D01*
X137575Y10892D01*
X137617Y10907D01*
X137667Y10923D01*
X137771Y10946D01*
X137890Y10965D01*
X138013Y10973D01*
X138048D01*
X138070Y10969D01*
D02*
G37*
G36*
X13299Y96748D02*
X13295D01*
X13287D01*
X13272D01*
X13253Y96744D01*
X13230D01*
X13203Y96740D01*
X13141Y96729D01*
X13072Y96717D01*
X13007Y96698D01*
X12949Y96671D01*
X12922Y96656D01*
X12899Y96640D01*
X12896Y96636D01*
X12884Y96621D01*
X12865Y96602D01*
X12849Y96571D01*
X12830Y96533D01*
X12811Y96487D01*
X12799Y96433D01*
X12796Y96372D01*
Y96348D01*
X12799Y96325D01*
X12803Y96298D01*
X12811Y96264D01*
X12819Y96226D01*
X12834Y96191D01*
X12853Y96156D01*
X12857Y96153D01*
X12865Y96141D01*
X12876Y96126D01*
X12896Y96106D01*
X12915Y96083D01*
X12942Y96064D01*
X12972Y96045D01*
X13007Y96030D01*
X13011D01*
X13026Y96022D01*
X13049Y96018D01*
X13084Y96011D01*
X13130Y96003D01*
X13183Y95999D01*
X13249Y95991D01*
X13326D01*
X15065D01*
Y95657D01*
X13345D01*
X13341D01*
X13329D01*
X13314D01*
X13291D01*
X13264Y95661D01*
X13233D01*
X13164Y95665D01*
X13084Y95676D01*
X13003Y95688D01*
X12922Y95707D01*
X12853Y95734D01*
X12846Y95738D01*
X12826Y95749D01*
X12796Y95769D01*
X12757Y95792D01*
X12711Y95826D01*
X12669Y95868D01*
X12627Y95922D01*
X12588Y95980D01*
X12584Y95987D01*
X12573Y96011D01*
X12561Y96045D01*
X12546Y96091D01*
X12527Y96149D01*
X12515Y96214D01*
X12504Y96291D01*
X12500Y96372D01*
Y96402D01*
X12504Y96425D01*
X12508Y96452D01*
X12512Y96487D01*
X12523Y96560D01*
X12546Y96640D01*
X12581Y96725D01*
X12600Y96767D01*
X12627Y96805D01*
X12654Y96844D01*
X12688Y96878D01*
X12692D01*
X12696Y96886D01*
X12707Y96894D01*
X12723Y96905D01*
X12746Y96921D01*
X12769Y96932D01*
X12799Y96951D01*
X12830Y96967D01*
X12869Y96982D01*
X12911Y96997D01*
X12957Y97013D01*
X13011Y97024D01*
X13064Y97036D01*
X13126Y97043D01*
X13187Y97047D01*
X13256D01*
X13299Y96748D01*
D02*
G37*
G36*
X14443Y94997D02*
X14447Y94989D01*
X14455Y94974D01*
X14466Y94958D01*
X14478Y94935D01*
X14489Y94908D01*
X14524Y94847D01*
X14566Y94778D01*
X14616Y94701D01*
X14673Y94624D01*
X14735Y94551D01*
X14739Y94547D01*
X14742Y94544D01*
X14766Y94521D01*
X14800Y94486D01*
X14842Y94444D01*
X14896Y94398D01*
X14954Y94352D01*
X15015Y94309D01*
X15077Y94275D01*
Y94071D01*
X12542D01*
Y94382D01*
X14516D01*
X14512Y94386D01*
X14497Y94402D01*
X14478Y94428D01*
X14451Y94463D01*
X14416Y94505D01*
X14382Y94555D01*
X14339Y94613D01*
X14301Y94678D01*
Y94682D01*
X14297Y94686D01*
X14282Y94709D01*
X14263Y94743D01*
X14240Y94785D01*
X14213Y94836D01*
X14190Y94889D01*
X14163Y94947D01*
X14140Y95001D01*
X14443D01*
Y94997D01*
D02*
G37*
%LPC*%
G36*
X136079Y135489D02*
X134950D01*
X136079Y134698D01*
Y135489D01*
D02*
G37*
G36*
X90333Y17318D02*
X90329D01*
X90317D01*
X90302D01*
X90283D01*
X90256Y17314D01*
X90225D01*
X90152Y17307D01*
X90068Y17291D01*
X89980Y17276D01*
X89887Y17249D01*
X89799Y17214D01*
X89795D01*
X89788Y17210D01*
X89776Y17203D01*
X89761Y17195D01*
X89719Y17172D01*
X89669Y17138D01*
X89611Y17095D01*
X89549Y17041D01*
X89492Y16980D01*
X89442Y16911D01*
Y16907D01*
X89438Y16903D01*
X89430Y16892D01*
X89423Y16876D01*
X89404Y16834D01*
X89377Y16780D01*
X89354Y16715D01*
X89334Y16638D01*
X89319Y16554D01*
X89315Y16462D01*
Y16427D01*
X89319Y16400D01*
X89323Y16369D01*
X89331Y16331D01*
X89338Y16289D01*
X89346Y16247D01*
X89377Y16147D01*
X89400Y16097D01*
X89423Y16043D01*
X89454Y15993D01*
X89488Y15939D01*
X89526Y15890D01*
X89573Y15843D01*
X89576Y15840D01*
X89584Y15832D01*
X89600Y15820D01*
X89619Y15805D01*
X89645Y15786D01*
X89680Y15767D01*
X89719Y15744D01*
X89761Y15724D01*
X89815Y15701D01*
X89868Y15678D01*
X89934Y15659D01*
X89999Y15640D01*
X90076Y15624D01*
X90156Y15613D01*
X90241Y15605D01*
X90333Y15601D01*
X90337D01*
X90356D01*
X90379D01*
X90413Y15605D01*
X90456Y15609D01*
X90502Y15613D01*
X90556Y15621D01*
X90613Y15632D01*
X90736Y15659D01*
X90798Y15682D01*
X90859Y15705D01*
X90924Y15732D01*
X90982Y15763D01*
X91039Y15801D01*
X91089Y15843D01*
X91093Y15847D01*
X91101Y15855D01*
X91112Y15867D01*
X91132Y15886D01*
X91151Y15913D01*
X91170Y15939D01*
X91197Y15974D01*
X91220Y16012D01*
X91243Y16055D01*
X91266Y16101D01*
X91289Y16151D01*
X91308Y16208D01*
X91327Y16266D01*
X91339Y16327D01*
X91347Y16393D01*
X91351Y16462D01*
Y16492D01*
X91347Y16527D01*
X91343Y16569D01*
X91335Y16619D01*
X91324Y16677D01*
X91308Y16738D01*
X91285Y16796D01*
X91281Y16788D01*
X91270Y16769D01*
X91251Y16738D01*
X91228Y16696D01*
X91205Y16650D01*
X91181Y16592D01*
X91158Y16535D01*
X91139Y16469D01*
X90897Y16550D01*
Y16554D01*
X90901Y16562D01*
X90905Y16577D01*
X90913Y16600D01*
X90920Y16623D01*
X90932Y16650D01*
X90959Y16719D01*
X90993Y16792D01*
X91032Y16873D01*
X91082Y16949D01*
X91139Y17022D01*
X91136Y17026D01*
X91128Y17034D01*
X91112Y17049D01*
X91089Y17068D01*
X91059Y17091D01*
X91024Y17115D01*
X90986Y17141D01*
X90936Y17172D01*
X90886Y17199D01*
X90824Y17226D01*
X90759Y17249D01*
X90686Y17272D01*
X90605Y17291D01*
X90521Y17307D01*
X90429Y17314D01*
X90333Y17318D01*
D02*
G37*
G36*
X138017Y10685D02*
X137982D01*
X137955Y10681D01*
X137925Y10677D01*
X137886Y10669D01*
X137844Y10662D01*
X137802Y10654D01*
X137702Y10623D01*
X137652Y10600D01*
X137598Y10577D01*
X137548Y10547D01*
X137495Y10512D01*
X137445Y10474D01*
X137399Y10427D01*
X137395Y10424D01*
X137387Y10416D01*
X137375Y10401D01*
X137360Y10381D01*
X137341Y10354D01*
X137322Y10320D01*
X137299Y10282D01*
X137279Y10239D01*
X137257Y10186D01*
X137233Y10132D01*
X137214Y10067D01*
X137195Y10001D01*
X137180Y9924D01*
X137168Y9844D01*
X137161Y9759D01*
X137157Y9667D01*
Y9663D01*
Y9644D01*
Y9621D01*
X137161Y9586D01*
X137164Y9544D01*
X137168Y9498D01*
X137176Y9444D01*
X137187Y9387D01*
X137214Y9264D01*
X137237Y9202D01*
X137260Y9141D01*
X137287Y9076D01*
X137318Y9018D01*
X137356Y8961D01*
X137399Y8911D01*
X137402Y8907D01*
X137410Y8899D01*
X137422Y8888D01*
X137441Y8868D01*
X137468Y8849D01*
X137495Y8830D01*
X137529Y8803D01*
X137567Y8780D01*
X137610Y8757D01*
X137656Y8734D01*
X137706Y8711D01*
X137763Y8692D01*
X137821Y8672D01*
X137882Y8661D01*
X137948Y8653D01*
X138017Y8649D01*
X138048D01*
X138082Y8653D01*
X138124Y8657D01*
X138174Y8665D01*
X138232Y8676D01*
X138293Y8692D01*
X138351Y8715D01*
X138343Y8719D01*
X138324Y8730D01*
X138293Y8749D01*
X138251Y8772D01*
X138205Y8795D01*
X138147Y8818D01*
X138090Y8841D01*
X138024Y8861D01*
X138105Y9103D01*
X138109D01*
X138117Y9099D01*
X138132Y9095D01*
X138155Y9087D01*
X138178Y9080D01*
X138205Y9068D01*
X138274Y9041D01*
X138347Y9007D01*
X138428Y8968D01*
X138505Y8918D01*
X138577Y8861D01*
X138581Y8864D01*
X138589Y8872D01*
X138604Y8888D01*
X138623Y8911D01*
X138646Y8941D01*
X138670Y8976D01*
X138697Y9014D01*
X138727Y9064D01*
X138754Y9114D01*
X138781Y9176D01*
X138804Y9241D01*
X138827Y9314D01*
X138846Y9394D01*
X138862Y9479D01*
X138869Y9571D01*
X138873Y9667D01*
Y9671D01*
Y9683D01*
Y9698D01*
Y9717D01*
X138869Y9744D01*
Y9775D01*
X138862Y9848D01*
X138846Y9932D01*
X138831Y10020D01*
X138804Y10113D01*
X138769Y10201D01*
Y10205D01*
X138766Y10212D01*
X138758Y10224D01*
X138750Y10239D01*
X138727Y10282D01*
X138693Y10331D01*
X138650Y10389D01*
X138597Y10450D01*
X138535Y10508D01*
X138466Y10558D01*
X138462D01*
X138458Y10562D01*
X138447Y10570D01*
X138432Y10577D01*
X138389Y10596D01*
X138336Y10623D01*
X138270Y10646D01*
X138193Y10666D01*
X138109Y10681D01*
X138017Y10685D01*
D02*
G37*
%LPD*%
D12*
X132480Y126969D02*
Y137205D01*
X141535D01*
Y126969D02*
Y137205D01*
X132480Y126969D02*
X141535D01*
X131665Y128961D02*
Y146677D01*
X113949Y128961D02*
X131665D01*
X113949D02*
Y146677D01*
X131665D01*
X139850Y164948D02*
X150504D01*
Y180327D01*
X139850D02*
X150504D01*
X139850Y164948D02*
Y180327D01*
X84744Y9311D02*
Y21201D01*
X97342D01*
Y9311D02*
Y21201D01*
X84744Y9311D02*
X97342D01*
X130866Y2657D02*
Y15256D01*
Y2657D02*
X142756D01*
Y15256D01*
X130866D02*
X142756D01*
X24173Y80118D02*
Y113976D01*
X827Y80118D02*
X24173D01*
X827D02*
Y113976D01*
X24173D01*
M02*
