M48
;Layer_Color=9474304
;FILE_FORMAT=2:4
INCH,TZ
;TYPE=PLATED
T01F00S00C0.0079
T02F00S00C0.0098
T03F00S00C0.0157
T04F00S00C0.0374
T05F00S00C0.0402
T06F00S00C0.0454
T07F00S00C0.0472
T08F00S00C0.0590
;TYPE=NON_PLATED
T09F00S00C0.0420
T10F00S00C0.0454
T11F00S00C0.0670
T12F00S00C0.0787
T13F00S00C0.1570
%
T01
X4004Y9287
X4437
X4870
X5303
X5736
Y9720
X5303
X4870
X4437
X4004
Y10154
X4437
X4870
X5303
X5736
Y10587
Y11020
X5303
Y10587
X4870
Y11020
X4437
Y10587
X4004
Y11020
X2018Y14409
X1585
Y14843
X2018
T02
X256Y2815
X610Y2815
Y3209
X256Y3209
Y3602
X610Y3602
X955Y3612
X1319Y3622
X955Y3996
X610
X256Y3996
X1949Y6063
X3337Y6210
X3366Y7096
X3799Y6752
X4419Y6614
X5906Y7854
X7894Y9114
X7884Y9488
X8598Y10315
Y10646
X7087Y10768
X6201Y12323
X6024Y13110
X5425Y12694
X4798Y12593
X4771Y12172
X3937Y12500
X3868Y13632
X5030Y13583
X3291Y11473
X2638Y11102
X2953Y10197
X2677Y9173
X877Y9596
X413Y11024
X1083Y12953
X1722Y12598
X9833Y12795
Y13150
X12012Y12197
X12394Y12142
Y11551
X12012Y11606
Y11016
X12394Y10961
Y10370
X12012Y10425
Y9874
X12394Y9819
X14622Y6780
X12087Y1535
X10453Y492
X9921
X9350
X7303Y1752
X6929Y4961
X3622Y1890
X3248Y1181
X15472Y13740
Y14339
Y14882
Y15472
Y16063
X15465Y18465
X15457Y19346
X14244Y19323
X14260Y18898
X14276Y18488
X13764Y19331
X12844Y17402
X12618Y17185
X5167Y19203
X3386Y18691
X3406Y18209
X3051Y18445
X2923Y17333
X3543Y16663
X2047Y16358
X1280Y16024
X630Y15984
X768Y17126
T03
X3926Y777
X4714
X5501
X6289
X5107Y1564
X4320
X3926Y3926
X3533Y4714
X2352Y3926
X7076
X7863
X8257Y4714
X7470
X7264Y7913
X6831Y8169
X10226Y8651
X11013
X12588
X13769Y7863
X14556
X15344
X14950Y8651
X15344Y6289
X14950Y5501
X15344Y4714
X14950Y3926
X15344Y3139
X14950Y2352
X15344Y1564
X14556
X11800Y2352
X11013
X10226
X9438
X9832Y3139
X11407
X11800Y3926
X12981Y4714
X10619Y14163
X10088Y14399
X9300
X8513
X8257Y12588
X6732Y11959
X4320Y14163
X3926Y14950
X3139
X2854Y8346
X11013Y14950
X10619Y15737
X9832
X9044
X9438Y16525
X10226
X11013
X11407Y17312
X10619
X9832
X9044
X9438Y18100
X10226
X11013
X15344Y17312
X5816Y16102
X5895Y18887
X4320
X4714Y18100
T04
X5693Y2110
Y4079
T05
X1193Y1890
X2193
X2194Y3051
X1194
X13750Y15098
X14750
T06
X1969Y787
T07
X10696Y3539
X10149Y4861
X10696Y6183
X13341
X13889Y4861
X13341Y3539
T08
X6874Y15004
X5874Y17504
T09
X444Y6767
X2444Y7167
Y6367
T10
X8661Y18898
T11
X7874Y14504
Y18504
T12
X787Y787
X14961
Y18898
X787
T13
X7874Y16504
M30
